{"glyphs":{"0":{"ha":727,"x_min":98,"x_max":629,"o":"m 510 776 q 522 764 521 773 l 522 98 q 510 85 519 87 l 217 85 q 205 98 206 88 l 205 764 q 217 776 208 774 l 510 776 m 98 142 q 191 -1 98 23 q 266 -9 222 -9 l 461 -9 q 621 76 593 -9 q 629 142 629 104 l 629 720 q 534 863 629 838 q 461 871 503 871 l 266 871 q 106 784 133 871 q 98 720 98 755 l 98 142 z "},"1":{"ha":571,"x_min":37,"x_max":533,"o":"m 533 84 l 373 84 l 373 861 l 278 861 l 37 704 l 81 632 l 270 750 l 270 84 l 75 84 l 75 0 l 533 0 l 533 84 z "},"2":{"ha":612,"x_min":57,"x_max":555,"o":"m 57 259 l 57 0 l 553 0 l 553 90 l 163 90 l 163 262 q 175 304 163 296 q 186 309 180 307 l 449 439 q 544 515 526 477 q 555 576 555 540 l 555 703 q 384 867 555 867 q 381 867 382 867 l 75 861 l 75 772 l 433 772 q 449 754 448 769 l 449 560 q 431 536 448 543 l 165 404 q 79 346 95 370 q 57 259 57 316 z "},"3":{"ha":613,"x_min":34,"x_max":517,"o":"m 517 163 l 517 316 q 444 448 515 416 q 510 571 509 483 l 510 701 q 331 867 507 868 l 38 861 l 38 773 l 387 773 q 403 755 401 770 l 403 507 q 387 490 400 491 l 111 490 l 111 400 l 393 400 q 410 382 408 397 l 410 107 q 393 91 407 92 l 34 91 l 34 0 l 332 -5 q 513 118 488 -7 q 517 163 517 140 z "},"4":{"ha":720,"x_min":26,"x_max":670,"o":"m 541 0 l 541 205 l 670 205 l 670 290 l 541 290 l 541 861 l 444 864 q 349 842 376 864 q 288 755 323 821 l 288 754 l 26 277 l 26 205 l 438 205 l 438 0 l 541 0 m 385 760 q 403 772 392 772 l 438 772 l 438 290 l 133 290 l 385 760 z "},"5":{"ha":613,"x_min":53,"x_max":543,"o":"m 168 522 l 168 770 l 514 770 l 514 861 l 64 861 l 64 433 l 418 433 q 435 415 434 430 l 435 107 q 418 91 433 92 l 53 91 l 53 0 l 363 -5 q 543 160 541 -5 l 543 362 q 358 522 540 521 l 168 522 z "},"6":{"ha":675,"x_min":100,"x_max":614,"o":"m 435 -4 q 613 137 602 -4 q 614 160 614 149 l 614 369 q 503 519 614 496 q 435 526 473 526 l 208 526 l 208 754 q 225 770 210 769 l 576 770 l 576 861 l 285 867 q 106 750 134 868 q 100 699 100 726 l 100 151 q 202 4 100 28 q 281 -4 236 -4 l 435 -4 m 227 91 q 208 107 209 94 l 208 437 l 490 437 q 507 420 506 434 l 507 107 q 490 91 505 92 l 227 91 z "},"7":{"ha":555,"x_min":24,"x_max":519,"o":"m 206 -3 l 519 760 q 418 863 517 861 l 24 861 l 24 776 l 399 776 q 407 760 414 773 l 95 -3 l 206 -3 z "},"8":{"ha":734,"x_min":96,"x_max":637,"o":"m 453 -5 q 635 129 616 -5 q 637 163 637 145 l 637 316 q 563 448 636 416 q 631 571 629 481 l 631 701 q 473 865 631 856 q 450 867 463 867 l 283 867 q 103 719 113 867 q 103 701 103 709 l 103 571 q 170 448 104 481 q 96 316 98 415 l 96 163 q 229 -1 96 23 q 281 -5 254 -5 l 453 -5 m 203 107 l 203 384 q 221 401 206 400 l 513 401 q 530 384 529 399 l 530 107 q 513 91 528 92 l 221 91 q 203 107 205 94 m 210 506 l 210 755 q 228 773 213 772 l 506 773 q 524 755 522 770 l 524 506 q 506 490 521 491 l 228 490 q 210 506 212 492 z "},"9":{"ha":675,"x_min":61,"x_max":575,"o":"m 575 163 l 575 711 q 472 857 575 833 q 396 865 439 865 l 240 865 q 62 724 73 865 q 61 701 61 712 l 61 486 q 172 335 61 358 q 240 328 202 328 l 468 328 l 468 107 q 450 91 465 92 l 91 91 l 91 0 l 391 -5 q 571 118 547 -7 q 575 163 575 140 m 186 418 q 168 434 170 420 l 168 754 q 186 770 171 769 l 450 770 q 468 754 467 768 l 468 418 l 186 418 z "},"A":{"ha":712,"x_min":18,"x_max":697,"o":"m 697 0 l 484 861 l 373 864 q 263 830 292 864 q 225 738 244 806 l 18 0 l 115 0 l 176 228 l 536 228 l 593 0 l 697 0 m 321 760 q 335 772 326 770 l 406 772 l 517 317 l 201 317 l 321 760 z "},"Æ":{"ha":1048,"x_min":4,"x_max":998,"o":"m 107 0 l 214 254 l 524 254 l 524 0 l 998 0 l 998 91 l 627 91 l 627 389 l 967 389 l 967 479 l 627 479 l 627 770 l 991 770 l 991 861 l 479 863 q 372 829 400 863 q 324 738 354 808 l 4 0 l 107 0 m 431 760 q 446 772 439 772 l 524 772 l 524 343 l 254 343 l 431 760 z "},"Á":{"ha":712,"x_min":18,"x_max":697,"o":"m 697 0 l 484 861 l 373 864 q 263 830 292 864 q 225 738 244 806 l 18 0 l 115 0 l 176 228 l 536 228 l 593 0 l 697 0 m 321 760 q 335 772 326 770 l 406 772 l 517 317 l 201 317 l 321 760 m 331 924 l 415 1111 l 525 1109 l 408 924 l 331 924 z "},"Ă":{"ha":712,"x_min":18,"x_max":697,"o":"m 697 0 l 484 861 l 373 864 q 263 830 292 864 q 225 738 244 806 l 18 0 l 115 0 l 176 228 l 536 228 l 593 0 l 697 0 m 321 760 q 335 772 326 770 l 406 772 l 517 317 l 201 317 l 321 760 m 228 1092 q 279 954 228 985 q 389 932 317 932 q 526 994 498 932 q 543 1092 543 1029 l 473 1092 q 444 1009 473 1025 q 389 998 423 998 q 304 1042 317 998 q 298 1092 298 1061 l 228 1092 z "},"Â":{"ha":712,"x_min":18,"x_max":697,"o":"m 697 0 l 484 861 l 373 864 q 263 830 292 864 q 225 738 244 806 l 18 0 l 115 0 l 176 228 l 536 228 l 593 0 l 697 0 m 321 760 q 335 772 326 770 l 406 772 l 517 317 l 201 317 l 321 760 m 427 1104 l 316 1104 l 190 924 l 279 924 l 372 1054 l 453 924 l 547 924 l 427 1104 z "},"Ä":{"ha":712,"x_min":18,"x_max":697,"o":"m 697 0 l 484 861 l 373 864 q 263 830 292 864 q 225 738 244 806 l 18 0 l 115 0 l 176 228 l 536 228 l 593 0 l 697 0 m 321 760 q 335 772 326 770 l 406 772 l 517 317 l 201 317 l 321 760 m 307 956 l 307 1070 l 209 1070 l 209 956 l 307 956 m 544 956 l 544 1070 l 446 1070 l 446 956 l 544 956 z "},"À":{"ha":712,"x_min":18,"x_max":697,"o":"m 697 0 l 484 861 l 373 864 q 263 830 292 864 q 225 738 244 806 l 18 0 l 115 0 l 176 228 l 536 228 l 593 0 l 697 0 m 321 760 q 335 772 326 770 l 406 772 l 517 317 l 201 317 l 321 760 m 221 1109 l 331 1111 l 423 924 l 347 924 l 221 1109 z "},"Ā":{"ha":712,"x_min":18,"x_max":697,"o":"m 697 0 l 484 861 l 373 864 q 263 830 292 864 q 225 738 244 806 l 18 0 l 115 0 l 176 228 l 536 228 l 593 0 l 697 0 m 321 760 q 335 772 326 770 l 406 772 l 517 317 l 201 317 l 321 760 m 547 1040 l 202 1040 l 202 964 l 547 964 l 547 1040 z "},"Ą":{"ha":712,"x_min":18,"x_max":723,"o":"m 697 0 l 484 861 l 373 864 q 263 830 292 864 q 225 738 244 806 l 18 0 l 115 0 l 176 228 l 536 228 l 593 0 l 621 0 l 549 -65 q 514 -155 514 -98 l 514 -183 q 587 -274 514 -259 q 651 -279 614 -279 l 723 -279 l 723 -205 l 609 -205 q 600 -195 601 -202 l 600 -122 q 610 -99 601 -109 l 697 0 m 321 760 q 335 772 326 770 l 406 772 l 517 317 l 201 317 l 321 760 z "},"Å":{"ha":712,"x_min":18,"x_max":697,"o":"m 697 0 l 484 861 l 373 864 q 263 830 292 864 q 225 738 244 806 l 18 0 l 115 0 l 176 228 l 536 228 l 593 0 l 697 0 m 321 760 q 335 772 326 770 l 406 772 l 517 317 l 201 317 l 321 760 m 499 1023 q 448 1130 499 1109 q 374 1141 420 1141 q 266 1092 286 1141 q 255 1023 255 1066 q 309 913 255 935 q 374 903 334 903 q 492 966 472 903 q 499 1023 499 989 m 313 1023 q 331 1085 313 1074 q 374 1092 345 1092 q 435 1067 427 1092 q 441 1023 441 1053 q 418 960 441 971 q 374 954 401 954 q 317 982 326 954 q 313 1023 313 997 z "},"Ã":{"ha":712,"x_min":18,"x_max":697,"o":"m 697 0 l 484 861 l 373 864 q 263 830 292 864 q 225 738 244 806 l 18 0 l 115 0 l 176 228 l 536 228 l 593 0 l 697 0 m 321 760 q 335 772 326 770 l 406 772 l 517 317 l 201 317 l 321 760 m 262 959 q 294 1010 263 1009 q 380 982 312 1010 q 463 960 430 960 q 548 1043 536 960 q 551 1085 551 1063 l 480 1085 q 453 1036 480 1040 q 444 1035 448 1035 q 358 1063 423 1035 q 274 1085 308 1085 q 195 1017 210 1085 q 191 959 191 991 l 262 959 z "},"B":{"ha":735,"x_min":98,"x_max":650,"o":"m 650 163 l 650 309 q 568 444 648 415 q 629 564 629 477 l 629 701 q 449 867 627 868 l 98 861 l 98 0 l 465 -5 q 644 111 616 -7 q 650 163 650 136 m 525 395 q 541 378 541 395 l 541 104 q 525 87 538 88 l 202 87 l 202 395 l 525 395 m 505 777 q 521 760 519 774 l 521 499 q 505 481 518 483 l 202 481 l 202 777 l 505 777 z "},"C":{"ha":583,"x_min":83,"x_max":553,"o":"m 553 94 l 203 94 q 191 106 191 94 l 191 755 q 203 768 191 768 l 553 768 l 553 861 l 251 861 q 92 781 121 861 q 83 711 83 751 l 83 151 q 178 8 83 33 q 251 0 209 0 l 553 0 l 553 94 z "},"Ć":{"ha":583,"x_min":83,"x_max":553,"o":"m 553 94 l 203 94 q 191 106 191 94 l 191 755 q 203 768 191 768 l 553 768 l 553 861 l 251 861 q 92 781 121 861 q 83 711 83 751 l 83 151 q 178 8 83 33 q 251 0 209 0 l 553 0 l 553 94 m 301 924 l 385 1111 l 495 1109 l 378 924 l 301 924 z "},"Č":{"ha":583,"x_min":83,"x_max":553,"o":"m 553 94 l 203 94 q 191 106 191 94 l 191 755 q 203 768 191 768 l 553 768 l 553 861 l 251 861 q 92 781 121 861 q 83 711 83 751 l 83 151 q 178 8 83 33 q 251 0 209 0 l 553 0 l 553 94 m 302 930 l 414 930 l 540 1111 l 450 1111 l 358 981 l 277 1111 l 183 1111 l 302 930 z "},"Ç":{"ha":583,"x_min":83,"x_max":553,"o":"m 553 94 l 203 94 q 191 106 191 94 l 191 755 q 203 768 191 768 l 553 768 l 553 861 l 251 861 q 92 781 121 861 q 83 711 83 751 l 83 151 q 178 8 83 33 q 251 0 209 0 l 292 0 l 263 -126 l 376 -126 q 385 -136 384 -129 l 385 -202 q 376 -212 382 -210 l 247 -212 l 247 -279 l 339 -279 q 460 -171 458 -277 l 460 -153 q 376 -68 460 -76 q 351 -66 363 -66 l 334 -66 l 347 0 l 553 0 l 553 94 z "},"D":{"ha":734,"x_min":98,"x_max":650,"o":"m 525 776 q 541 760 541 776 l 541 102 q 525 85 538 87 l 202 85 l 202 776 l 525 776 m 98 -1 l 465 -7 q 648 136 636 -8 q 650 160 650 148 l 650 701 q 525 864 650 845 q 469 868 499 868 l 98 861 l 98 -1 z "},"Ď":{"ha":734,"x_min":98,"x_max":650,"o":"m 525 776 q 541 760 541 776 l 541 102 q 525 85 538 87 l 202 85 l 202 776 l 525 776 m 98 -1 l 465 -7 q 648 136 636 -8 q 650 160 650 148 l 650 701 q 525 864 650 845 q 469 868 499 868 l 98 861 l 98 -1 m 316 930 l 427 930 l 553 1111 l 464 1111 l 372 981 l 290 1111 l 197 1111 l 316 930 z "},"Đ":{"ha":734,"x_min":22,"x_max":650,"o":"m 525 776 q 541 760 541 776 l 541 102 q 525 85 538 87 l 202 85 l 202 395 l 369 395 l 369 477 l 202 477 l 202 776 l 525 776 m 98 -1 l 465 -7 q 648 136 636 -8 q 650 160 650 148 l 650 701 q 525 864 650 845 q 469 868 499 868 l 98 861 l 98 477 l 22 477 l 22 395 l 98 395 l 98 -1 z "},"E":{"ha":623,"x_min":98,"x_max":576,"o":"m 576 0 l 576 91 l 202 91 l 202 393 l 547 393 l 547 483 l 202 483 l 202 770 l 570 770 l 570 861 l 98 861 l 98 0 l 576 0 z "},"É":{"ha":623,"x_min":98,"x_max":576,"o":"m 576 0 l 576 91 l 202 91 l 202 393 l 547 393 l 547 483 l 202 483 l 202 770 l 570 770 l 570 861 l 98 861 l 98 0 l 576 0 m 297 924 l 381 1111 l 491 1109 l 374 924 l 297 924 z "},"Ě":{"ha":623,"x_min":98,"x_max":576,"o":"m 576 0 l 576 91 l 202 91 l 202 393 l 547 393 l 547 483 l 202 483 l 202 770 l 570 770 l 570 861 l 98 861 l 98 0 l 576 0 m 293 930 l 404 930 l 530 1111 l 441 1111 l 349 981 l 267 1111 l 174 1111 l 293 930 z "},"Ê":{"ha":623,"x_min":98,"x_max":576,"o":"m 576 0 l 576 91 l 202 91 l 202 393 l 547 393 l 547 483 l 202 483 l 202 770 l 570 770 l 570 861 l 98 861 l 98 0 l 576 0 m 393 1104 l 282 1104 l 156 924 l 245 924 l 338 1054 l 419 924 l 513 924 l 393 1104 z "},"Ë":{"ha":623,"x_min":98,"x_max":576,"o":"m 576 0 l 576 91 l 202 91 l 202 393 l 547 393 l 547 483 l 202 483 l 202 770 l 570 770 l 570 861 l 98 861 l 98 0 l 576 0 m 273 956 l 273 1070 l 175 1070 l 175 956 l 273 956 m 510 956 l 510 1070 l 412 1070 l 412 956 l 510 956 z "},"Ė":{"ha":623,"x_min":98,"x_max":576,"o":"m 576 0 l 576 91 l 202 91 l 202 393 l 547 393 l 547 483 l 202 483 l 202 770 l 570 770 l 570 861 l 98 861 l 98 0 l 576 0 m 393 954 l 393 1078 l 289 1078 l 289 954 l 393 954 z "},"È":{"ha":623,"x_min":98,"x_max":576,"o":"m 576 0 l 576 91 l 202 91 l 202 393 l 547 393 l 547 483 l 202 483 l 202 770 l 570 770 l 570 861 l 98 861 l 98 0 l 576 0 m 187 1109 l 297 1111 l 389 924 l 313 924 l 187 1109 z "},"Ē":{"ha":623,"x_min":98,"x_max":576,"o":"m 576 0 l 576 91 l 202 91 l 202 393 l 547 393 l 547 483 l 202 483 l 202 770 l 570 770 l 570 861 l 98 861 l 98 0 l 576 0 m 513 1040 l 168 1040 l 168 964 l 513 964 l 513 1040 z "},"Ę":{"ha":623,"x_min":98,"x_max":602,"o":"m 576 0 l 576 91 l 202 91 l 202 393 l 547 393 l 547 483 l 202 483 l 202 770 l 570 770 l 570 861 l 98 861 l 98 0 l 500 0 l 429 -65 q 393 -155 393 -98 l 393 -183 q 467 -274 393 -259 q 530 -279 494 -279 l 602 -279 l 602 -205 l 488 -205 q 479 -195 480 -202 l 479 -122 q 490 -99 480 -109 l 576 0 z "},"Ð":{"ha":734,"x_min":22,"x_max":650,"o":"m 525 776 q 541 760 541 776 l 541 102 q 525 85 538 87 l 202 85 l 202 395 l 369 395 l 369 477 l 202 477 l 202 776 l 525 776 m 98 -1 l 465 -7 q 648 136 636 -8 q 650 160 650 148 l 650 701 q 525 864 650 845 q 469 868 499 868 l 98 861 l 98 477 l 22 477 l 22 395 l 98 395 l 98 -1 z "},"€":{"ha":633,"x_min":52,"x_max":590,"o":"m 590 720 l 590 814 l 301 814 q 145 735 174 814 q 134 663 134 705 l 134 519 l 52 519 l 52 453 l 134 453 l 134 370 l 52 370 l 52 302 l 134 302 l 134 151 q 227 8 134 33 q 301 0 258 0 l 590 0 l 590 94 l 252 94 q 240 106 241 96 l 240 302 l 439 302 l 439 370 l 240 370 l 240 453 l 439 453 l 439 519 l 240 519 l 240 708 q 252 720 243 719 l 590 720 z "},"F":{"ha":579,"x_min":98,"x_max":560,"o":"m 537 471 l 202 471 l 202 770 l 560 770 l 560 861 l 98 861 l 98 0 l 202 0 l 202 381 l 537 381 l 537 471 z "},"G":{"ha":715,"x_min":84,"x_max":644,"o":"m 476 -9 q 636 76 608 -9 q 644 142 644 104 l 644 449 l 384 449 l 384 362 l 541 362 l 541 98 q 529 85 538 87 l 203 85 q 191 98 193 88 l 191 764 q 203 776 194 774 l 629 776 l 629 871 l 252 871 q 92 784 119 871 q 84 720 84 755 l 84 142 q 178 -1 84 23 q 252 -9 209 -9 l 476 -9 z "},"Ğ":{"ha":715,"x_min":84,"x_max":644,"o":"m 476 -9 q 636 76 608 -9 q 644 142 644 104 l 644 449 l 384 449 l 384 362 l 541 362 l 541 98 q 529 85 538 87 l 203 85 q 191 98 193 88 l 191 764 q 203 776 194 774 l 629 776 l 629 871 l 252 871 q 92 784 119 871 q 84 720 84 755 l 84 142 q 178 -1 84 23 q 252 -9 209 -9 l 476 -9 m 227 1092 q 278 954 227 985 q 388 932 316 932 q 525 994 496 932 q 541 1092 541 1029 l 472 1092 q 442 1009 472 1025 q 388 998 422 998 q 302 1042 316 998 q 297 1092 297 1061 l 227 1092 z "},"H":{"ha":777,"x_min":98,"x_max":680,"o":"m 575 0 l 680 0 l 680 861 l 575 861 l 575 483 l 202 483 l 202 861 l 98 861 l 98 0 l 202 0 l 202 392 l 575 392 l 575 0 z "},"I":{"ha":336,"x_min":117,"x_max":220,"o":"m 220 0 l 220 861 l 117 861 l 117 0 l 220 0 z "},"Í":{"ha":336,"x_min":117,"x_max":316,"o":"m 220 0 l 220 861 l 117 861 l 117 0 l 220 0 m 122 924 l 206 1111 l 316 1109 l 199 924 l 122 924 z "},"Î":{"ha":336,"x_min":-18,"x_max":339,"o":"m 220 0 l 220 861 l 117 861 l 117 0 l 220 0 m 220 1104 l 109 1104 l -18 924 l 72 924 l 164 1054 l 245 924 l 339 924 l 220 1104 z "},"Ï":{"ha":336,"x_min":3,"x_max":338,"o":"m 220 0 l 220 861 l 117 861 l 117 0 l 220 0 m 100 956 l 100 1070 l 3 1070 l 3 956 l 100 956 m 338 956 l 338 1070 l 240 1070 l 240 956 l 338 956 z "},"İ":{"ha":336,"x_min":117,"x_max":221,"o":"m 220 0 l 220 861 l 117 861 l 117 0 l 220 0 m 221 954 l 221 1078 l 117 1078 l 117 954 l 221 954 z "},"Ì":{"ha":336,"x_min":15,"x_max":220,"o":"m 220 0 l 220 861 l 117 861 l 117 0 l 220 0 m 15 1109 l 125 1111 l 217 924 l 141 924 l 15 1109 z "},"Ī":{"ha":336,"x_min":-4,"x_max":340,"o":"m 220 0 l 220 861 l 117 861 l 117 0 l 220 0 m 340 1040 l -4 1040 l -4 964 l 340 964 l 340 1040 z "},"Į":{"ha":336,"x_min":37,"x_max":245,"o":"m 220 0 l 220 861 l 117 861 l 117 0 l 144 0 l 72 -65 q 37 -155 37 -98 l 37 -183 q 110 -274 37 -259 q 174 -279 137 -279 l 245 -279 l 245 -205 l 132 -205 q 122 -195 123 -202 l 122 -122 q 133 -99 123 -109 l 220 0 z "},"J":{"ha":366,"x_min":15,"x_max":266,"o":"m 266 861 l 163 861 l 163 98 q 151 85 160 87 l 15 85 l 15 -9 l 113 -9 q 255 64 228 -9 q 266 138 266 95 l 266 861 z "},"K":{"ha":734,"x_min":104,"x_max":723,"o":"m 411 392 q 423 381 419 392 l 425 380 l 612 0 l 723 0 l 557 330 q 498 423 521 406 q 473 438 486 433 q 537 514 510 453 q 549 544 543 528 l 689 861 l 585 861 l 425 494 q 412 481 418 483 l 209 481 l 209 861 l 104 861 l 104 0 l 209 0 l 209 392 l 411 392 z "},"L":{"ha":533,"x_min":98,"x_max":526,"o":"m 526 91 l 202 91 l 202 861 l 98 861 l 98 0 l 526 0 l 526 91 z "},"Ĺ":{"ha":533,"x_min":98,"x_max":526,"o":"m 526 91 l 202 91 l 202 861 l 98 861 l 98 0 l 526 0 l 526 91 m 103 924 l 187 1111 l 297 1109 l 180 924 l 103 924 z "},"Ľ":{"ha":533,"x_min":98,"x_max":526,"o":"m 526 91 l 202 91 l 202 861 l 98 861 l 98 0 l 526 0 l 526 91 m 401 595 q 471 749 469 667 l 471 861 l 363 861 l 363 728 l 403 728 q 365 624 396 671 l 401 595 z "},"Ł":{"ha":533,"x_min":98,"x_max":526,"o":"m 526 91 l 202 91 l 202 861 l 98 861 l 98 0 l 526 0 l 526 91 z "},"M":{"ha":875,"x_min":94,"x_max":784,"o":"m 712 861 l 681 861 l 439 395 l 228 811 q 178 859 206 853 q 152 861 167 861 l 94 861 l 94 0 l 187 0 l 187 697 l 403 274 l 463 274 l 684 697 l 684 0 l 784 0 l 784 785 q 735 860 784 850 q 712 861 724 861 z "},"N":{"ha":772,"x_min":92,"x_max":678,"o":"m 606 0 l 678 0 l 678 861 l 587 861 l 587 199 l 164 861 l 92 861 l 92 0 l 184 0 l 184 663 l 606 0 z "},"Ń":{"ha":772,"x_min":92,"x_max":678,"o":"m 606 0 l 678 0 l 678 861 l 587 861 l 587 199 l 164 861 l 92 861 l 92 0 l 184 0 l 184 663 l 606 0 m 339 924 l 423 1111 l 533 1109 l 416 924 l 339 924 z "},"Ň":{"ha":772,"x_min":92,"x_max":678,"o":"m 606 0 l 678 0 l 678 861 l 587 861 l 587 199 l 164 861 l 92 861 l 92 0 l 184 0 l 184 663 l 606 0 m 335 930 l 446 930 l 572 1111 l 483 1111 l 391 981 l 309 1111 l 216 1111 l 335 930 z "},"Ñ":{"ha":772,"x_min":92,"x_max":678,"o":"m 606 0 l 678 0 l 678 861 l 587 861 l 587 199 l 164 861 l 92 861 l 92 0 l 184 0 l 184 663 l 606 0 m 270 959 q 302 1010 271 1009 q 388 982 320 1010 q 471 960 438 960 q 556 1043 544 960 q 559 1085 559 1063 l 488 1085 q 461 1036 488 1040 q 452 1035 456 1035 q 366 1063 431 1035 q 282 1085 316 1085 q 203 1017 218 1085 q 199 959 199 991 l 270 959 z "},"O":{"ha":753,"x_min":84,"x_max":669,"o":"m 548 776 q 560 764 559 773 l 560 98 q 548 85 557 87 l 203 85 q 191 98 193 88 l 191 764 q 203 776 194 774 l 548 776 m 84 142 q 178 -1 84 23 q 252 -9 209 -9 l 500 -9 q 661 76 632 -9 q 669 142 669 104 l 669 720 q 574 863 669 838 q 500 871 543 871 l 252 871 q 92 784 119 871 q 84 720 84 755 l 84 142 z "},"Œ":{"ha":1066,"x_min":73,"x_max":1016,"o":"m 1016 0 l 1016 91 l 644 91 l 644 393 l 986 393 l 986 483 l 644 483 l 644 770 l 1009 770 l 1009 861 l 241 865 q 81 779 109 865 q 73 715 73 750 l 73 146 q 168 4 73 28 q 241 -4 199 -4 l 1016 0 m 193 90 q 180 103 182 92 l 180 760 q 193 772 183 770 l 540 772 l 540 90 l 193 90 z "},"Ó":{"ha":753,"x_min":84,"x_max":669,"o":"m 548 776 q 560 764 559 773 l 560 98 q 548 85 557 87 l 203 85 q 191 98 193 88 l 191 764 q 203 776 194 774 l 548 776 m 84 142 q 178 -1 84 23 q 252 -9 209 -9 l 500 -9 q 661 76 632 -9 q 669 142 669 104 l 669 720 q 574 863 669 838 q 500 871 543 871 l 252 871 q 92 784 119 871 q 84 720 84 755 l 84 142 m 335 924 l 419 1111 l 529 1109 l 412 924 l 335 924 z "},"Ô":{"ha":753,"x_min":84,"x_max":669,"o":"m 548 776 q 560 764 559 773 l 560 98 q 548 85 557 87 l 203 85 q 191 98 193 88 l 191 764 q 203 776 194 774 l 548 776 m 84 142 q 178 -1 84 23 q 252 -9 209 -9 l 500 -9 q 661 76 632 -9 q 669 142 669 104 l 669 720 q 574 863 669 838 q 500 871 543 871 l 252 871 q 92 784 119 871 q 84 720 84 755 l 84 142 m 431 1104 l 320 1104 l 194 924 l 283 924 l 376 1054 l 457 924 l 551 924 l 431 1104 z "},"Ö":{"ha":753,"x_min":84,"x_max":669,"o":"m 548 776 q 560 764 559 773 l 560 98 q 548 85 557 87 l 203 85 q 191 98 193 88 l 191 764 q 203 776 194 774 l 548 776 m 84 142 q 178 -1 84 23 q 252 -9 209 -9 l 500 -9 q 661 76 632 -9 q 669 142 669 104 l 669 720 q 574 863 669 838 q 500 871 543 871 l 252 871 q 92 784 119 871 q 84 720 84 755 l 84 142 m 312 956 l 312 1070 l 214 1070 l 214 956 l 312 956 m 549 956 l 549 1070 l 452 1070 l 452 956 l 549 956 z "},"Ò":{"ha":753,"x_min":84,"x_max":669,"o":"m 548 776 q 560 764 559 773 l 560 98 q 548 85 557 87 l 203 85 q 191 98 193 88 l 191 764 q 203 776 194 774 l 548 776 m 84 142 q 178 -1 84 23 q 252 -9 209 -9 l 500 -9 q 661 76 632 -9 q 669 142 669 104 l 669 720 q 574 863 669 838 q 500 871 543 871 l 252 871 q 92 784 119 871 q 84 720 84 755 l 84 142 m 227 1109 l 336 1111 l 429 924 l 353 924 l 227 1109 z "},"Ő":{"ha":753,"x_min":84,"x_max":669,"o":"m 548 776 q 560 764 559 773 l 560 98 q 548 85 557 87 l 203 85 q 191 98 193 88 l 191 764 q 203 776 194 774 l 548 776 m 84 142 q 178 -1 84 23 q 252 -9 209 -9 l 500 -9 q 661 76 632 -9 q 669 142 669 104 l 669 720 q 574 863 669 838 q 500 871 543 871 l 252 871 q 92 784 119 871 q 84 720 84 755 l 84 142 m 251 924 l 332 1111 l 439 1109 l 326 924 l 251 924 m 425 924 l 509 1111 l 616 1109 l 499 924 l 425 924 z "},"Ō":{"ha":753,"x_min":84,"x_max":669,"o":"m 548 776 q 560 764 559 773 l 560 98 q 548 85 557 87 l 203 85 q 191 98 193 88 l 191 764 q 203 776 194 774 l 548 776 m 84 142 q 178 -1 84 23 q 252 -9 209 -9 l 500 -9 q 661 76 632 -9 q 669 142 669 104 l 669 720 q 574 863 669 838 q 500 871 543 871 l 252 871 q 92 784 119 871 q 84 720 84 755 l 84 142 m 552 1040 l 208 1040 l 208 964 l 552 964 l 552 1040 z "},"Ø":{"ha":753,"x_min":84,"x_max":669,"o":"m 582 926 l 553 867 q 500 871 529 871 l 252 871 q 92 784 119 871 q 84 720 84 755 l 84 142 q 138 15 85 49 l 98 -69 l 171 -69 l 202 -7 q 252 -9 232 -9 l 500 -9 q 661 76 632 -9 q 669 142 669 104 l 669 720 q 616 845 667 810 l 655 926 l 582 926 m 191 764 q 203 776 194 774 l 509 776 l 191 123 l 191 764 m 560 98 q 548 85 557 87 l 245 85 l 560 731 l 560 98 z "},"Õ":{"ha":753,"x_min":84,"x_max":669,"o":"m 548 776 q 560 764 559 773 l 560 98 q 548 85 557 87 l 203 85 q 191 98 193 88 l 191 764 q 203 776 194 774 l 548 776 m 84 142 q 178 -1 84 23 q 252 -9 209 -9 l 500 -9 q 661 76 632 -9 q 669 142 669 104 l 669 720 q 574 863 669 838 q 500 871 543 871 l 252 871 q 92 784 119 871 q 84 720 84 755 l 84 142 m 266 959 q 298 1010 267 1009 q 384 982 316 1010 q 467 960 434 960 q 552 1043 540 960 q 555 1085 555 1063 l 484 1085 q 457 1036 484 1040 q 448 1035 452 1035 q 362 1063 427 1035 q 278 1085 312 1085 q 199 1017 214 1085 q 195 959 195 991 l 266 959 z "},"P":{"ha":677,"x_min":100,"x_max":640,"o":"m 205 0 l 203 336 l 460 336 q 640 503 639 339 l 640 701 q 460 867 637 868 l 100 861 l 100 0 l 205 0 m 515 776 q 532 758 530 773 l 532 444 q 515 426 529 427 l 203 426 l 203 776 l 515 776 z "},"Q":{"ha":757,"x_min":84,"x_max":669,"o":"m 548 776 q 560 764 559 773 l 560 98 q 548 85 557 87 l 203 85 q 191 98 193 88 l 191 764 q 203 776 194 774 l 548 776 m 84 142 q 178 -1 84 23 q 252 -9 209 -9 l 381 -9 l 419 -156 l 519 -156 l 476 -9 l 500 -9 q 661 76 632 -9 q 669 142 669 104 l 669 720 q 574 863 669 838 q 500 871 543 871 l 252 871 q 92 784 119 871 q 84 720 84 755 l 84 142 z "},"R":{"ha":718,"x_min":100,"x_max":667,"o":"m 205 0 l 203 354 l 423 354 q 445 339 439 353 l 562 0 l 667 0 l 568 282 q 522 362 548 339 q 642 522 640 391 l 642 701 q 461 867 639 868 l 100 861 l 100 0 l 205 0 m 517 776 q 533 758 532 773 l 533 460 q 517 442 530 444 l 203 442 l 203 776 l 517 776 z "},"Ŕ":{"ha":718,"x_min":100,"x_max":667,"o":"m 205 0 l 203 354 l 423 354 q 445 339 439 353 l 562 0 l 667 0 l 568 282 q 522 362 548 339 q 642 522 640 391 l 642 701 q 461 867 639 868 l 100 861 l 100 0 l 205 0 m 517 776 q 533 758 532 773 l 533 460 q 517 442 530 444 l 203 442 l 203 776 l 517 776 m 307 924 l 391 1111 l 500 1109 l 384 924 l 307 924 z "},"Ř":{"ha":718,"x_min":100,"x_max":667,"o":"m 205 0 l 203 354 l 423 354 q 445 339 439 353 l 562 0 l 667 0 l 568 282 q 522 362 548 339 q 642 522 640 391 l 642 701 q 461 867 639 868 l 100 861 l 100 0 l 205 0 m 517 776 q 533 758 532 773 l 533 460 q 517 442 530 444 l 203 442 l 203 776 l 517 776 m 302 930 l 414 930 l 540 1111 l 450 1111 l 358 981 l 277 1111 l 183 1111 l 302 930 z "},"S":{"ha":642,"x_min":60,"x_max":589,"o":"m 184 480 q 167 496 168 483 l 167 754 q 184 770 170 769 l 566 770 l 566 861 l 244 867 q 64 743 88 868 q 60 699 60 722 l 60 543 q 171 392 60 415 q 239 385 201 385 l 464 385 q 481 369 480 382 l 481 107 q 464 91 479 92 l 71 91 l 71 0 l 410 -5 q 589 160 587 -5 l 589 320 q 404 480 586 479 l 184 480 z "},"Ś":{"ha":642,"x_min":60,"x_max":589,"o":"m 184 480 q 167 496 168 483 l 167 754 q 184 770 170 769 l 566 770 l 566 861 l 244 867 q 64 743 88 868 q 60 699 60 722 l 60 543 q 171 392 60 415 q 239 385 201 385 l 464 385 q 481 369 480 382 l 481 107 q 464 91 479 92 l 71 91 l 71 0 l 410 -5 q 589 160 587 -5 l 589 320 q 404 480 586 479 l 184 480 m 279 924 l 363 1111 l 473 1109 l 357 924 l 279 924 z "},"Š":{"ha":642,"x_min":60,"x_max":589,"o":"m 184 480 q 167 496 168 483 l 167 754 q 184 770 170 769 l 566 770 l 566 861 l 244 867 q 64 743 88 868 q 60 699 60 722 l 60 543 q 171 392 60 415 q 239 385 201 385 l 464 385 q 481 369 480 382 l 481 107 q 464 91 479 92 l 71 91 l 71 0 l 410 -5 q 589 160 587 -5 l 589 320 q 404 480 586 479 l 184 480 m 277 930 l 388 930 l 514 1111 l 425 1111 l 332 981 l 251 1111 l 157 1111 l 277 930 z "},"T":{"ha":552,"x_min":7,"x_max":545,"o":"m 328 0 l 328 770 l 545 770 l 545 861 l 7 861 l 7 770 l 224 770 l 224 0 l 328 0 z "},"Ť":{"ha":552,"x_min":7,"x_max":545,"o":"m 328 0 l 328 770 l 545 770 l 545 861 l 7 861 l 7 770 l 224 770 l 224 0 l 328 0 m 229 926 l 340 926 l 467 1107 l 377 1107 l 285 977 l 203 1107 l 110 1107 l 229 926 z "},"Þ":{"ha":700,"x_min":100,"x_max":639,"o":"m 205 0 l 203 183 l 458 183 q 639 350 637 186 l 639 549 q 505 709 639 692 q 458 712 483 712 l 203 712 l 203 861 l 100 861 l 100 0 l 205 0 m 514 621 q 530 605 530 621 l 530 292 q 514 274 528 275 l 203 274 l 203 621 l 514 621 z "},"U":{"ha":750,"x_min":84,"x_max":666,"o":"m 498 -9 q 658 76 629 -9 q 666 142 666 104 l 666 861 l 559 861 l 559 98 q 547 85 556 87 l 203 85 q 191 98 193 88 l 191 861 l 84 861 l 84 142 q 178 -1 84 23 q 252 -9 209 -9 l 498 -9 z "},"Ú":{"ha":750,"x_min":84,"x_max":666,"o":"m 498 -9 q 658 76 629 -9 q 666 142 666 104 l 666 861 l 559 861 l 559 98 q 547 85 556 87 l 203 85 q 191 98 193 88 l 191 861 l 84 861 l 84 142 q 178 -1 84 23 q 252 -9 209 -9 l 498 -9 m 332 924 l 416 1111 l 526 1109 l 410 924 l 332 924 z "},"Û":{"ha":750,"x_min":84,"x_max":666,"o":"m 498 -9 q 658 76 629 -9 q 666 142 666 104 l 666 861 l 559 861 l 559 98 q 547 85 556 87 l 203 85 q 191 98 193 88 l 191 861 l 84 861 l 84 142 q 178 -1 84 23 q 252 -9 209 -9 l 498 -9 m 429 1104 l 317 1104 l 191 924 l 281 924 l 373 1054 l 454 924 l 548 924 l 429 1104 z "},"Ü":{"ha":750,"x_min":84,"x_max":666,"o":"m 498 -9 q 658 76 629 -9 q 666 142 666 104 l 666 861 l 559 861 l 559 98 q 547 85 556 87 l 203 85 q 191 98 193 88 l 191 861 l 84 861 l 84 142 q 178 -1 84 23 q 252 -9 209 -9 l 498 -9 m 309 956 l 309 1070 l 212 1070 l 212 956 l 309 956 m 547 956 l 547 1070 l 449 1070 l 449 956 l 547 956 z "},"Ù":{"ha":750,"x_min":84,"x_max":666,"o":"m 498 -9 q 658 76 629 -9 q 666 142 666 104 l 666 861 l 559 861 l 559 98 q 547 85 556 87 l 203 85 q 191 98 193 88 l 191 861 l 84 861 l 84 142 q 178 -1 84 23 q 252 -9 209 -9 l 498 -9 m 224 1109 l 334 1111 l 426 924 l 350 924 l 224 1109 z "},"Ű":{"ha":750,"x_min":84,"x_max":666,"o":"m 498 -9 q 658 76 629 -9 q 666 142 666 104 l 666 861 l 559 861 l 559 98 q 547 85 556 87 l 203 85 q 191 98 193 88 l 191 861 l 84 861 l 84 142 q 178 -1 84 23 q 252 -9 209 -9 l 498 -9 m 248 924 l 330 1111 l 437 1109 l 323 924 l 248 924 m 422 924 l 506 1111 l 613 1109 l 496 924 l 422 924 z "},"Ū":{"ha":750,"x_min":84,"x_max":666,"o":"m 498 -9 q 658 76 629 -9 q 666 142 666 104 l 666 861 l 559 861 l 559 98 q 547 85 556 87 l 203 85 q 191 98 193 88 l 191 861 l 84 861 l 84 142 q 178 -1 84 23 q 252 -9 209 -9 l 498 -9 m 549 1040 l 205 1040 l 205 964 l 549 964 l 549 1040 z "},"Ų":{"ha":750,"x_min":84,"x_max":666,"o":"m 498 -9 q 658 76 629 -9 q 666 142 666 104 l 666 861 l 559 861 l 559 98 q 547 85 556 87 l 203 85 q 191 98 193 88 l 191 861 l 84 861 l 84 142 q 178 -1 84 23 q 252 -9 209 -9 l 370 -9 l 307 -66 q 271 -156 271 -99 l 271 -184 q 345 -275 271 -260 q 408 -281 372 -281 l 480 -281 l 480 -206 l 366 -206 q 357 -197 358 -203 l 357 -123 q 368 -100 358 -110 l 448 -9 l 498 -9 z "},"Ů":{"ha":750,"x_min":84,"x_max":666,"o":"m 498 -9 q 658 76 629 -9 q 666 142 666 104 l 666 861 l 559 861 l 559 98 q 547 85 556 87 l 203 85 q 191 98 193 88 l 191 861 l 84 861 l 84 142 q 178 -1 84 23 q 252 -9 209 -9 l 498 -9 m 502 1023 q 450 1130 502 1109 q 377 1141 423 1141 q 269 1092 289 1141 q 258 1023 258 1066 q 312 913 258 935 q 377 903 336 903 q 495 966 475 903 q 502 1023 502 989 m 316 1023 q 334 1085 316 1074 q 377 1092 347 1092 q 438 1067 430 1092 q 444 1023 444 1053 q 420 960 444 971 q 377 954 404 954 q 320 982 328 954 q 316 1023 316 997 z "},"V":{"ha":694,"x_min":14,"x_max":682,"o":"m 483 129 l 682 861 l 585 861 l 381 103 q 369 91 377 92 l 308 91 l 117 861 l 14 861 l 229 0 l 338 -1 q 441 26 415 -3 q 483 129 461 52 z "},"W":{"ha":1036,"x_min":94,"x_max":944,"o":"m 393 -9 q 518 57 490 -8 q 643 -9 548 -8 l 796 -9 q 933 57 906 -9 q 944 129 944 85 l 943 861 l 837 861 l 837 98 q 825 85 837 85 l 582 85 q 570 98 571 88 l 570 861 l 467 861 l 467 98 q 454 85 464 87 l 212 85 q 199 98 201 88 l 199 861 l 94 861 l 94 126 q 161 1 94 26 q 244 -9 194 -9 l 393 -9 z "},"X":{"ha":746,"x_min":14,"x_max":732,"o":"m 433 494 q 418 481 427 481 l 331 481 q 316 494 323 481 l 142 863 l 28 863 l 182 544 q 248 444 217 464 q 260 437 255 439 q 195 358 228 420 q 182 330 190 347 l 14 1 l 121 1 l 311 380 q 327 391 320 391 l 414 391 q 429 380 425 388 l 618 0 l 732 0 l 560 330 q 498 425 519 407 q 481 435 490 431 q 543 510 513 450 q 559 543 548 519 l 715 861 l 609 861 l 433 494 z "},"Y":{"ha":709,"x_min":16,"x_max":692,"o":"m 406 0 l 406 312 q 487 359 461 317 q 519 430 499 381 l 692 861 l 586 861 l 410 414 q 395 401 404 401 l 320 401 q 305 414 309 404 l 127 863 l 16 863 l 189 430 q 252 330 220 350 q 302 313 273 317 l 302 0 l 406 0 z "},"Ý":{"ha":709,"x_min":16,"x_max":692,"o":"m 406 0 l 406 312 q 487 359 461 317 q 519 430 499 381 l 692 861 l 586 861 l 410 414 q 395 401 404 401 l 320 401 q 305 414 309 404 l 127 863 l 16 863 l 189 430 q 252 330 220 350 q 302 313 273 317 l 302 0 l 406 0 m 311 924 l 395 1111 l 505 1109 l 388 924 l 311 924 z "},"Ÿ":{"ha":709,"x_min":16,"x_max":692,"o":"m 406 0 l 406 312 q 487 359 461 317 q 519 430 499 381 l 692 861 l 586 861 l 410 414 q 395 401 404 401 l 320 401 q 305 414 309 404 l 127 863 l 16 863 l 189 430 q 252 330 220 350 q 302 313 273 317 l 302 0 l 406 0 m 286 956 l 286 1070 l 189 1070 l 189 956 l 286 956 m 524 956 l 524 1070 l 426 1070 l 426 956 l 524 956 z "},"Z":{"ha":647,"x_min":47,"x_max":605,"o":"m 595 84 l 180 84 q 171 100 164 84 q 174 104 172 103 l 605 760 q 502 863 602 861 l 77 861 l 77 777 l 477 777 q 488 764 492 777 q 486 760 487 761 l 47 92 q 148 0 50 1 l 595 0 l 595 84 z "},"Ź":{"ha":647,"x_min":47,"x_max":605,"o":"m 595 84 l 180 84 q 171 100 164 84 q 174 104 172 103 l 605 760 q 502 863 602 861 l 77 861 l 77 777 l 477 777 q 488 764 492 777 q 486 760 487 761 l 47 92 q 148 0 50 1 l 595 0 l 595 84 m 282 924 l 366 1111 l 476 1109 l 359 924 l 282 924 z "},"Ž":{"ha":647,"x_min":47,"x_max":605,"o":"m 595 84 l 180 84 q 171 100 164 84 q 174 104 172 103 l 605 760 q 502 863 602 861 l 77 861 l 77 777 l 477 777 q 488 764 492 777 q 486 760 487 761 l 47 92 q 148 0 50 1 l 595 0 l 595 84 m 279 930 l 391 930 l 517 1111 l 427 1111 l 335 981 l 254 1111 l 160 1111 l 279 930 z "},"Ż":{"ha":647,"x_min":47,"x_max":605,"o":"m 595 84 l 180 84 q 171 100 164 84 q 174 104 172 103 l 605 760 q 502 863 602 861 l 77 861 l 77 777 l 477 777 q 488 764 492 777 q 486 760 487 761 l 47 92 q 148 0 50 1 l 595 0 l 595 84 m 380 954 l 380 1078 l 275 1078 l 275 954 l 380 954 z "},"a":{"ha":562,"x_min":43,"x_max":495,"o":"m 393 73 l 156 73 q 144 85 145 76 l 144 296 q 156 308 146 307 l 393 308 l 393 73 m 285 -9 q 395 56 374 -9 q 396 60 396 58 l 406 0 l 495 0 l 495 521 q 423 654 495 628 q 336 666 389 666 l 80 665 l 80 581 l 381 582 q 393 570 393 582 l 393 382 l 199 382 q 58 323 87 382 q 43 241 43 292 l 43 127 q 115 0 43 23 q 191 -9 145 -9 l 285 -9 z "},"á":{"ha":562,"x_min":43,"x_max":495,"o":"m 393 73 l 156 73 q 144 85 145 76 l 144 296 q 156 308 146 307 l 393 308 l 393 73 m 285 -9 q 395 56 374 -9 q 396 60 396 58 l 406 0 l 495 0 l 495 521 q 423 654 495 628 q 336 666 389 666 l 80 665 l 80 581 l 381 582 q 393 570 393 582 l 393 382 l 199 382 q 58 323 87 382 q 43 241 43 292 l 43 127 q 115 0 43 23 q 191 -9 145 -9 l 285 -9 m 236 750 l 320 937 l 430 936 l 313 750 l 236 750 z "},"ă":{"ha":562,"x_min":43,"x_max":495,"o":"m 393 73 l 156 73 q 144 85 145 76 l 144 296 q 156 308 146 307 l 393 308 l 393 73 m 285 -9 q 395 56 374 -9 q 396 60 396 58 l 406 0 l 495 0 l 495 521 q 423 654 495 628 q 336 666 389 666 l 80 665 l 80 581 l 381 582 q 393 570 393 582 l 393 382 l 199 382 q 58 323 87 382 q 43 241 43 292 l 43 127 q 115 0 43 23 q 191 -9 145 -9 l 285 -9 m 134 918 q 186 780 134 811 q 296 758 224 758 q 433 821 404 758 q 449 918 449 856 l 380 918 q 350 836 380 852 q 296 825 330 825 q 210 868 224 825 q 205 918 205 887 l 134 918 z "},"â":{"ha":562,"x_min":43,"x_max":495,"o":"m 393 73 l 156 73 q 144 85 145 76 l 144 296 q 156 308 146 307 l 393 308 l 393 73 m 285 -9 q 395 56 374 -9 q 396 60 396 58 l 406 0 l 495 0 l 495 521 q 423 654 495 628 q 336 666 389 666 l 80 665 l 80 581 l 381 582 q 393 570 393 582 l 393 382 l 199 382 q 58 323 87 382 q 43 241 43 292 l 43 127 q 115 0 43 23 q 191 -9 145 -9 l 285 -9 m 332 930 l 221 930 l 95 750 l 184 750 l 277 880 l 358 750 l 452 750 l 332 930 z "},"´":{"ha":372,"x_min":84,"x_max":278,"o":"m 84 750 l 168 937 l 278 936 l 161 750 l 84 750 z "},"ä":{"ha":562,"x_min":43,"x_max":495,"o":"m 393 73 l 156 73 q 144 85 145 76 l 144 296 q 156 308 146 307 l 393 308 l 393 73 m 285 -9 q 395 56 374 -9 q 396 60 396 58 l 406 0 l 495 0 l 495 521 q 423 654 495 628 q 336 666 389 666 l 80 665 l 80 581 l 381 582 q 393 570 393 582 l 393 382 l 199 382 q 58 323 87 382 q 43 241 43 292 l 43 127 q 115 0 43 23 q 191 -9 145 -9 l 285 -9 m 213 783 l 213 897 l 115 897 l 115 783 l 213 783 m 450 783 l 450 897 l 353 897 l 353 783 l 450 783 z "},"æ":{"ha":901,"x_min":43,"x_max":844,"o":"m 495 579 q 507 591 495 591 l 731 591 q 743 579 742 589 l 743 357 l 495 357 l 495 579 m 827 -7 l 827 77 l 507 77 q 495 90 496 80 l 495 282 l 844 282 l 844 532 q 777 662 844 636 q 688 674 743 674 l 556 674 q 445 636 468 674 q 442 631 444 633 q 328 665 411 665 l 80 665 l 80 581 l 381 581 q 393 568 392 578 l 393 363 l 199 363 q 58 304 87 363 q 43 222 43 273 l 43 127 q 115 0 43 23 q 191 -9 145 -9 l 294 -9 q 404 62 387 -8 q 551 -7 434 -7 l 827 -7 m 156 73 q 144 85 145 76 l 144 277 q 156 289 146 288 l 393 289 l 393 121 q 400 73 393 95 l 156 73 z "},"à":{"ha":562,"x_min":43,"x_max":495,"o":"m 393 73 l 156 73 q 144 85 145 76 l 144 296 q 156 308 146 307 l 393 308 l 393 73 m 285 -9 q 395 56 374 -9 q 396 60 396 58 l 406 0 l 495 0 l 495 521 q 423 654 495 628 q 336 666 389 666 l 80 665 l 80 581 l 381 582 q 393 570 393 582 l 393 382 l 199 382 q 58 323 87 382 q 43 241 43 292 l 43 127 q 115 0 43 23 q 191 -9 145 -9 l 285 -9 m 127 936 l 237 937 l 330 750 l 254 750 l 127 936 z "},"ā":{"ha":562,"x_min":43,"x_max":495,"o":"m 393 73 l 156 73 q 144 85 145 76 l 144 296 q 156 308 146 307 l 393 308 l 393 73 m 285 -9 q 395 56 374 -9 q 396 60 396 58 l 406 0 l 495 0 l 495 521 q 423 654 495 628 q 336 666 389 666 l 80 665 l 80 581 l 381 582 q 393 570 393 582 l 393 382 l 199 382 q 58 323 87 382 q 43 241 43 292 l 43 127 q 115 0 43 23 q 191 -9 145 -9 l 285 -9 m 453 867 l 109 867 l 109 791 l 453 791 l 453 867 z "},"&":{"ha":768,"x_min":96,"x_max":727,"o":"m 437 -5 q 618 129 600 -5 q 621 163 621 145 l 621 372 q 637 389 624 388 l 726 389 l 727 484 l 690 484 q 517 368 537 484 q 514 326 514 347 l 514 107 q 496 91 511 92 l 221 91 q 203 107 205 94 l 203 404 q 221 420 206 419 l 407 420 l 407 502 l 228 502 q 210 518 212 505 l 210 755 q 228 773 213 772 l 490 773 q 507 755 506 770 l 507 624 l 614 624 l 614 701 q 452 867 614 860 q 435 867 444 867 l 283 867 q 103 719 113 867 q 103 701 103 709 l 103 586 q 170 464 104 498 q 96 331 98 431 l 96 163 q 229 -1 96 23 q 281 -5 254 -5 l 437 -5 z "},"ං":{"ha":566,"x_min":30,"x_max":509,"o":"m 103 24 q 30 94 31 27 l 30 528 q 100 605 30 597 q 114 605 107 605 l 434 605 q 509 526 507 602 l 509 99 q 433 24 499 28 l 103 24 m 115 499 l 115 130 q 152 99 121 100 l 389 99 q 423 134 422 102 l 423 496 q 389 533 420 532 l 152 533 q 115 499 117 530 z "},"ą":{"ha":562,"x_min":43,"x_max":521,"o":"m 393 73 l 156 73 q 144 85 145 76 l 144 296 q 156 308 146 307 l 393 308 l 393 73 m 285 -9 q 395 56 374 -9 q 396 60 396 58 l 406 0 l 419 0 l 347 -65 q 312 -155 312 -98 l 312 -183 q 385 -274 312 -259 q 449 -279 412 -279 l 521 -279 l 521 -205 l 407 -205 q 397 -195 399 -202 l 397 -122 q 408 -99 399 -109 l 495 0 l 495 521 q 423 654 495 628 q 336 666 389 666 l 80 665 l 80 581 l 381 582 q 393 570 393 582 l 393 382 l 199 382 q 58 323 87 382 q 43 241 43 292 l 43 127 q 115 0 43 23 q 191 -9 145 -9 l 285 -9 z "},"≈":{"ha":567,"x_min":56,"x_max":510,"o":"m 133 396 q 179 450 138 449 q 292 414 201 450 q 406 382 366 382 q 505 469 487 382 q 510 536 510 498 l 435 536 q 387 467 434 468 q 273 503 363 467 q 157 534 197 534 q 61 452 79 534 q 56 396 57 427 l 133 396 m 133 189 q 179 258 134 256 q 292 221 201 258 q 406 190 366 190 q 505 271 488 190 q 510 330 510 297 l 435 330 q 387 274 429 275 q 273 311 363 274 q 157 342 197 342 q 62 260 79 342 q 56 189 56 231 l 133 189 z "},"å":{"ha":562,"x_min":43,"x_max":495,"o":"m 393 73 l 156 73 q 144 85 145 76 l 144 296 q 156 308 146 307 l 393 308 l 393 73 m 285 -9 q 395 56 374 -9 q 396 60 396 58 l 406 0 l 495 0 l 495 521 q 423 654 495 628 q 336 666 389 666 l 80 665 l 80 581 l 381 582 q 393 570 393 582 l 393 382 l 199 382 q 58 323 87 382 q 43 241 43 292 l 43 127 q 115 0 43 23 q 191 -9 145 -9 l 285 -9 m 404 849 q 353 956 404 936 q 279 967 326 967 q 171 918 191 967 q 160 849 160 892 q 214 739 160 761 q 279 730 239 730 q 397 792 377 730 q 404 849 404 815 m 218 849 q 236 911 218 901 q 279 918 250 918 q 340 894 332 918 q 346 849 346 879 q 323 787 346 798 q 279 780 307 780 q 222 808 231 780 q 218 849 218 823 z "},"^":{"ha":600,"x_min":64,"x_max":536,"o":"m 267 916 l 64 500 l 146 500 l 298 826 l 452 500 l 536 500 l 331 916 l 267 916 z "},"~":{"ha":567,"x_min":56,"x_max":510,"o":"m 133 305 q 179 374 134 373 q 292 338 201 374 q 406 307 366 307 q 505 393 487 307 q 510 460 510 422 l 435 460 q 387 391 434 392 q 273 427 363 391 q 157 458 197 458 q 62 377 79 458 q 56 305 56 347 l 133 305 z "},"*":{"ha":483,"x_min":46,"x_max":437,"o":"m 202 591 l 233 665 l 206 684 l 146 631 l 100 566 l 155 526 l 202 591 m 384 567 l 336 632 l 277 685 l 250 666 l 282 593 l 330 528 l 384 567 m 359 707 l 437 731 l 415 795 l 339 770 l 271 730 l 281 699 l 359 707 m 258 739 l 275 817 l 274 897 l 208 897 l 208 817 l 225 739 l 258 739 m 201 699 l 212 730 l 144 769 l 66 795 l 46 731 l 122 705 l 201 699 z "},"@":{"ha":876,"x_min":91,"x_max":799,"o":"m 610 -64 l 610 14 l 191 14 q 178 26 179 16 l 178 727 q 191 739 180 738 l 699 739 q 711 727 709 736 l 711 212 q 699 199 711 199 l 624 199 q 610 212 612 202 l 610 621 l 418 625 q 279 556 304 627 q 270 492 270 529 l 270 259 q 343 138 270 159 q 404 132 369 132 l 433 132 q 526 187 507 133 q 617 132 534 133 l 689 132 q 788 180 769 132 q 799 256 799 208 l 799 666 q 707 808 799 784 q 632 817 675 817 l 258 817 q 99 732 126 817 q 91 666 91 704 l 91 88 q 180 -54 91 -30 q 258 -64 213 -64 l 610 -64 m 357 216 l 357 544 q 369 556 359 555 l 525 553 l 525 216 q 513 203 522 205 l 369 203 q 357 216 358 206 z "},"ã":{"ha":562,"x_min":43,"x_max":495,"o":"m 393 73 l 156 73 q 144 85 145 76 l 144 296 q 156 308 146 307 l 393 308 l 393 73 m 285 -9 q 395 56 374 -9 q 396 60 396 58 l 406 0 l 495 0 l 495 521 q 423 654 495 628 q 336 666 389 666 l 80 665 l 80 581 l 381 582 q 393 570 393 582 l 393 382 l 199 382 q 58 323 87 382 q 43 241 43 292 l 43 127 q 115 0 43 23 q 191 -9 145 -9 l 285 -9 m 167 785 q 199 837 168 836 q 285 808 217 837 q 368 787 335 787 q 453 869 441 787 q 456 911 456 890 l 385 911 q 358 863 385 867 q 349 861 353 861 q 263 890 328 861 q 179 911 213 911 q 100 844 115 911 q 96 785 96 818 l 167 785 z "},"b":{"ha":597,"x_min":79,"x_max":533,"o":"m 377 -5 q 519 57 492 -8 q 533 136 533 88 l 533 537 q 461 665 533 642 q 385 674 431 674 l 288 674 q 179 612 199 673 l 179 916 l 79 916 l 79 0 l 377 -5 m 179 579 q 191 591 179 591 l 420 591 q 433 579 431 589 l 433 90 q 420 77 433 77 l 179 80 l 179 579 z "},"\\":{"ha":536,"x_min":7,"x_max":529,"o":"m 427 -130 l 529 -130 l 109 916 l 7 916 l 427 -130 z "},"|":{"ha":359,"x_min":137,"x_max":222,"o":"m 222 -77 l 222 916 l 137 916 l 137 -77 l 222 -77 z "},"{":{"ha":418,"x_min":73,"x_max":388,"o":"m 233 831 q 247 844 236 842 l 388 844 l 388 922 l 305 922 q 130 788 142 922 q 129 764 129 776 l 129 407 q 114 392 126 393 l 73 392 l 73 300 l 114 300 q 129 286 127 297 l 129 -72 q 274 -229 129 -217 q 305 -231 290 -231 l 388 -231 l 388 -152 l 247 -152 q 233 -140 235 -149 l 233 231 q 151 346 232 331 q 233 461 232 363 l 233 831 z "},"}":{"ha":418,"x_min":30,"x_max":345,"o":"m 184 831 q 171 844 182 842 l 30 844 l 30 922 l 113 922 q 288 788 275 922 q 289 764 289 776 l 289 407 q 304 392 292 393 l 345 392 l 345 300 l 304 300 q 289 286 290 297 l 289 -72 q 144 -229 289 -217 q 113 -231 127 -231 l 30 -231 l 30 -152 l 171 -152 q 184 -140 183 -149 l 184 231 q 267 346 186 331 q 184 461 186 363 l 184 831 z "},"[":{"ha":382,"x_min":87,"x_max":339,"o":"m 339 -231 l 339 -155 l 190 -155 l 190 846 l 339 846 l 339 922 l 87 922 l 87 -231 l 339 -231 z "},"]":{"ha":382,"x_min":43,"x_max":296,"o":"m 43 -231 l 43 -155 l 193 -155 l 193 846 l 43 846 l 43 922 l 296 922 l 296 -231 l 43 -231 z "},"˘":{"ha":472,"x_min":85,"x_max":400,"o":"m 85 918 q 137 780 85 811 q 247 758 175 758 q 384 821 355 758 q 400 918 400 856 l 331 918 q 301 836 331 852 q 247 825 281 825 q 161 868 175 825 q 156 918 156 887 l 85 918 z "},"¦":{"ha":378,"x_min":146,"x_max":232,"o":"m 232 -77 l 232 308 l 146 308 l 146 -77 l 232 -77 m 232 532 l 232 916 l 146 916 l 146 532 l 232 532 z "},"•":{"ha":397,"x_min":109,"x_max":290,"o":"m 109 340 q 189 269 111 270 l 209 269 q 290 340 289 271 l 290 426 q 209 499 279 495 l 189 499 q 109 426 111 494 l 109 340 z "},"c":{"ha":458,"x_min":64,"x_max":435,"o":"m 435 -9 l 435 75 l 178 75 q 165 88 167 77 l 165 578 q 178 590 168 589 l 435 590 l 435 674 l 228 674 q 76 605 106 674 q 64 528 64 574 l 64 138 q 140 3 64 28 q 228 -9 175 -9 l 435 -9 z "},"ć":{"ha":458,"x_min":64,"x_max":435,"o":"m 435 -9 l 435 75 l 178 75 q 165 88 167 77 l 165 578 q 178 590 168 589 l 435 590 l 435 674 l 228 674 q 76 605 106 674 q 64 528 64 574 l 64 138 q 140 3 64 28 q 228 -9 175 -9 l 435 -9 m 201 750 l 285 937 l 395 936 l 278 750 l 201 750 z "},"ˇ":{"ha":477,"x_min":66,"x_max":423,"o":"m 186 757 l 297 757 l 423 937 l 334 937 l 241 807 l 160 937 l 66 937 l 186 757 z "},"č":{"ha":458,"x_min":64,"x_max":452,"o":"m 435 -9 l 435 75 l 178 75 q 165 88 167 77 l 165 578 q 178 590 168 589 l 435 590 l 435 674 l 228 674 q 76 605 106 674 q 64 528 64 574 l 64 138 q 140 3 64 28 q 228 -9 175 -9 l 435 -9 m 214 757 l 326 757 l 452 937 l 362 937 l 270 807 l 189 937 l 95 937 l 214 757 z "},"ç":{"ha":458,"x_min":64,"x_max":435,"o":"m 435 -9 l 435 75 l 178 75 q 165 88 167 77 l 165 578 q 178 590 168 589 l 435 590 l 435 674 l 228 674 q 76 605 106 674 q 64 528 64 574 l 64 138 q 137 3 64 30 q 218 -9 170 -8 l 193 -126 l 305 -126 q 315 -136 313 -129 l 315 -202 q 305 -212 312 -210 l 176 -212 l 176 -279 l 269 -279 q 389 -171 388 -277 l 389 -153 q 305 -68 389 -76 q 281 -66 293 -66 l 263 -66 l 275 -9 l 435 -9 z "},"¸":{"ha":353,"x_min":77,"x_max":290,"o":"m 216 -202 q 206 -212 213 -210 l 77 -212 l 77 -279 l 170 -279 q 290 -171 289 -277 l 290 -153 q 206 -68 290 -76 q 182 -66 194 -66 l 164 -66 l 179 5 l 125 14 l 94 -126 l 206 -126 q 216 -136 214 -129 l 216 -202 z "},"¢":{"ha":465,"x_min":60,"x_max":438,"o":"m 438 85 l 438 170 l 174 170 q 161 182 163 172 l 161 658 q 174 670 164 669 l 438 670 l 438 754 l 308 754 l 308 865 l 224 865 l 224 754 q 73 689 104 754 q 60 608 60 656 l 60 232 q 136 98 60 123 q 224 85 171 85 l 224 -24 l 308 -24 l 308 85 l 438 85 z "},"ˆ":{"ha":477,"x_min":54,"x_max":411,"o":"m 292 930 l 180 930 l 54 750 l 144 750 l 236 880 l 317 750 l 411 750 l 292 930 z "},":":{"ha":285,"x_min":87,"x_max":198,"o":"m 198 37 l 198 174 l 87 174 l 87 37 l 198 37 m 198 393 l 198 530 l 87 530 l 87 393 l 198 393 z "},",":{"ha":232,"x_min":60,"x_max":168,"o":"m 60 3 l 99 3 q 61 -103 92 -56 l 98 -132 q 168 23 167 -61 l 168 137 l 60 137 l 60 3 z "},"©":{"ha":694,"x_min":94,"x_max":601,"o":"m 524 817 q 534 804 533 814 l 534 300 q 524 289 533 290 l 172 289 q 160 300 161 292 l 160 804 q 172 817 163 815 l 524 817 m 94 361 q 159 244 94 266 q 233 235 189 235 l 461 235 q 590 293 566 235 q 601 361 601 320 l 601 745 q 536 861 601 840 q 461 871 506 871 l 233 871 q 104 812 129 871 q 94 745 94 785 l 94 361 m 480 338 l 480 408 l 313 408 q 301 422 302 411 l 301 684 q 313 696 301 696 l 480 696 l 480 766 l 357 766 q 229 713 255 766 q 216 636 216 684 l 216 468 q 278 349 216 372 q 357 338 309 338 l 480 338 z "},"¤":{"ha":787,"x_min":62,"x_max":724,"o":"m 513 587 q 525 575 524 585 l 525 266 q 513 254 522 255 l 281 254 q 269 266 269 254 l 269 575 q 281 587 271 586 l 513 587 m 168 313 q 178 245 168 271 l 62 129 l 119 72 l 233 186 q 331 168 270 168 l 461 168 q 556 183 522 168 l 667 72 l 724 129 l 613 241 q 625 313 625 271 l 625 528 q 613 602 625 572 l 724 713 l 667 772 l 556 659 q 461 674 519 674 l 331 674 q 233 656 269 674 l 123 769 l 66 711 l 179 597 q 168 528 168 566 l 168 313 z "},"d":{"ha":597,"x_min":64,"x_max":519,"o":"m 418 916 l 418 667 l 220 669 q 79 610 107 670 q 64 529 64 579 l 64 127 q 136 0 64 23 q 212 -9 165 -9 l 309 -9 q 420 61 403 -8 l 431 0 l 519 0 l 519 916 l 418 916 m 418 85 q 406 73 418 73 l 176 73 q 164 85 165 76 l 164 575 q 176 587 167 586 l 418 585 l 418 85 z "},"†":{"ha":537,"x_min":35,"x_max":503,"o":"m 292 0 l 304 335 l 304 490 l 286 613 l 254 613 l 235 490 l 235 335 l 247 0 l 292 0 m 156 614 l 233 632 l 233 665 l 156 682 l 35 682 l 35 616 l 156 614 m 503 616 l 503 682 l 382 682 l 305 665 l 305 632 l 382 614 l 503 616 m 286 685 l 302 762 l 302 897 l 235 897 l 235 762 l 254 685 l 286 685 z "},"‡":{"ha":739,"x_min":35,"x_max":503,"o":"m 286 275 l 302 361 l 302 529 l 286 614 l 254 614 l 235 529 l 235 361 l 254 275 l 286 275 m 302 -7 l 302 126 l 286 203 l 254 203 l 235 126 l 235 -7 l 302 -7 m 156 205 l 233 222 l 233 255 l 156 273 l 35 273 l 35 205 l 156 205 m 503 205 l 503 273 l 382 273 l 305 255 l 305 222 l 382 205 l 503 205 m 186 627 l 233 650 l 203 677 l 118 685 l 35 650 l 72 617 l 186 627 m 503 617 l 503 685 l 382 685 l 305 667 l 305 635 l 382 617 l 503 617 m 286 688 l 302 764 l 302 897 l 235 897 l 235 764 l 254 688 l 286 688 z "},"ď":{"ha":682,"x_min":64,"x_max":688,"o":"m 418 916 l 418 667 l 220 669 q 79 610 107 670 q 64 529 64 579 l 64 127 q 136 0 64 23 q 212 -9 165 -9 l 309 -9 q 420 61 403 -8 l 431 0 l 519 0 l 519 916 l 418 916 m 418 85 q 406 73 418 73 l 176 73 q 164 85 165 76 l 164 575 q 176 587 167 586 l 418 585 l 418 85 m 586 791 l 623 791 q 586 692 616 736 l 621 665 q 686 810 686 731 l 686 917 l 586 917 l 586 791 z "},"đ":{"ha":597,"x_min":64,"x_max":576,"o":"m 418 916 l 418 842 l 274 842 l 274 769 l 418 769 l 418 667 l 220 669 q 79 610 107 670 q 64 529 64 579 l 64 127 q 136 0 64 23 q 212 -9 165 -9 l 309 -9 q 420 61 403 -8 l 431 0 l 519 0 l 519 769 l 576 769 l 576 842 l 519 842 l 519 916 l 418 916 m 418 85 q 406 73 418 73 l 176 73 q 164 85 165 76 l 164 575 q 176 587 167 586 l 418 585 l 418 85 z "},"°":{"ha":395,"x_min":42,"x_max":353,"o":"m 42 597 q 133 494 42 503 q 157 492 145 492 l 236 492 q 351 576 342 492 q 353 597 353 586 l 353 766 q 266 869 353 859 q 236 871 251 871 l 157 871 q 43 785 52 871 q 42 766 42 776 l 42 597 m 260 800 q 273 788 271 798 l 273 575 q 260 563 270 564 l 134 563 q 121 575 122 566 l 121 788 q 134 800 123 799 l 260 800 z "},"¨":{"ha":467,"x_min":68,"x_max":403,"o":"m 165 783 l 165 897 l 68 897 l 68 783 l 165 783 m 403 783 l 403 897 l 305 897 l 305 783 l 403 783 z "},"÷":{"ha":661,"x_min":76,"x_max":586,"o":"m 586 361 l 586 439 l 76 439 l 76 361 l 586 361 m 382 103 l 382 235 l 278 235 l 278 103 l 382 103 m 382 564 l 382 696 l 278 696 l 278 564 l 382 564 z "},"$":{"ha":651,"x_min":71,"x_max":572,"o":"m 193 468 q 176 484 176 468 l 176 701 q 193 719 179 718 l 547 719 l 547 810 l 372 812 l 372 947 l 281 947 l 281 814 l 252 814 q 73 688 96 818 q 71 646 71 667 l 71 530 q 167 384 71 410 q 248 374 201 374 l 449 374 q 467 357 465 372 l 467 133 q 449 115 464 117 l 85 115 l 85 24 l 281 22 l 281 -111 l 372 -111 l 372 20 l 393 20 q 572 186 571 19 l 572 311 q 391 468 564 465 l 193 468 z "},"˙":{"ha":213,"x_min":54,"x_max":159,"o":"m 159 780 l 159 905 l 54 905 l 54 780 l 159 780 z "},"ı":{"ha":281,"x_min":90,"x_max":191,"o":"m 191 0 l 191 665 l 90 665 l 90 0 l 191 0 z "},"◌":{"ha":757,"x_min":62,"x_max":682,"o":"m 140 130 q 175 164 144 163 q 209 130 209 161 q 175 96 206 98 q 140 130 141 99 m 83 222 q 117 256 87 255 q 149 221 149 254 q 115 187 145 189 q 83 222 83 190 m 229 72 q 263 106 232 104 q 297 72 296 103 q 262 38 293 39 q 229 72 229 41 m 332 50 q 366 84 336 83 q 399 50 399 81 q 365 16 395 18 q 332 50 332 19 m 64 326 q 98 359 66 358 q 132 326 132 357 q 98 292 127 293 q 64 326 64 294 m 85 430 q 119 465 90 464 q 152 430 152 463 q 119 396 148 397 q 85 430 85 399 m 439 72 q 473 106 442 104 q 507 72 506 103 q 472 38 503 39 q 439 72 439 41 m 148 521 q 183 553 152 552 q 216 519 216 551 q 180 487 212 488 q 148 521 148 490 m 530 130 q 564 164 534 163 q 597 130 597 161 q 563 96 593 98 q 530 130 530 99 m 237 581 q 273 614 241 613 q 305 579 305 612 q 271 545 302 547 q 237 581 239 548 m 590 222 q 625 256 594 255 q 659 221 659 254 q 623 187 655 189 q 590 222 587 190 m 343 601 q 377 635 347 633 q 410 600 410 632 q 376 566 407 567 q 343 601 343 568 m 613 326 q 647 359 616 358 q 681 326 681 357 q 647 292 677 293 q 613 326 613 294 m 448 581 q 483 614 452 613 q 515 579 515 612 q 481 545 513 547 q 448 581 449 548 m 594 430 q 629 464 598 463 q 663 429 663 461 q 628 395 659 396 q 594 430 594 397 m 536 521 q 571 553 540 552 q 605 519 605 551 q 570 487 601 488 q 536 521 536 490 z "},"e":{"ha":575,"x_min":66,"x_max":518,"o":"m 502 -7 l 502 77 l 180 77 q 168 90 170 80 l 168 262 l 518 262 l 518 532 q 452 662 518 636 q 362 674 418 674 l 217 674 q 83 620 110 674 q 66 532 66 589 l 66 140 q 141 5 66 31 q 231 -7 176 -7 l 502 -7 m 168 579 q 180 591 168 591 l 404 591 q 418 579 416 589 l 418 336 l 168 336 l 168 579 z "},"é":{"ha":575,"x_min":66,"x_max":518,"o":"m 502 -7 l 502 77 l 180 77 q 168 90 170 80 l 168 262 l 518 262 l 518 532 q 452 662 518 636 q 362 674 418 674 l 217 674 q 83 620 110 674 q 66 532 66 589 l 66 140 q 141 5 66 31 q 231 -7 176 -7 l 502 -7 m 168 579 q 180 591 168 591 l 404 591 q 418 579 416 589 l 418 336 l 168 336 l 168 579 m 248 750 l 332 937 l 442 936 l 326 750 l 248 750 z "},"ě":{"ha":575,"x_min":66,"x_max":518,"o":"m 502 -7 l 502 77 l 180 77 q 168 90 170 80 l 168 262 l 518 262 l 518 532 q 452 662 518 636 q 362 674 418 674 l 217 674 q 83 620 110 674 q 66 532 66 589 l 66 140 q 141 5 66 31 q 231 -7 176 -7 l 502 -7 m 168 579 q 180 591 168 591 l 404 591 q 418 579 416 589 l 418 336 l 168 336 l 168 579 m 244 757 l 355 757 l 481 937 l 392 937 l 300 807 l 218 937 l 125 937 l 244 757 z "},"ê":{"ha":575,"x_min":66,"x_max":518,"o":"m 502 -7 l 502 77 l 180 77 q 168 90 170 80 l 168 262 l 518 262 l 518 532 q 452 662 518 636 q 362 674 418 674 l 217 674 q 83 620 110 674 q 66 532 66 589 l 66 140 q 141 5 66 31 q 231 -7 176 -7 l 502 -7 m 168 579 q 180 591 168 591 l 404 591 q 418 579 416 589 l 418 336 l 168 336 l 168 579 m 345 930 l 233 930 l 107 750 l 197 750 l 289 880 l 370 750 l 464 750 l 345 930 z "},"ë":{"ha":575,"x_min":66,"x_max":518,"o":"m 502 -7 l 502 77 l 180 77 q 168 90 170 80 l 168 262 l 518 262 l 518 532 q 452 662 518 636 q 362 674 418 674 l 217 674 q 83 620 110 674 q 66 532 66 589 l 66 140 q 141 5 66 31 q 231 -7 176 -7 l 502 -7 m 168 579 q 180 591 168 591 l 404 591 q 418 579 416 589 l 418 336 l 168 336 l 168 579 m 224 783 l 224 897 l 126 897 l 126 783 l 224 783 m 461 783 l 461 897 l 363 897 l 363 783 l 461 783 z "},"ė":{"ha":575,"x_min":66,"x_max":518,"o":"m 502 -7 l 502 77 l 180 77 q 168 90 170 80 l 168 262 l 518 262 l 518 532 q 452 662 518 636 q 362 674 418 674 l 217 674 q 83 620 110 674 q 66 532 66 589 l 66 140 q 141 5 66 31 q 231 -7 176 -7 l 502 -7 m 168 579 q 180 591 168 591 l 404 591 q 418 579 416 589 l 418 336 l 168 336 l 168 579 m 345 780 l 345 905 l 240 905 l 240 780 l 345 780 z "},"è":{"ha":575,"x_min":66,"x_max":518,"o":"m 502 -7 l 502 77 l 180 77 q 168 90 170 80 l 168 262 l 518 262 l 518 532 q 452 662 518 636 q 362 674 418 674 l 217 674 q 83 620 110 674 q 66 532 66 589 l 66 140 q 141 5 66 31 q 231 -7 176 -7 l 502 -7 m 168 579 q 180 591 168 591 l 404 591 q 418 579 416 589 l 418 336 l 168 336 l 168 579 m 138 936 l 248 937 l 340 750 l 264 750 l 138 936 z "},"…":{"ha":776,"x_min":81,"x_max":696,"o":"m 442 0 l 442 133 l 335 133 l 335 0 l 442 0 m 694 0 l 694 133 l 587 133 l 587 0 l 694 0 m 190 0 l 190 133 l 83 133 l 83 0 l 190 0 z "},"ē":{"ha":575,"x_min":66,"x_max":518,"o":"m 502 -7 l 502 77 l 180 77 q 168 90 170 80 l 168 262 l 518 262 l 518 532 q 452 662 518 636 q 362 674 418 674 l 217 674 q 83 620 110 674 q 66 532 66 589 l 66 140 q 141 5 66 31 q 231 -7 176 -7 l 502 -7 m 168 579 q 180 591 168 591 l 404 591 q 418 579 416 589 l 418 336 l 168 336 l 168 579 m 464 867 l 119 867 l 119 791 l 464 791 l 464 867 z "},"—":{"ha":854,"x_min":-1,"x_max":856,"o":"m 856 427 l -1 427 l -1 345 l 856 345 l 856 427 z "},"–":{"ha":571,"x_min":27,"x_max":544,"o":"m 544 427 l 27 427 l 27 345 l 544 345 l 544 427 z "},"ę":{"ha":575,"x_min":66,"x_max":528,"o":"m 502 -7 l 502 77 l 180 77 q 168 90 170 80 l 168 262 l 518 262 l 518 532 q 452 662 518 636 q 362 674 418 674 l 217 674 q 83 620 110 674 q 66 532 66 589 l 66 140 q 141 5 66 31 q 231 -7 176 -7 l 426 -7 l 354 -72 q 319 -161 319 -104 l 319 -190 q 392 -281 319 -266 q 456 -286 419 -286 l 528 -286 l 528 -212 l 414 -212 q 404 -202 406 -209 l 404 -129 q 415 -106 406 -115 l 502 -7 m 168 579 q 180 591 168 591 l 404 591 q 418 579 416 589 l 418 336 l 168 336 l 168 579 z "},"=":{"ha":681,"x_min":76,"x_max":595,"o":"m 595 524 l 76 524 l 76 445 l 595 445 l 595 524 m 595 285 l 76 285 l 76 206 l 595 206 l 595 285 z "},"℮":{"ha":690,"x_min":66,"x_max":624,"o":"m 174 126 l 174 347 l 624 347 q 500 625 624 537 q 353 673 434 673 q 119 536 199 673 q 66 330 66 444 q 178 53 66 148 q 346 -9 251 -9 q 566 87 471 -9 q 583 106 575 96 l 557 134 q 350 31 468 34 q 202 91 263 31 q 174 126 184 109 m 510 567 l 510 387 l 174 387 l 174 537 q 354 635 232 633 q 510 567 449 633 z "},"ð":{"ha":595,"x_min":64,"x_max":579,"o":"m 357 -9 q 506 58 477 -9 q 519 138 519 90 l 519 773 q 513 831 519 811 l 579 869 l 553 920 l 487 882 q 362 917 448 918 l 160 917 l 160 840 l 407 840 l 411 840 l 275 762 l 302 712 l 419 779 l 419 643 l 227 643 q 77 578 107 643 q 64 496 64 547 l 64 138 q 140 3 64 28 q 228 -9 175 -9 l 357 -9 m 165 88 l 165 553 q 178 566 165 566 l 419 566 l 419 88 q 407 75 418 76 l 178 75 q 165 88 167 77 z "},"!":{"ha":294,"x_min":103,"x_max":213,"o":"m 189 255 l 213 659 l 213 875 l 103 875 l 103 659 l 127 255 l 189 255 m 209 0 l 209 123 l 107 123 l 107 0 l 209 0 z "},"¡":{"ha":292,"x_min":96,"x_max":206,"o":"m 121 410 l 96 5 l 96 -210 l 206 -210 l 206 5 l 182 410 l 121 410 m 100 665 l 100 541 l 202 541 l 202 665 l 100 665 z "},"f":{"ha":393,"x_min":33,"x_max":411,"o":"m 411 840 l 411 924 l 273 925 q 127 861 157 925 q 114 780 114 829 l 114 665 l 33 665 l 33 586 l 114 586 l 114 0 l 216 0 l 216 586 l 389 586 l 389 665 l 216 665 l 216 829 q 228 841 216 841 l 411 840 z "},"ﬁ":{"ha":654,"x_min":30,"x_max":564,"o":"m 564 0 l 564 665 l 464 665 l 464 0 l 564 0 m 369 586 l 369 665 l 216 665 l 216 823 q 229 836 218 834 l 389 836 l 389 920 l 274 920 q 129 856 159 920 q 115 776 115 825 l 115 665 l 30 665 l 30 586 l 115 586 l 115 0 l 216 0 l 216 586 l 369 586 m 564 818 l 564 920 l 464 920 l 464 818 l 564 818 z "},"ﬂ":{"ha":661,"x_min":30,"x_max":571,"o":"m 378 586 l 378 665 l 214 665 l 214 829 q 227 841 214 841 l 392 840 l 392 924 l 271 925 q 129 864 157 925 q 114 780 114 831 l 114 665 l 30 665 l 30 586 l 114 586 l 114 0 l 214 0 l 214 586 l 378 586 m 571 0 l 571 916 l 471 916 l 471 0 l 571 0 z "},"ƒ":{"ha":526,"x_min":14,"x_max":491,"o":"m 96 -258 q 232 -205 201 -258 q 255 -114 250 -172 l 301 473 l 445 473 l 445 552 l 308 552 l 330 829 q 342 841 330 841 l 491 840 l 491 924 l 387 925 q 251 869 282 925 q 228 780 233 837 l 210 552 l 119 552 l 119 473 l 205 473 l 155 -161 q 141 -174 151 -172 l 14 -174 l 14 -258 l 96 -258 z "},"⁴":{"ha":511,"x_min":26,"x_max":460,"o":"m 384 338 l 384 456 l 460 456 l 460 524 l 384 524 l 384 863 l 289 864 q 213 834 236 864 q 190 798 206 823 l 26 511 l 26 456 l 298 456 l 298 338 l 384 338 m 266 787 q 277 793 271 793 l 298 793 l 298 524 l 113 524 l 266 787 z "},"⁄":{"ha":608,"x_min":20,"x_max":574,"o":"m 488 871 l 20 -9 l 107 -9 l 574 871 l 488 871 z "},"g":{"ha":579,"x_min":64,"x_max":519,"o":"m 418 85 q 406 73 418 73 l 176 73 q 164 85 165 76 l 164 574 q 176 586 167 585 l 418 583 l 418 85 m 406 -183 l 87 -183 l 87 -267 l 355 -267 q 507 -198 477 -267 q 519 -121 519 -167 l 519 665 l 220 669 q 79 610 107 670 q 64 529 64 579 l 64 127 q 136 0 64 23 q 212 -9 165 -9 l 309 -9 q 418 53 397 -8 l 418 -171 q 406 -183 415 -182 z "},"ğ":{"ha":579,"x_min":64,"x_max":519,"o":"m 418 85 q 406 73 418 73 l 176 73 q 164 85 165 76 l 164 574 q 176 586 167 585 l 418 583 l 418 85 m 406 -183 l 87 -183 l 87 -267 l 355 -267 q 507 -198 477 -267 q 519 -121 519 -167 l 519 665 l 220 669 q 79 610 107 670 q 64 529 64 579 l 64 127 q 136 0 64 23 q 212 -9 165 -9 l 309 -9 q 418 53 397 -8 l 418 -171 q 406 -183 415 -182 m 144 918 q 195 780 144 811 q 305 758 233 758 q 442 821 414 758 q 458 918 458 856 l 389 918 q 359 836 389 852 q 305 825 339 825 q 220 868 233 825 q 214 918 214 887 l 144 918 z "},"ß":{"ha":642,"x_min":28,"x_max":582,"o":"m 397 -5 q 579 129 560 -5 q 582 163 582 145 l 582 332 q 499 467 581 438 q 562 587 560 502 l 562 701 q 404 865 562 856 q 381 867 393 867 l 281 867 q 104 703 106 864 l 104 665 l 28 665 l 28 586 l 104 586 l 104 0 l 205 0 l 205 765 q 222 783 208 781 l 442 783 q 460 765 458 780 l 460 517 q 439 499 457 500 l 274 499 l 274 418 l 463 418 q 480 400 479 415 l 480 96 q 463 79 477 80 l 274 79 l 274 -5 l 397 -5 z "},"`":{"ha":377,"x_min":53,"x_max":255,"o":"m 53 936 l 163 937 l 255 750 l 179 750 l 53 936 z "},">":{"ha":635,"x_min":83,"x_max":566,"o":"m 566 442 l 83 684 l 83 591 l 461 408 l 83 225 l 83 134 l 566 377 l 566 442 z "},"≥":{"ha":629,"x_min":73,"x_max":556,"o":"m 556 450 l 73 680 l 73 589 l 449 416 l 73 244 l 73 155 l 556 385 l 556 450 m 544 123 l 73 123 l 73 45 l 544 45 l 544 123 z "},"«":{"ha":519,"x_min":45,"x_max":487,"o":"m 58 326 l 198 114 l 286 114 l 153 335 q 153 357 149 347 l 292 576 l 206 576 l 58 362 q 56 330 45 345 q 58 326 57 327 m 254 326 l 389 114 l 481 114 l 350 335 q 350 357 345 346 l 487 576 l 397 576 l 254 362 q 252 328 241 345 q 254 326 254 327 z "},"»":{"ha":521,"x_min":18,"x_max":460,"o":"m 446 365 l 307 576 l 218 576 l 351 355 q 351 334 355 343 l 213 114 l 298 114 l 446 328 q 449 361 460 346 q 446 365 448 363 m 251 365 l 115 576 l 23 576 l 155 355 q 155 334 160 345 l 18 114 l 107 114 l 251 328 q 252 362 263 346 q 251 365 251 363 z "},"‹":{"ha":332,"x_min":45,"x_max":300,"o":"m 57 326 l 198 114 l 296 114 l 161 335 q 161 357 156 347 l 300 576 l 206 576 l 57 362 q 56 328 45 345 q 57 326 57 327 z "},"›":{"ha":334,"x_min":34,"x_max":289,"o":"m 277 365 l 136 576 l 38 576 l 172 355 q 172 334 178 343 l 34 114 l 127 114 l 277 328 q 278 362 289 346 q 277 365 277 363 z "},"h":{"ha":597,"x_min":75,"x_max":529,"o":"m 283 674 q 175 623 201 673 l 175 916 l 75 916 l 76 0 l 176 0 l 175 579 q 187 591 178 590 l 416 591 q 429 579 427 589 l 429 0 l 529 0 l 529 537 q 457 665 529 642 q 381 674 427 674 l 283 674 z "},"˝":{"ha":476,"x_min":66,"x_max":431,"o":"m 66 750 l 148 937 l 255 936 l 141 750 l 66 750 m 240 750 l 324 937 l 431 936 l 315 750 l 240 750 z "},"-":{"ha":434,"x_min":43,"x_max":391,"o":"m 391 427 l 43 427 l 43 345 l 391 345 l 391 427 z "},"i":{"ha":279,"x_min":90,"x_max":190,"o":"m 190 0 l 190 665 l 90 665 l 90 0 l 190 0 m 190 802 l 190 902 l 90 902 l 90 802 l 190 802 z "},"í":{"ha":281,"x_min":90,"x_max":290,"o":"m 191 0 l 191 665 l 90 665 l 90 0 l 191 0 m 96 750 l 180 937 l 290 936 l 174 750 l 96 750 z "},"î":{"ha":281,"x_min":-45,"x_max":312,"o":"m 191 0 l 191 665 l 90 665 l 90 0 l 191 0 m 193 930 l 81 930 l -45 750 l 45 750 l 137 880 l 218 750 l 312 750 l 193 930 z "},"ï":{"ha":281,"x_min":-24,"x_max":311,"o":"m 191 0 l 191 665 l 90 665 l 90 0 l 191 0 m 73 783 l 73 897 l -24 897 l -24 783 l 73 783 m 311 783 l 311 897 l 213 897 l 213 783 l 311 783 z "},"ì":{"ha":281,"x_min":-12,"x_max":191,"o":"m 191 0 l 191 665 l 90 665 l 90 0 l 191 0 m -12 936 l 98 937 l 190 750 l 114 750 l -12 936 z "},"ī":{"ha":281,"x_min":-7,"x_max":288,"o":"m 191 0 l 191 665 l 90 665 l 90 0 l 191 0 m 288 867 l -5 867 l -5 791 l 288 791 l 288 867 z "},"∞":{"ha":1031,"x_min":60,"x_max":971,"o":"m 171 243 q 155 259 156 245 l 155 492 q 171 509 157 507 l 369 509 q 391 492 384 507 l 468 372 l 397 264 q 358 243 373 244 l 171 243 m 817 160 q 971 311 970 163 l 971 441 q 868 587 971 567 q 817 591 844 591 l 689 591 q 590 552 624 591 q 555 505 578 538 l 521 452 l 488 502 q 416 579 448 564 q 347 591 389 591 l 214 591 q 72 519 99 591 q 60 441 60 488 l 60 311 q 156 165 60 189 q 214 160 182 160 l 339 160 q 442 203 407 160 q 479 255 450 213 l 511 304 l 544 252 q 604 180 585 193 q 688 160 632 160 l 817 160 m 682 243 q 644 258 655 243 q 639 266 642 262 l 563 384 l 633 491 q 661 509 646 509 l 860 509 q 876 492 875 506 l 876 259 q 860 243 873 244 l 682 243 z "},"∫":{"ha":450,"x_min":19,"x_max":419,"o":"m 167 777 l 167 -160 q 155 -172 164 -171 l 19 -172 l 19 -267 l 117 -267 q 259 -194 232 -267 q 270 -119 270 -163 l 270 818 q 283 830 273 829 l 419 830 l 419 925 l 320 925 q 178 852 205 925 q 167 777 167 821 z "},"į":{"ha":281,"x_min":7,"x_max":216,"o":"m 191 0 l 191 665 l 90 665 l 90 0 l 114 0 l 42 -65 q 7 -155 7 -98 l 7 -183 q 80 -274 7 -259 q 144 -279 107 -279 l 216 -279 l 216 -205 l 102 -205 q 92 -195 94 -202 l 92 -122 q 103 -99 94 -109 l 190 0 l 191 0 m 194 780 l 194 905 l 90 905 l 90 780 l 194 780 z "},"j":{"ha":267,"x_min":-43,"x_max":187,"o":"m 187 802 l 187 902 l 87 902 l 87 802 l 187 802 m 75 -183 l -43 -183 l -43 -267 l 23 -267 q 175 -198 145 -267 q 187 -121 187 -167 l 187 665 l 87 665 l 87 -171 q 75 -183 87 -183 z "},"k":{"ha":602,"x_min":90,"x_max":597,"o":"m 370 304 q 384 292 380 301 l 495 0 l 597 0 l 505 239 q 448 339 473 320 q 422 351 435 347 q 473 446 449 369 q 476 453 475 450 l 545 665 l 448 665 l 361 400 q 347 388 355 388 l 189 388 l 189 916 l 90 916 l 90 0 l 189 0 l 189 304 l 370 304 z "},"l":{"ha":278,"x_min":90,"x_max":190,"o":"m 190 0 l 190 916 l 90 916 l 90 0 l 190 0 z "},"ĺ":{"ha":278,"x_min":90,"x_max":285,"o":"m 190 0 l 190 916 l 90 916 l 90 0 l 190 0 m 91 962 l 175 1149 l 285 1147 l 168 962 l 91 962 z "},"ľ":{"ha":351,"x_min":90,"x_max":358,"o":"m 190 0 l 190 916 l 90 916 l 90 0 l 190 0 m 256 791 l 293 791 q 256 692 286 736 l 292 665 q 357 810 357 731 l 357 917 l 256 917 l 256 791 z "},"<":{"ha":631,"x_min":65,"x_max":548,"o":"m 65 349 l 548 107 l 548 199 l 170 382 l 548 566 l 548 656 l 65 414 l 65 349 z "},"≤":{"ha":629,"x_min":73,"x_max":556,"o":"m 73 384 l 556 155 l 556 245 l 179 418 l 556 590 l 556 680 l 73 449 l 73 384 m 556 123 l 81 123 l 81 45 l 556 45 l 556 123 z "},"¬":{"ha":711,"x_min":54,"x_max":635,"o":"m 635 444 l 54 444 l 54 368 l 548 368 l 548 195 l 635 195 l 635 444 z "},"◊":{"ha":667,"x_min":28,"x_max":640,"o":"m 359 -4 l 640 434 l 363 865 l 302 865 l 28 429 l 296 -4 l 359 -4 m 175 365 l 126 434 l 286 688 l 332 765 l 494 499 l 543 427 l 374 170 l 330 94 l 175 365 z "},"ł":{"ha":282,"x_min":-12,"x_max":296,"o":"m 191 0 l 191 433 l 296 471 l 273 540 l 191 510 l 191 916 l 91 916 l 91 475 l -12 437 l 11 366 l 91 396 l 91 0 l 191 0 z "},"m":{"ha":911,"x_min":66,"x_max":848,"o":"m 275 674 q 163 613 187 673 l 153 665 l 66 665 l 66 0 l 167 0 l 167 579 q 179 591 170 590 l 395 591 q 407 579 406 589 l 407 0 l 507 0 l 507 537 l 507 557 l 507 579 q 519 591 510 590 l 735 591 q 747 579 746 589 l 747 0 l 848 0 l 848 537 q 776 665 848 642 q 700 674 746 674 l 616 674 q 499 601 519 673 q 388 673 477 667 q 359 674 374 674 l 275 674 z "},"¯":{"ha":491,"x_min":73,"x_max":418,"o":"m 418 867 l 73 867 l 73 791 l 418 791 l 418 867 z "},"−":{"ha":718,"x_min":76,"x_max":643,"o":"m 643 444 l 76 444 l 76 365 l 643 365 l 643 444 z "},"×":{"ha":609,"x_min":76,"x_max":533,"o":"m 476 631 l 305 460 l 133 632 l 76 574 l 248 403 l 76 231 l 132 174 l 304 346 l 476 174 l 533 231 l 361 403 l 533 575 l 476 631 z "},"n":{"ha":600,"x_min":77,"x_max":533,"o":"m 286 674 q 174 614 198 673 l 165 665 l 77 665 l 79 0 l 179 0 l 178 579 q 190 591 180 590 l 419 591 q 431 579 430 589 l 431 0 l 533 0 l 533 537 q 461 665 533 642 q 385 674 431 674 l 286 674 z "},"ń":{"ha":600,"x_min":77,"x_max":533,"o":"m 286 674 q 174 614 198 673 l 165 665 l 77 665 l 79 0 l 179 0 l 178 579 q 190 591 180 590 l 419 591 q 431 579 430 589 l 431 0 l 533 0 l 533 537 q 461 665 533 642 q 385 674 431 674 l 286 674 m 270 750 l 354 937 l 464 936 l 347 750 l 270 750 z "},"ň":{"ha":600,"x_min":77,"x_max":533,"o":"m 286 674 q 174 614 198 673 l 165 665 l 77 665 l 79 0 l 179 0 l 178 579 q 190 591 180 590 l 419 591 q 431 579 430 589 l 431 0 l 533 0 l 533 537 q 461 665 533 642 q 385 674 431 674 l 286 674 m 259 757 l 370 757 l 496 937 l 407 937 l 315 807 l 233 937 l 140 937 l 259 757 z "},"≠":{"ha":671,"x_min":76,"x_max":595,"o":"m 437 685 l 363 524 l 76 524 l 76 445 l 327 445 l 255 285 l 76 285 l 76 206 l 218 206 l 144 42 l 229 42 l 304 206 l 595 206 l 595 285 l 339 285 l 412 445 l 595 445 l 595 524 l 448 524 l 521 685 l 437 685 z "},"ñ":{"ha":600,"x_min":77,"x_max":533,"o":"m 286 674 q 174 614 198 673 l 165 665 l 77 665 l 79 0 l 179 0 l 178 579 q 190 591 180 590 l 419 591 q 431 579 430 589 l 431 0 l 533 0 l 533 537 q 461 665 533 642 q 385 674 431 674 l 286 674 m 201 785 q 233 837 202 836 q 319 808 251 837 q 401 787 369 787 q 487 869 475 787 q 490 911 490 890 l 419 911 q 392 863 419 867 q 382 861 387 861 q 297 890 362 861 q 213 911 247 911 q 134 844 149 911 q 130 785 130 818 l 201 785 z "},"#":{"ha":709,"x_min":23,"x_max":686,"o":"m 91 0 l 170 0 l 213 228 l 415 228 l 372 0 l 450 0 l 494 228 l 623 228 l 623 304 l 509 304 l 557 566 l 686 566 l 686 642 l 572 642 l 616 868 l 538 868 l 495 642 l 292 642 l 335 868 l 258 868 l 214 642 l 87 642 l 87 566 l 199 566 l 149 304 l 23 304 l 23 228 l 134 228 l 91 0 m 480 566 l 430 304 l 228 304 l 277 566 l 480 566 z "},"o":{"ha":595,"x_min":64,"x_max":532,"o":"m 418 590 q 430 578 429 587 l 430 88 q 418 75 429 76 l 178 75 q 165 88 167 77 l 165 578 q 178 590 168 589 l 418 590 m 64 138 q 140 3 64 28 q 228 -9 175 -9 l 368 -9 q 518 58 488 -9 q 532 138 532 91 l 532 528 q 456 662 532 636 q 368 674 420 674 l 228 674 q 76 605 106 674 q 64 528 64 574 l 64 138 z "},"ó":{"ha":595,"x_min":64,"x_max":532,"o":"m 418 590 q 430 578 429 587 l 430 88 q 418 75 429 76 l 178 75 q 165 88 167 77 l 165 578 q 178 590 168 589 l 418 590 m 64 138 q 140 3 64 28 q 228 -9 175 -9 l 368 -9 q 518 58 488 -9 q 532 138 532 91 l 532 528 q 456 662 532 636 q 368 674 420 674 l 228 674 q 76 605 106 674 q 64 528 64 574 l 64 138 m 255 750 l 339 937 l 449 936 l 332 750 l 255 750 z "},"ô":{"ha":595,"x_min":64,"x_max":532,"o":"m 418 590 q 430 578 429 587 l 430 88 q 418 75 429 76 l 178 75 q 165 88 167 77 l 165 578 q 178 590 168 589 l 418 590 m 64 138 q 140 3 64 28 q 228 -9 175 -9 l 368 -9 q 518 58 488 -9 q 532 138 532 91 l 532 528 q 456 662 532 636 q 368 674 420 674 l 228 674 q 76 605 106 674 q 64 528 64 574 l 64 138 m 351 930 l 240 930 l 114 750 l 203 750 l 296 880 l 377 750 l 471 750 l 351 930 z "},"ö":{"ha":595,"x_min":64,"x_max":532,"o":"m 418 590 q 430 578 429 587 l 430 88 q 418 75 429 76 l 178 75 q 165 88 167 77 l 165 578 q 178 590 168 589 l 418 590 m 64 138 q 140 3 64 28 q 228 -9 175 -9 l 368 -9 q 518 58 488 -9 q 532 138 532 91 l 532 528 q 456 662 532 636 q 368 674 420 674 l 228 674 q 76 605 106 674 q 64 528 64 574 l 64 138 m 232 783 l 232 897 l 134 897 l 134 783 l 232 783 m 469 783 l 469 897 l 372 897 l 372 783 l 469 783 z "},"œ":{"ha":937,"x_min":64,"x_max":880,"o":"m 418 590 q 430 578 430 590 l 430 88 q 418 75 427 76 l 178 75 q 165 88 167 77 l 165 578 q 178 590 168 589 l 418 590 m 530 579 q 543 591 530 591 l 768 591 q 780 579 779 589 l 780 336 l 530 336 l 530 579 m 608 -7 l 864 -7 l 864 77 l 543 77 q 530 90 532 80 l 530 262 l 880 262 l 880 532 q 814 662 880 636 q 724 674 780 674 l 593 674 q 477 633 503 673 q 355 674 446 674 l 228 674 q 76 605 106 674 q 64 528 64 574 l 64 138 q 140 3 64 28 q 228 -9 175 -9 l 355 -9 q 481 38 453 -8 q 608 -7 513 -7 z "},"˛":{"ha":404,"x_min":125,"x_max":334,"o":"m 334 -279 l 334 -205 l 220 -205 q 210 -195 212 -202 l 210 -122 q 221 -99 212 -109 l 308 0 l 241 8 l 160 -65 q 125 -155 125 -98 l 125 -183 q 198 -274 125 -259 q 262 -279 225 -279 l 334 -279 z "},"ò":{"ha":595,"x_min":64,"x_max":532,"o":"m 418 590 q 430 578 429 587 l 430 88 q 418 75 429 76 l 178 75 q 165 88 167 77 l 165 578 q 178 590 168 589 l 418 590 m 64 138 q 140 3 64 28 q 228 -9 175 -9 l 368 -9 q 518 58 488 -9 q 532 138 532 91 l 532 528 q 456 662 532 636 q 368 674 420 674 l 228 674 q 76 605 106 674 q 64 528 64 574 l 64 138 m 146 936 l 256 937 l 349 750 l 273 750 l 146 936 z "},"ő":{"ha":595,"x_min":64,"x_max":536,"o":"m 418 590 q 430 578 429 587 l 430 88 q 418 75 429 76 l 178 75 q 165 88 167 77 l 165 578 q 178 590 168 589 l 418 590 m 64 138 q 140 3 64 28 q 228 -9 175 -9 l 368 -9 q 518 58 488 -9 q 532 138 532 91 l 532 528 q 456 662 532 636 q 368 674 420 674 l 228 674 q 76 605 106 674 q 64 528 64 574 l 64 138 m 171 750 l 252 937 l 359 936 l 245 750 l 171 750 m 345 750 l 429 937 l 536 936 l 419 750 l 345 750 z "},"ō":{"ha":595,"x_min":64,"x_max":532,"o":"m 418 590 q 430 578 429 587 l 430 88 q 418 75 429 76 l 178 75 q 165 88 167 77 l 165 578 q 178 590 168 589 l 418 590 m 64 138 q 140 3 64 28 q 228 -9 175 -9 l 368 -9 q 518 58 488 -9 q 532 138 532 91 l 532 528 q 456 662 532 636 q 368 674 420 674 l 228 674 q 76 605 106 674 q 64 528 64 574 l 64 138 m 472 867 l 127 867 l 127 791 l 472 791 l 472 867 z "},"½":{"ha":1032,"x_min":37,"x_max":978,"o":"m 388 407 l 285 407 l 285 861 l 205 861 l 37 753 l 75 692 l 199 770 l 199 407 l 58 407 l 58 338 l 388 338 l 388 407 m 727 871 l 259 -9 l 346 -9 l 812 871 l 727 871 m 644 164 l 644 0 l 975 0 l 975 69 l 731 69 l 731 156 q 746 184 732 178 l 913 262 q 974 317 964 288 q 978 346 978 330 l 978 427 q 875 528 978 528 q 872 528 873 528 l 658 524 l 658 454 l 879 454 q 891 445 890 452 l 891 349 q 880 335 891 340 l 879 334 l 709 254 q 652 212 662 231 q 644 164 644 194 z "},"¼":{"ha":1067,"x_min":37,"x_max":1016,"o":"m 940 0 l 940 118 l 1016 118 l 1016 186 l 940 186 l 940 525 l 845 526 q 769 496 792 526 q 746 460 762 486 l 582 174 l 582 118 l 854 118 l 854 0 l 940 0 m 822 449 q 833 456 827 456 l 854 456 l 854 186 l 669 186 l 822 449 m 388 407 l 285 407 l 285 861 l 205 861 l 37 753 l 75 692 l 199 770 l 199 407 l 58 407 l 58 338 l 388 338 l 388 407 m 734 871 l 266 -9 l 353 -9 l 819 871 l 734 871 z "},"¹":{"ha":426,"x_min":37,"x_max":388,"o":"m 388 407 l 285 407 l 285 861 l 205 861 l 37 753 l 75 692 l 199 770 l 199 407 l 58 407 l 58 338 l 388 338 l 388 407 z "},"ª":{"ha":461,"x_min":50,"x_max":397,"o":"m 308 477 l 148 477 q 136 490 137 480 l 136 628 q 148 640 138 639 l 308 640 l 308 477 m 212 403 q 311 463 294 404 l 321 411 l 397 411 l 397 768 q 349 888 397 863 q 252 905 316 905 l 77 905 l 77 833 l 296 833 q 308 821 307 830 l 308 707 l 194 707 q 66 655 92 707 q 50 570 50 624 l 50 537 q 110 414 50 437 q 184 403 140 403 l 212 403 z "},"º":{"ha":490,"x_min":60,"x_max":433,"o":"m 332 834 q 345 822 343 831 l 345 488 q 332 476 342 477 l 159 476 q 146 488 148 479 l 146 822 q 159 834 149 833 l 332 834 m 60 545 q 133 414 60 438 q 213 403 164 403 l 278 403 q 420 469 393 403 q 433 545 433 500 l 433 764 q 358 897 433 872 q 278 907 326 907 l 213 907 q 73 842 100 907 q 60 764 60 811 l 60 545 z "},"ø":{"ha":595,"x_min":64,"x_max":532,"o":"m 458 743 l 425 670 q 368 674 399 674 l 228 674 q 76 605 106 674 q 64 528 64 574 l 64 138 q 115 14 65 46 l 73 -77 l 138 -77 l 172 -5 q 228 -9 198 -9 l 368 -9 q 518 58 488 -9 q 532 138 532 91 l 532 528 q 480 651 530 618 l 524 743 l 458 743 m 165 578 q 178 590 168 589 l 387 590 l 165 119 l 165 578 m 430 88 q 418 75 429 76 l 210 75 l 430 544 l 430 88 z "},"õ":{"ha":595,"x_min":64,"x_max":532,"o":"m 418 590 q 430 578 429 587 l 430 88 q 418 75 429 76 l 178 75 q 165 88 167 77 l 165 578 q 178 590 168 589 l 418 590 m 64 138 q 140 3 64 28 q 228 -9 175 -9 l 368 -9 q 518 58 488 -9 q 532 138 532 91 l 532 528 q 456 662 532 636 q 368 674 420 674 l 228 674 q 76 605 106 674 q 64 528 64 574 l 64 138 m 187 785 q 220 837 189 836 q 305 808 237 837 q 388 787 355 787 q 473 869 461 787 q 476 911 476 890 l 406 911 q 378 863 406 867 q 369 861 373 861 q 283 890 349 861 q 199 911 233 911 q 121 844 136 911 q 117 785 117 818 l 187 785 z "},"p":{"ha":597,"x_min":77,"x_max":533,"o":"m 178 -258 l 178 -1 l 377 -4 q 518 56 490 -4 q 533 137 533 87 l 533 537 q 461 665 533 642 q 385 674 431 674 l 288 674 q 175 605 195 673 l 165 665 l 77 665 l 77 -258 l 178 -258 m 178 579 q 191 591 180 590 l 419 591 q 431 579 430 589 l 431 91 q 419 79 429 80 l 178 81 l 178 579 z "},"¶":{"ha":673,"x_min":45,"x_max":574,"o":"m 481 0 l 574 0 l 574 861 l 224 867 q 45 705 46 867 l 45 610 q 224 448 47 449 l 300 448 l 300 0 l 392 0 l 392 776 l 481 776 l 481 0 z "},"(":{"ha":376,"x_min":87,"x_max":346,"o":"m 346 -231 l 346 -151 l 205 -151 q 193 -138 194 -148 l 193 830 q 205 842 195 841 l 346 842 l 346 922 l 264 922 q 88 792 103 922 q 87 764 87 779 l 87 -72 q 227 -229 87 -214 q 264 -231 245 -231 l 346 -231 z "},")":{"ha":376,"x_min":30,"x_max":289,"o":"m 30 -231 l 30 -151 l 171 -151 q 183 -138 182 -148 l 183 830 q 171 842 180 841 l 30 842 l 30 922 l 111 922 q 288 792 273 922 q 289 764 289 779 l 289 -72 q 149 -229 289 -214 q 111 -231 130 -231 l 30 -231 z "},"∂":{"ha":675,"x_min":61,"x_max":575,"o":"m 396 -4 q 566 84 537 -4 q 575 151 575 113 l 575 699 q 445 863 575 840 q 391 867 419 867 l 99 861 l 99 770 l 450 770 q 468 754 467 768 l 468 448 q 354 513 444 511 l 233 513 q 66 411 91 513 q 61 355 61 385 l 61 160 q 209 -3 61 9 q 240 -4 225 -4 l 396 -4 m 186 91 q 168 107 170 94 l 168 407 q 186 425 171 423 l 456 425 q 468 412 468 425 l 468 107 q 450 91 465 92 l 186 91 z "},"%":{"ha":972,"x_min":43,"x_max":929,"o":"m 43 487 q 127 385 43 397 q 159 384 142 384 l 270 384 q 388 471 381 384 q 389 487 389 479 l 387 761 q 307 863 387 850 q 270 865 289 865 l 159 865 q 45 787 57 865 q 43 761 43 774 l 43 487 m 289 789 q 301 779 300 787 l 301 471 q 289 458 301 458 l 141 458 q 129 471 129 458 l 129 779 q 141 789 132 788 l 289 789 m 586 100 q 677 -3 586 7 q 701 -4 689 -4 l 812 -4 q 928 80 918 -4 q 929 100 929 90 l 929 374 q 846 475 929 463 q 812 477 830 477 l 701 477 q 587 397 598 477 q 586 374 586 387 l 586 100 m 831 403 q 844 391 844 403 l 844 84 q 831 72 841 73 l 684 72 q 671 84 673 75 l 671 391 q 684 403 671 403 l 831 403 m 680 871 l 212 -9 l 298 -9 l 765 871 l 680 871 z "},".":{"ha":250,"x_min":69,"x_max":180,"o":"m 180 0 l 180 137 l 69 137 l 69 0 l 180 0 z "},"·":{"ha":250,"x_min":64,"x_max":186,"o":"m 186 320 l 186 461 l 64 461 l 64 320 l 186 320 z "},"‰":{"ha":1400,"x_min":43,"x_max":1358,"o":"m 1013 100 q 1104 -3 1013 7 q 1128 -4 1116 -4 l 1241 -4 q 1358 100 1352 8 l 1358 374 q 1268 476 1358 467 q 1241 477 1255 477 l 1128 477 q 1015 397 1025 477 q 1013 374 1013 387 l 1013 100 m 1260 403 q 1272 391 1271 400 l 1272 84 q 1260 72 1270 73 l 1111 72 q 1099 84 1100 75 l 1099 391 q 1111 403 1101 401 l 1260 403 m 43 487 q 127 385 43 397 q 159 384 142 384 l 270 384 q 388 471 381 384 q 389 487 389 479 l 387 761 q 307 863 387 850 q 270 865 289 865 l 159 865 q 45 787 57 865 q 43 761 43 774 l 43 487 m 289 789 q 301 779 300 787 l 301 471 q 289 458 301 458 l 141 458 q 129 471 129 458 l 129 779 q 141 789 132 788 l 289 789 m 586 100 q 677 -3 586 7 q 701 -4 689 -4 l 812 -4 q 928 80 918 -4 q 929 100 929 90 l 929 374 q 846 475 929 463 q 812 477 830 477 l 701 477 q 587 397 598 477 q 586 374 586 387 l 586 100 m 831 403 q 844 391 844 403 l 844 84 q 831 72 841 73 l 684 72 q 671 84 673 75 l 671 391 q 684 403 671 403 l 831 403 m 680 871 l 212 -9 l 298 -9 l 765 871 l 680 871 z "},"π":{"ha":671,"x_min":26,"x_max":646,"o":"m 210 0 l 210 586 l 461 586 l 461 0 l 562 0 l 562 586 l 646 586 l 646 665 l 26 665 l 26 586 l 110 586 l 110 0 l 210 0 z "},"+":{"ha":718,"x_min":77,"x_max":640,"o":"m 640 444 l 400 444 l 400 677 l 317 677 l 317 444 l 77 444 l 77 365 l 317 365 l 317 130 l 400 130 l 400 365 l 640 365 l 640 444 z "},"±":{"ha":718,"x_min":77,"x_max":640,"o":"m 640 492 l 400 492 l 400 701 l 317 701 l 317 492 l 77 492 l 77 414 l 317 414 l 317 203 l 400 203 l 400 414 l 640 414 l 640 492 m 640 123 l 77 123 l 77 45 l 640 45 l 640 123 z "},"∏":{"ha":751,"x_min":35,"x_max":716,"o":"m 716 861 l 35 861 l 35 770 l 121 770 l 121 0 l 224 0 l 224 770 l 528 770 l 528 0 l 631 0 l 631 770 l 716 770 l 716 861 z "},"q":{"ha":597,"x_min":64,"x_max":519,"o":"m 220 669 q 79 610 107 670 q 64 529 64 579 l 64 127 q 136 0 64 23 q 212 -9 165 -9 l 309 -9 q 418 53 397 -8 l 418 -258 l 519 -258 l 519 665 l 220 669 m 418 85 q 406 73 418 73 l 176 73 q 164 85 165 76 l 164 574 q 176 586 167 585 l 418 583 l 418 85 z "},"?":{"ha":496,"x_min":43,"x_max":425,"o":"m 229 212 l 229 297 q 248 354 229 334 q 254 359 252 358 l 340 452 q 414 543 403 517 q 425 593 425 566 l 425 712 q 327 857 425 834 q 259 864 297 864 l 43 864 l 43 774 l 309 774 q 321 762 320 772 l 321 574 q 311 549 320 559 l 195 430 q 136 357 144 376 q 129 307 129 336 l 129 212 l 229 212 m 231 0 l 231 123 l 127 123 l 127 0 l 231 0 z "},"¿":{"ha":510,"x_min":85,"x_max":467,"o":"m 281 453 l 281 368 q 262 311 281 331 q 256 305 258 307 l 170 213 q 96 122 107 148 q 85 72 85 99 l 85 -47 q 183 -193 85 -170 q 251 -199 213 -199 l 467 -199 l 467 -110 l 201 -110 q 189 -98 190 -107 l 189 91 q 199 115 190 106 l 315 235 q 374 308 366 289 q 381 358 381 328 l 381 453 l 281 453 m 279 665 l 279 541 l 382 541 l 382 665 l 279 665 z "},"\"":{"ha":349,"x_min":50,"x_max":283,"o":"m 50 661 l 50 922 l 137 922 l 137 810 l 103 661 l 50 661 m 197 661 l 197 922 l 283 922 l 283 810 l 248 661 l 197 661 z "},"„":{"ha":385,"x_min":58,"x_max":323,"o":"m 218 9 l 255 9 q 220 -91 250 -46 l 255 -118 q 321 28 321 -50 l 321 137 l 218 137 l 218 9 m 60 9 l 96 9 q 61 -91 91 -46 l 96 -118 q 163 28 163 -50 l 163 137 l 60 137 l 60 9 z "},"“":{"ha":388,"x_min":64,"x_max":330,"o":"m 172 804 l 133 804 q 171 909 140 861 l 134 937 q 65 784 65 867 l 65 671 l 172 671 l 172 804 m 330 804 l 290 804 q 328 909 297 861 l 292 937 q 222 784 222 867 l 222 671 l 330 671 l 330 804 z "},"”":{"ha":385,"x_min":56,"x_max":321,"o":"m 213 789 l 252 789 q 214 685 245 732 l 251 656 q 320 810 320 727 l 320 922 l 213 922 l 213 789 m 56 789 l 95 789 q 57 685 88 732 l 94 656 q 163 810 163 727 l 163 922 l 56 922 l 56 789 z "},"‘":{"ha":222,"x_min":64,"x_max":172,"o":"m 172 804 l 133 804 q 171 909 140 861 l 134 937 q 65 784 65 867 l 65 671 l 172 671 l 172 804 z "},"’":{"ha":214,"x_min":49,"x_max":157,"o":"m 49 789 l 88 789 q 50 685 81 732 l 87 656 q 156 810 156 727 l 156 922 l 49 922 l 49 789 z "},"‚":{"ha":232,"x_min":60,"x_max":168,"o":"m 60 3 l 99 3 q 61 -103 92 -56 l 98 -132 q 168 23 167 -61 l 168 137 l 60 137 l 60 3 z "},"'":{"ha":208,"x_min":50,"x_max":142,"o":"m 50 659 l 50 922 l 142 922 l 142 810 l 104 659 l 50 659 z "},"r":{"ha":363,"x_min":76,"x_max":363,"o":"m 285 674 q 172 614 197 673 l 164 665 l 76 665 l 77 0 l 178 0 l 176 575 q 189 587 179 586 l 363 587 l 363 674 l 285 674 z "},"ŕ":{"ha":363,"x_min":76,"x_max":363,"o":"m 285 674 q 172 614 197 673 l 164 665 l 76 665 l 77 0 l 178 0 l 176 575 q 189 587 179 586 l 363 587 l 363 674 l 285 674 m 121 750 l 205 937 l 315 936 l 198 750 l 121 750 z "},"√":{"ha":776,"x_min":30,"x_max":739,"o":"m 437 -54 l 739 925 l 650 925 l 391 85 l 194 665 l 30 665 l 30 574 l 121 574 l 339 -54 l 437 -54 z "},"ř":{"ha":365,"x_min":46,"x_max":403,"o":"m 285 674 q 172 614 197 673 l 164 665 l 76 665 l 77 0 l 178 0 l 176 575 q 189 587 179 586 l 363 587 l 363 674 l 285 674 m 165 757 l 277 757 l 403 937 l 313 937 l 221 807 l 140 937 l 46 937 l 165 757 z "},"®":{"ha":711,"x_min":94,"x_max":631,"o":"m 552 817 q 564 804 563 814 l 564 300 q 552 289 562 290 l 172 289 q 160 300 161 292 l 160 804 q 172 817 163 815 l 552 817 m 94 361 q 159 244 94 266 q 233 235 189 235 l 491 235 q 620 293 595 235 q 631 361 631 320 l 631 745 q 566 861 631 840 q 491 871 536 871 l 233 871 q 104 812 129 871 q 94 745 94 785 l 94 361 m 298 328 l 297 498 l 377 498 q 395 486 392 496 l 448 328 l 528 328 l 491 437 q 453 507 472 492 q 519 618 518 530 l 519 654 q 392 770 517 772 l 216 766 l 216 328 l 298 328 m 422 707 q 435 692 434 704 l 435 575 q 422 560 433 562 l 297 560 l 297 707 l 422 707 z "},"˚":{"ha":438,"x_min":100,"x_max":345,"o":"m 345 849 q 293 956 345 936 q 220 967 266 967 q 111 918 132 967 q 100 849 100 892 q 155 739 100 761 q 220 730 179 730 q 338 792 317 730 q 345 849 345 814 m 159 849 q 176 911 159 901 q 220 918 190 918 q 281 894 273 918 q 286 849 286 879 q 263 787 286 798 q 220 780 247 780 q 163 808 171 780 q 159 849 159 823 z "},"s":{"ha":509,"x_min":46,"x_max":476,"o":"m 328 -5 q 464 58 438 -5 q 476 132 476 87 l 476 237 q 410 366 476 340 q 320 378 376 378 l 160 378 q 148 391 149 381 l 148 578 q 160 590 148 590 l 445 589 l 445 673 l 203 674 q 61 613 90 674 q 46 529 46 581 l 46 439 q 113 311 46 336 q 202 298 146 298 l 363 298 q 376 286 376 298 l 376 90 q 363 77 373 79 l 56 77 l 56 -5 l 328 -5 z "},"ś":{"ha":509,"x_min":46,"x_max":476,"o":"m 328 -5 q 464 58 438 -5 q 476 132 476 87 l 476 237 q 410 366 476 340 q 320 378 376 378 l 160 378 q 148 391 149 381 l 148 578 q 160 590 148 590 l 445 589 l 445 673 l 203 674 q 61 613 90 674 q 46 529 46 581 l 46 439 q 113 311 46 336 q 202 298 146 298 l 363 298 q 376 286 376 298 l 376 90 q 363 77 373 79 l 56 77 l 56 -5 l 328 -5 m 213 750 l 297 937 l 407 936 l 290 750 l 213 750 z "},"š":{"ha":509,"x_min":46,"x_max":476,"o":"m 328 -5 q 464 58 438 -5 q 476 132 476 87 l 476 237 q 410 366 476 340 q 320 378 376 378 l 160 378 q 148 391 149 381 l 148 578 q 160 590 148 590 l 445 589 l 445 673 l 203 674 q 61 613 90 674 q 46 529 46 581 l 46 439 q 113 311 46 336 q 202 298 146 298 l 363 298 q 376 286 376 298 l 376 90 q 363 77 373 79 l 56 77 l 56 -5 l 328 -5 m 213 757 l 324 757 l 450 937 l 361 937 l 269 807 l 187 937 l 94 937 l 213 757 z "},"§":{"ha":605,"x_min":58,"x_max":547,"o":"m 547 28 l 547 323 q 505 434 547 401 q 438 467 483 449 l 180 571 q 163 595 164 581 l 163 754 q 180 772 165 770 l 528 772 l 528 861 l 231 867 q 58 705 60 867 l 58 411 q 100 300 58 332 q 167 267 122 285 l 423 163 q 442 138 441 152 l 442 -20 q 425 -38 439 -37 l 76 -38 l 76 -127 l 373 -133 q 547 28 544 -133 m 187 354 q 163 387 164 362 q 163 401 163 393 l 163 487 l 418 380 q 442 347 441 372 q 442 332 442 340 l 442 248 l 187 354 z "},";":{"ha":292,"x_min":87,"x_max":198,"o":"m 87 3 l 126 3 q 90 -98 119 -49 l 127 -129 q 198 23 197 -57 l 198 137 l 87 137 l 87 3 m 198 363 l 198 500 l 87 500 l 87 363 l 198 363 z "},"අ":{"ha":735,"x_min":30,"x_max":678,"o":"m 416 582 q 473 670 416 654 q 499 674 486 674 l 678 674 l 678 613 l 629 613 q 612 600 613 612 q 639 557 612 594 q 674 464 674 509 l 674 331 q 606 259 671 260 l 502 259 l 502 73 l 671 73 l 671 0 l 502 0 l 502 -190 l 416 -190 l 416 0 l 95 0 q 33 39 41 0 q 30 69 30 52 l 30 404 q 104 480 33 479 l 277 480 l 277 555 q 240 601 277 597 q 225 602 233 602 l 30 602 l 30 674 l 251 674 q 349 585 345 667 l 349 408 l 152 408 q 117 384 121 408 q 115 365 115 374 l 115 109 q 144 75 125 77 l 416 73 l 416 582 m 500 327 l 574 327 q 605 362 602 338 l 605 467 q 570 549 605 495 q 551 594 551 579 q 553 605 552 602 q 502 572 507 605 q 500 559 500 566 l 500 327 z "},"ආ":{"ha":1061,"x_min":30,"x_max":1009,"o":"m 416 582 q 473 670 416 654 q 499 674 486 674 l 678 674 l 678 613 l 629 613 q 612 600 613 612 q 639 557 612 594 q 674 464 674 509 l 674 331 q 606 259 671 260 l 502 259 l 502 73 l 671 73 l 671 0 l 502 0 l 502 -190 l 416 -190 l 416 0 l 95 0 q 33 39 41 0 q 30 69 30 52 l 30 404 q 104 480 33 479 l 277 480 l 277 555 q 240 601 277 597 q 225 602 233 602 l 30 602 l 30 674 l 251 674 q 349 585 345 667 l 349 408 l 152 408 q 117 384 121 408 q 115 365 115 374 l 115 109 q 144 75 125 77 l 416 73 l 416 582 m 500 327 l 574 327 q 605 362 602 338 l 605 467 q 570 549 605 495 q 551 594 551 579 q 553 605 552 602 q 502 572 507 605 q 500 559 500 566 l 500 327 m 774 674 l 954 674 q 1009 617 1008 671 l 1009 52 q 954 0 1006 1 l 774 0 l 774 75 l 902 75 q 924 100 922 77 l 924 579 q 901 602 921 601 l 774 602 l 774 674 z "},"ඈ":{"ha":1085,"x_min":30,"x_max":1029,"o":"m 416 582 q 473 670 416 654 q 499 674 486 674 l 678 674 l 678 613 l 629 613 q 612 600 613 612 q 639 557 612 594 q 674 464 674 509 l 674 331 q 606 259 671 260 l 502 259 l 502 73 l 671 73 l 671 0 l 502 0 l 502 -190 l 416 -190 l 416 0 l 95 0 q 33 39 41 0 q 30 69 30 52 l 30 404 q 104 480 33 479 l 277 480 l 277 555 q 240 601 277 597 q 225 602 233 602 l 30 602 l 30 674 l 251 674 q 349 585 345 667 l 349 408 l 152 408 q 117 384 121 408 q 115 365 115 374 l 115 109 q 144 75 125 77 l 416 73 l 416 582 m 500 327 l 574 327 q 605 362 602 338 l 605 467 q 570 549 605 495 q 551 594 551 579 q 553 605 552 602 q 502 572 507 605 q 500 559 500 566 l 500 327 m 776 674 l 1029 674 l 1029 605 l 879 487 l 1029 487 l 1029 423 l 892 298 q 861 239 864 271 q 861 224 861 232 l 861 100 q 869 76 861 77 q 884 75 875 75 l 1029 73 l 1029 0 l 817 0 q 776 49 776 0 l 776 229 q 806 315 776 285 q 811 320 810 319 l 925 420 l 776 420 l 776 483 l 922 602 l 776 602 l 776 674 z "},"ඇ":{"ha":1092,"x_min":30,"x_max":1038,"o":"m 785 674 l 1038 674 l 1038 598 l 888 350 q 871 275 871 320 l 871 100 q 898 75 873 76 l 1038 75 l 1038 0 l 833 0 q 785 49 789 8 l 785 274 q 808 376 787 336 l 947 602 l 785 602 l 785 674 m 416 582 q 473 670 416 654 q 499 674 486 674 l 678 674 l 678 613 l 629 613 q 612 600 613 612 q 639 557 612 594 q 674 464 674 509 l 674 331 q 606 259 671 260 l 502 259 l 502 73 l 671 73 l 671 0 l 502 0 l 502 -190 l 416 -190 l 416 0 l 95 0 q 33 39 41 0 q 30 69 30 52 l 30 404 q 104 480 33 479 l 277 480 l 277 555 q 240 601 277 597 q 225 602 233 602 l 30 602 l 30 674 l 251 674 q 349 585 345 667 l 349 408 l 152 408 q 117 384 121 408 q 115 365 115 374 l 115 109 q 144 75 125 77 l 416 73 l 416 582 m 500 327 l 574 327 q 605 362 602 338 l 605 467 q 570 549 605 495 q 551 594 551 579 q 553 605 552 602 q 502 572 507 605 q 500 559 500 566 l 500 327 z "},"ඓ":{"ha":1237,"x_min":30,"x_max":1188,"o":"m 802 834 l 802 700 q 819 671 802 673 q 836 670 826 670 l 1101 670 l 1101 677 q 1059 732 1101 712 q 1051 736 1055 734 q 876 823 1051 736 q 815 834 854 834 l 802 834 m 1188 670 l 1188 69 q 1139 1 1188 9 q 1126 0 1133 0 l 643 0 q 578 60 579 3 l 578 229 q 616 307 579 285 l 532 307 l 532 374 l 833 374 l 833 450 q 798 486 830 484 l 582 486 l 582 552 l 838 552 q 920 469 918 549 l 920 304 l 761 304 q 663 229 665 302 l 663 106 q 684 76 663 79 q 696 75 690 75 l 1074 75 q 1103 109 1101 77 l 1103 612 l 784 612 q 724 647 734 612 q 722 677 722 661 l 722 834 l 635 834 l 635 901 l 800 901 q 906 880 860 901 q 917 875 913 878 l 1093 788 q 1181 713 1165 757 q 1188 670 1188 693 m 449 674 l 102 674 q 31 620 41 674 q 30 604 30 612 l 30 62 q 92 0 33 1 l 387 0 q 456 66 450 9 l 456 372 q 384 439 453 438 l 235 439 l 235 369 l 334 369 q 368 345 365 369 q 369 331 369 338 l 369 104 q 338 75 366 76 l 142 75 q 115 104 117 77 l 115 564 q 142 601 115 598 q 155 602 149 602 l 449 602 l 449 674 z "},"ඖ":{"ha":1176,"x_min":30,"x_max":1133,"o":"m 730 674 l 730 391 q 774 346 732 347 l 890 346 q 951 393 949 349 l 951 572 q 974 602 954 601 l 1028 602 q 1051 575 1050 600 l 1051 106 q 1024 75 1048 76 l 849 75 q 821 106 823 85 l 821 210 l 731 210 l 731 65 q 785 1 736 5 l 1067 1 q 1133 64 1127 11 l 1133 618 q 1096 671 1133 658 q 1076 674 1086 674 l 929 674 q 883 616 884 671 l 883 446 q 859 419 876 420 l 817 419 q 795 431 798 419 q 793 446 793 438 l 793 674 l 730 674 m 387 339 l 269 339 q 221 380 222 342 l 221 533 q 206 549 218 548 l 146 549 q 115 511 117 547 l 115 111 q 136 76 115 79 q 149 75 142 75 l 247 75 q 294 127 290 87 l 294 248 l 370 248 l 370 129 q 419 75 381 79 l 515 75 q 548 111 545 83 l 548 719 q 513 770 548 765 q 494 772 505 772 l 30 772 l 30 849 l 534 849 q 633 760 632 846 l 633 68 q 570 0 631 1 l 399 0 q 332 42 343 1 q 281 1 326 7 q 269 0 274 0 l 94 0 q 30 65 31 3 l 30 534 q 110 623 33 621 l 227 623 q 282 575 281 620 l 282 431 q 300 411 285 412 l 359 411 q 377 431 376 414 l 377 623 l 439 623 l 439 387 q 387 339 437 340 z "},"බ":{"ha":699,"x_min":30,"x_max":635,"o":"m 534 848 l 30 848 l 30 773 l 492 773 q 545 743 538 773 q 548 715 548 731 l 548 106 q 522 75 541 77 l 396 75 q 365 110 368 85 l 365 564 q 290 637 362 636 l 106 637 q 30 563 31 635 l 30 73 q 75 1 30 11 q 98 0 85 0 l 233 0 l 233 75 l 145 75 q 115 110 118 85 l 115 528 q 146 564 123 562 l 254 564 q 283 529 282 562 l 285 73 q 355 0 296 4 l 567 0 q 633 47 625 0 q 635 73 635 60 l 635 742 q 560 846 635 836 q 534 848 548 848 z "},"භ":{"ha":803,"x_min":-8,"x_max":743,"o":"m 30 69 q 65 3 30 14 q 95 0 79 0 l 384 0 q 469 41 456 0 q 475 81 475 58 l 475 339 q 426 391 473 389 l 389 391 l 423 562 q 475 601 434 600 l 618 601 q 658 562 655 593 l 658 122 q 637 77 658 83 q 617 75 629 75 l 525 75 l 525 0 l 658 0 q 736 37 723 0 q 743 87 743 56 l 743 589 q 681 673 743 662 q 652 674 667 674 l 445 674 q 349 605 363 673 l 296 331 l 366 331 q 391 301 389 328 l 391 114 q 366 76 391 80 q 351 75 359 75 l 141 75 q 115 107 115 77 l 115 353 q 167 410 118 408 l 263 410 l 263 585 q 193 671 263 658 q 165 674 179 674 l 30 674 l 30 602 l 142 602 q 190 559 189 600 l 190 481 l -8 481 l -8 411 l 58 411 q 30 355 31 393 l 30 69 z "},"ච":{"ha":731,"x_min":-8,"x_max":686,"o":"m 586 848 l 83 848 l 83 773 l 545 773 q 598 741 591 773 q 601 715 601 730 l 601 111 q 571 75 598 76 l 198 75 q 168 109 170 77 l 168 282 q 243 354 171 353 l 389 354 l 389 564 q 315 637 387 636 l 83 637 l 83 566 l 274 566 q 304 541 302 563 l 304 423 l -8 423 l -8 354 l 109 354 q 83 286 83 331 l 83 73 q 127 1 83 11 q 151 0 138 0 l 618 0 q 685 47 677 0 q 686 73 686 60 l 686 742 q 618 845 686 831 q 586 848 604 848 z "},"ඡ":{"ha":696,"x_min":30,"x_max":696,"o":"m 357 559 q 384 601 357 590 q 396 602 391 602 l 518 602 q 551 563 549 600 l 552 444 q 500 380 549 381 l 382 380 q 357 410 358 382 l 357 559 m 98 0 l 567 0 q 633 47 625 0 q 635 73 635 60 l 635 245 q 602 342 635 315 q 593 349 597 346 q 635 450 635 378 l 635 591 q 560 674 632 673 l 477 674 q 517 705 495 684 l 696 872 l 595 872 l 420 715 q 355 670 389 688 q 321 650 335 662 q 254 674 298 674 l 31 674 l 31 602 l 229 602 q 269 570 267 600 l 269 481 l 106 481 q 30 407 31 479 l 30 73 q 75 1 30 11 q 98 0 85 0 m 145 75 q 115 114 118 87 l 115 376 q 149 410 118 408 l 289 410 l 289 372 q 346 311 292 312 l 495 311 q 549 255 548 308 l 549 111 q 519 75 547 76 l 145 75 z "},"ද":{"ha":624,"x_min":30,"x_max":593,"o":"m 562 0 l 311 0 q 239 -41 254 0 q 236 -61 236 -52 l 236 -130 q 267 -159 239 -159 l 593 -159 l 593 -232 l 218 -232 q 148 -171 149 -229 l 148 -68 q 187 0 149 -18 l 90 0 q 30 53 35 0 q 30 68 30 61 l 30 403 q 109 480 33 479 l 471 480 l 471 568 q 439 602 468 601 l 30 602 l 30 674 l 484 674 q 556 602 555 671 l 556 408 l 155 408 q 115 369 118 400 l 115 110 q 145 75 118 76 l 562 75 l 562 0 z "},"ඩ":{"ha":697,"x_min":-8,"x_max":633,"o":"m -8 469 l -8 399 l 62 399 q 30 331 30 377 l 30 73 q 68 3 30 12 q 95 0 80 0 l 269 0 q 330 34 316 0 q 332 42 331 39 q 399 0 343 1 l 570 0 q 633 68 632 3 l 633 760 q 534 849 631 848 l 30 849 l 30 772 l 494 772 q 547 738 540 772 q 548 719 548 728 l 548 111 q 515 75 543 77 l 419 75 q 372 114 376 75 q 370 129 370 122 l 370 243 l 294 243 l 294 127 q 247 75 286 77 l 142 75 q 115 106 117 77 l 115 324 q 189 397 118 396 l 339 397 l 339 587 q 251 663 336 662 l 31 663 l 31 591 l 214 591 q 256 556 255 589 l 256 469 l -8 469 z "},"ඪ":{"ha":697,"x_min":-8,"x_max":635,"o":"m 368 783 l 507 783 q 548 742 544 770 l 548 637 l 397 637 q 369 650 373 637 q 368 667 368 656 l 368 783 m 635 534 l 635 758 q 589 844 635 830 q 544 849 570 849 l 206 849 l 206 784 l 288 784 l 288 643 q 323 582 288 590 q 350 579 335 579 l 548 579 l 548 111 q 515 75 543 77 l 419 75 q 372 114 376 75 q 370 129 370 122 l 370 205 l 294 205 l 294 127 q 247 75 286 77 l 142 75 q 115 106 117 77 l 115 240 q 189 313 118 312 l 339 313 l 339 492 q 251 568 336 567 l 31 568 l 31 499 l 222 499 q 266 465 264 496 l 266 380 l -8 380 l -8 315 l 62 315 q 30 247 30 293 l 30 73 q 68 3 30 12 q 95 0 80 0 l 269 0 q 330 34 316 0 q 332 42 331 39 q 399 0 343 1 l 570 0 q 633 68 632 3 l 633 534 l 635 534 z "},"ධ":{"ha":699,"x_min":30,"x_max":635,"o":"m 340 589 l 152 589 q 115 551 117 586 l 115 106 q 145 75 118 76 l 241 75 q 294 149 294 77 l 294 332 l 369 332 l 369 151 q 427 75 372 76 l 522 75 q 549 109 548 77 l 549 722 q 515 770 549 765 q 495 772 506 772 l 30 772 l 30 849 l 536 849 q 635 760 633 846 l 635 68 q 571 0 632 1 l 397 0 q 331 50 346 3 q 288 3 326 14 q 267 0 277 0 l 94 0 q 30 65 31 3 l 30 575 q 110 663 38 659 l 340 663 l 340 589 z "},"එ":{"ha":724,"x_min":5,"x_max":663,"o":"m 275 834 l 275 700 q 294 671 275 674 q 309 670 301 670 l 576 670 l 576 677 q 528 736 576 712 l 526 736 q 351 823 526 736 q 290 834 330 834 l 275 834 m 663 670 l 663 69 q 617 1 663 14 q 601 0 609 0 l 117 0 q 52 60 53 3 l 52 229 q 91 307 53 285 l 5 307 l 5 374 l 308 374 l 308 450 q 271 486 305 484 l 56 486 l 56 552 l 312 552 q 393 469 392 549 l 393 304 l 235 304 q 138 229 140 302 l 138 106 q 156 76 138 80 q 171 75 161 75 l 548 75 q 576 109 575 77 l 576 612 l 258 612 q 199 646 209 612 q 197 677 197 659 l 197 834 l 109 834 l 109 901 l 275 901 q 382 879 334 901 q 391 875 387 876 l 568 788 q 655 716 639 757 q 663 670 663 694 z "},"ඒ":{"ha":724,"x_min":5,"x_max":663,"o":"m 275 834 l 290 834 q 351 823 331 834 l 526 736 q 574 694 567 716 q 576 677 576 685 l 576 670 l 309 670 q 277 684 281 670 q 275 700 275 690 l 275 834 m 581 960 l 581 783 q 575 785 578 784 q 568 788 570 788 l 391 875 q 275 901 331 901 l 109 901 l 109 834 l 197 834 l 197 677 q 232 614 197 623 q 258 612 243 612 l 576 612 l 576 109 q 548 75 574 76 l 171 75 q 140 94 142 75 q 138 106 138 99 l 138 229 q 235 304 141 302 l 393 304 l 393 469 q 312 552 391 551 l 56 552 l 56 486 l 271 486 q 308 450 307 483 l 308 374 l 5 374 l 5 307 l 91 307 q 52 229 53 283 l 52 60 q 117 0 54 1 l 601 0 q 661 49 650 0 q 663 69 663 58 l 663 960 l 581 960 z "},"ෆ":{"ha":765,"x_min":30,"x_max":703,"o":"m 415 75 l 582 75 q 617 115 616 77 l 617 564 q 585 602 614 601 l 452 602 q 406 541 408 597 l 406 227 l 326 227 l 326 540 q 290 601 326 594 q 282 602 286 602 l 149 602 q 115 564 117 600 l 115 114 q 149 75 121 77 l 313 75 l 313 0 l 99 0 q 30 84 34 9 l 30 598 q 72 669 30 650 q 103 674 87 674 l 292 674 q 365 636 351 674 q 368 628 366 632 q 445 674 382 673 l 629 674 q 700 627 686 674 q 703 604 703 614 l 703 83 q 651 3 703 18 q 629 0 640 0 l 415 0 l 415 75 z "},"ග":{"ha":802,"x_min":30,"x_max":739,"o":"m 256 674 l 256 602 l 153 602 q 117 581 121 602 q 115 564 115 574 l 115 109 q 144 75 118 76 l 321 75 q 363 94 358 75 q 365 114 365 103 l 365 300 q 340 328 362 327 l 292 328 l 339 605 q 437 674 351 674 l 648 674 q 736 616 726 674 q 739 589 739 604 l 739 85 q 692 4 739 16 q 654 0 675 0 l 530 0 l 530 75 l 612 75 q 651 96 647 75 q 654 122 654 106 l 654 556 q 609 601 643 597 l 463 601 q 412 564 422 600 l 381 388 l 404 388 q 449 334 448 385 l 449 81 q 404 5 449 18 q 358 0 385 0 l 96 0 q 30 79 31 3 l 30 597 q 106 674 33 673 l 256 674 z "},"ඝ":{"ha":776,"x_min":-8,"x_max":701,"o":"m 445 0 l 633 0 q 700 47 692 0 q 701 73 701 60 l 701 403 q 623 480 699 479 l 468 480 l 468 567 q 510 602 471 601 l 700 602 l 700 674 l 483 674 q 395 598 396 671 l 395 408 l 585 408 q 616 381 614 406 l 616 106 q 590 75 613 76 l 471 75 q 437 111 439 85 l 437 133 q 460 167 438 151 q 492 198 490 191 q 495 213 495 205 l 495 273 q 460 309 491 307 l 269 309 q 233 273 236 305 l 233 213 q 254 179 233 195 q 269 167 266 168 q 293 133 292 145 l 293 111 q 269 76 293 79 q 258 75 263 75 l 141 75 q 115 106 117 77 l 115 335 q 189 408 118 407 l 339 408 l 339 598 q 251 674 336 673 l 31 674 l 31 602 l 222 602 q 266 567 264 600 l 266 480 l -8 480 l -8 410 l 62 410 q 30 342 30 388 l 30 73 q 75 1 30 11 q 98 0 85 0 l 283 0 q 347 38 330 0 q 353 65 353 52 l 353 145 q 324 187 351 167 q 297 228 298 217 l 297 250 q 313 262 300 262 l 416 262 q 433 250 431 259 l 433 228 q 415 195 431 209 q 406 187 411 191 q 376 145 377 164 l 376 65 q 422 4 376 18 q 445 0 433 0 z "},"හ":{"ha":802,"x_min":30,"x_max":739,"o":"m 115 109 q 144 75 121 76 l 331 75 q 372 94 366 75 q 373 114 373 102 l 373 300 q 350 328 370 327 l 300 328 l 347 605 q 445 674 359 674 l 648 674 q 736 616 726 674 q 739 589 739 604 l 739 87 q 693 4 739 16 q 654 0 677 0 l 530 0 l 530 75 l 614 75 q 652 99 648 75 q 654 119 654 107 l 654 556 q 609 601 643 597 l 472 601 q 422 564 429 600 l 389 388 l 414 388 q 458 334 457 385 l 458 81 q 411 4 458 16 q 368 0 393 0 l 95 0 q 31 53 37 0 q 30 69 30 61 l 30 404 q 104 480 33 479 l 184 480 l 184 556 q 152 601 184 597 q 138 602 145 602 l 30 602 l 30 674 l 164 674 q 256 585 255 671 l 256 408 l 153 408 q 117 387 121 408 q 115 370 115 380 l 115 109 z "},"්":{"ha":3,"x_min":-142,"x_max":-57,"o":"m -142 667 l -142 880 l -57 880 l -57 589 q -83 640 -75 629 q -126 667 -103 666 l -142 667 z "},"ඉ":{"ha":704,"x_min":30,"x_max":640,"o":"m 370 469 l 370 279 q 297 212 368 213 l 106 212 q 30 285 31 214 l 30 600 q 94 673 30 663 q 113 674 103 674 l 556 674 q 640 600 639 671 l 640 121 q 590 38 639 54 q 617 -26 617 20 l 617 -134 q 555 -214 617 -209 q 540 -216 547 -216 l 62 -216 l 62 -141 l 494 -141 q 529 -125 526 -141 q 530 -113 530 -118 l 530 -34 q 490 0 528 -1 l 64 0 l 64 75 l 481 75 q 549 102 540 75 q 553 127 553 113 l 553 567 q 517 602 548 601 l 157 602 q 115 568 117 600 l 115 320 q 133 286 115 290 q 153 283 142 283 l 262 283 q 289 319 286 293 l 289 469 l 370 469 z "},"ඊ":{"ha":612,"x_min":30,"x_max":545,"o":"m 30 65 q 92 0 39 4 l 471 0 q 544 61 538 0 q 545 83 545 71 l 545 594 q 463 674 543 673 l 197 674 l 449 899 l 340 899 l 85 675 q 30 583 31 628 l 30 65 m 115 545 q 164 602 118 601 l 415 602 q 460 574 454 602 q 461 553 461 564 l 461 115 q 444 76 461 80 q 426 75 437 75 l 160 75 q 118 88 123 75 q 115 119 115 98 l 115 545 m 77 899 l 168 899 l 168 810 l 77 810 l 77 899 m 433 812 l 524 812 l 524 723 l 433 723 l 433 812 z "},"ජ":{"ha":694,"x_min":30,"x_max":699,"o":"m 518 75 l 146 75 q 115 111 117 80 l 115 370 q 153 408 118 407 l 305 408 l 305 598 q 217 674 302 673 l 31 674 l 31 602 l 190 602 q 231 564 229 600 l 231 480 l 106 480 q 30 406 31 477 l 30 73 q 79 1 30 9 q 99 0 88 0 l 566 0 q 633 53 627 0 q 635 73 635 62 l 635 406 q 559 480 632 479 l 434 480 l 434 564 q 475 602 437 601 l 633 602 l 633 674 l 521 674 q 555 708 536 688 l 699 872 l 597 872 l 454 713 q 393 662 423 680 l 393 662 q 361 598 361 642 l 361 408 l 511 408 q 549 370 548 406 l 549 111 q 518 75 541 77 z "},"ඣ":{"ha":1242,"x_min":16,"x_max":1190,"o":"m 16 296 l 62 296 q 30 205 30 277 l 30 64 q 79 1 30 8 q 91 0 85 0 l 214 0 q 267 39 256 1 q 317 0 279 1 l 435 0 q 503 49 491 0 q 506 71 506 60 l 506 420 q 452 490 506 483 q 439 491 445 491 l 293 491 l 372 552 q 452 589 420 589 q 495 586 464 589 l 593 575 q 583 525 583 555 l 583 65 q 647 0 586 1 l 822 0 q 880 35 864 0 q 886 50 884 43 q 952 0 899 1 l 1126 0 q 1190 68 1188 3 l 1190 760 q 1090 849 1187 848 l 583 849 l 583 772 l 1048 772 q 1101 741 1095 772 q 1103 722 1103 731 l 1103 109 q 1076 75 1100 76 l 981 75 q 924 151 925 77 l 924 332 l 848 332 l 848 149 q 795 75 845 76 l 699 75 q 669 106 670 77 l 669 505 q 705 543 671 541 l 894 543 l 894 617 l 892 617 l 518 656 q 445 663 457 663 q 340 621 396 662 l 273 571 l 273 606 q 216 674 263 667 l 45 674 l 45 602 l 165 602 q 202 564 201 600 l 202 510 l 16 353 l 16 296 m 426 391 l 426 114 q 396 75 423 76 l 342 75 q 301 113 305 75 q 300 141 300 123 l 300 255 l 236 255 l 236 140 q 212 79 236 88 q 190 75 202 75 l 134 75 q 110 104 111 80 l 110 212 q 133 294 110 274 q 152 307 141 301 l 152 339 l 114 339 l 214 423 l 396 423 q 426 391 425 420 z "},"ඥ":{"ha":1367,"x_min":30,"x_max":1339,"o":"m 1308 0 l 1308 75 l 891 75 q 861 110 863 80 l 861 369 q 901 408 869 406 l 1302 408 l 1302 602 q 1230 674 1299 673 l 655 674 q 557 605 570 674 l 510 328 l 559 328 q 583 300 582 326 l 583 114 q 562 76 583 80 q 540 75 552 75 l 362 75 q 334 109 335 77 l 334 533 q 393 602 343 598 l 475 602 l 475 674 l 144 674 q 35 606 57 674 q 30 568 30 589 l 30 0 l 113 0 l 113 544 q 157 602 113 597 q 175 604 165 604 l 252 604 q 248 571 248 589 l 248 75 q 292 1 248 11 q 313 0 302 0 l 576 0 q 662 39 647 0 q 667 81 667 57 l 667 334 q 623 388 665 387 l 600 388 l 632 567 q 682 602 643 601 l 1185 602 q 1217 568 1215 600 l 1217 480 l 854 480 q 776 403 777 477 l 776 68 q 823 1 776 7 q 836 0 829 0 l 933 0 q 894 -68 894 -19 l 894 -171 q 964 -232 897 -231 l 1339 -232 l 1339 -159 l 1013 -159 q 982 -130 983 -156 l 982 -61 q 1034 -3 982 -14 q 1057 0 1046 0 l 1308 0 z "},"ක":{"ha":803,"x_min":16,"x_max":739,"o":"m 426 391 q 396 423 423 422 l 214 423 l 114 339 l 152 339 l 152 307 q 111 248 117 288 q 110 212 110 233 l 110 104 q 134 73 113 75 l 190 73 q 236 119 232 73 q 236 140 236 127 l 236 255 l 300 255 l 300 141 q 320 77 300 87 q 342 73 330 73 l 396 73 q 426 114 426 76 l 426 391 m 273 571 l 358 642 q 445 674 396 674 l 662 674 q 736 620 726 674 q 739 600 739 609 l 739 72 q 682 1 739 11 q 667 0 674 0 l 530 0 l 530 73 l 624 73 q 654 110 652 76 l 654 563 q 614 602 651 601 l 465 602 q 392 574 426 601 l 293 491 l 439 491 q 505 437 496 491 q 506 420 506 429 l 506 71 q 454 3 506 14 q 435 0 445 0 l 317 0 q 267 39 278 3 q 214 0 255 1 l 91 0 q 31 53 37 0 q 30 64 30 58 l 30 205 q 62 296 31 278 l 16 296 l 16 353 q 202 510 16 353 l 202 564 q 165 602 199 601 l 45 602 l 45 674 l 216 674 q 273 606 267 663 l 273 571 z "},"ඛ":{"ha":701,"x_min":30,"x_max":633,"o":"m 30 576 q 87 661 30 647 q 110 663 98 663 l 324 663 q 399 602 392 663 q 400 589 400 594 l 399 309 l 362 184 q 410 114 374 151 q 454 87 435 88 l 456 87 q 462 85 458 85 q 469 84 465 84 q 478 83 473 84 q 488 82 483 83 q 498 81 494 81 q 508 81 503 81 q 516 80 513 80 q 522 80 519 80 l 525 80 q 549 117 549 81 l 548 168 l 548 724 q 488 772 545 770 l 30 772 l 30 849 l 538 849 q 631 791 616 849 q 633 768 633 780 l 633 69 q 572 0 625 5 l 450 0 q 377 41 412 1 q 339 98 351 66 l 308 -7 l 233 -7 l 319 324 l 319 549 q 285 587 316 586 l 151 587 q 115 545 117 585 l 115 104 q 141 75 118 76 l 194 75 l 190 0 l 88 0 q 30 65 33 5 l 30 576 z "},"ල":{"ha":755,"x_min":30,"x_max":692,"o":"m 315 65 l 315 357 l 220 357 l 220 423 l 495 423 l 495 357 l 400 357 l 400 103 q 430 75 403 76 l 578 75 q 606 113 605 77 l 606 549 q 564 602 604 601 l 153 602 q 115 556 117 600 l 115 -80 q 146 -141 115 -133 q 172 -144 157 -144 l 692 -144 l 692 -221 l 125 -221 q 30 -123 31 -218 l 30 589 q 76 669 30 648 q 103 674 90 674 l 609 674 q 684 621 662 674 q 692 581 692 601 l 692 83 q 621 0 689 1 l 381 0 q 316 52 324 0 q 315 65 315 60 z "},"ළ":{"ha":750,"x_min":30,"x_max":689,"o":"m 115 339 q 151 392 117 382 l 151 133 q 213 72 151 80 q 231 71 222 71 l 686 71 l 686 149 l 245 149 q 205 187 206 152 l 205 393 l 689 393 l 689 604 q 610 674 688 673 l 454 674 q 406 646 422 673 q 359 674 392 673 l 195 674 q 122 598 123 671 l 122 458 q 38 403 60 457 q 30 362 30 382 l 30 -100 q 136 -206 33 -205 l 689 -206 l 689 -129 l 175 -129 q 115 -66 118 -121 l 115 339 m 604 461 l 442 461 l 442 571 q 472 605 445 604 l 574 605 q 604 572 602 602 l 604 461 m 205 461 l 205 571 q 235 605 208 604 l 340 605 q 368 571 366 602 l 368 461 l 205 461 z "},"ම":{"ha":699,"x_min":30,"x_max":635,"o":"m 534 848 l 30 848 l 30 773 l 492 773 q 545 743 538 773 q 548 715 548 731 l 548 114 q 514 75 545 76 l 145 75 q 115 113 117 77 l 115 222 l 343 222 q 412 283 407 222 q 414 301 414 292 l 414 568 q 334 637 411 636 l 113 637 q 33 579 45 637 q 30 559 30 570 l 30 77 q 102 0 33 1 l 559 0 q 635 80 633 3 l 635 742 q 560 846 635 836 q 534 848 548 848 m 115 529 q 149 564 118 563 l 298 564 q 331 533 330 562 l 331 327 q 305 296 328 297 l 115 296 l 115 529 z "},"ා":{"ha":315,"x_min":28,"x_max":264,"o":"m 28 674 l 209 674 q 264 617 263 671 l 264 52 q 209 0 262 1 l 28 0 l 28 75 l 156 75 q 179 100 178 77 l 179 579 q 156 602 176 601 l 28 602 l 28 674 z "},"ෑ":{"ha":336,"x_min":30,"x_max":282,"o":"m 30 674 l 282 674 l 282 605 l 133 487 l 282 487 l 282 423 l 146 298 q 115 240 118 273 q 115 224 115 232 l 115 100 q 122 76 115 77 q 138 75 129 75 l 282 73 l 282 0 l 71 0 q 30 49 30 0 l 30 229 q 64 320 33 289 l 178 420 l 30 420 l 30 483 l 176 602 l 30 602 l 30 674 z "},"ැ":{"ha":339,"x_min":30,"x_max":281,"o":"m 30 674 l 281 674 l 281 598 l 133 350 q 115 275 115 320 l 115 99 q 142 73 118 75 l 281 73 l 281 0 l 77 0 q 30 49 31 3 l 30 274 q 53 376 31 339 l 191 602 l 30 602 l 30 674 z "},"ෛ":{"ha":1021,"x_min":30,"x_max":971,"o":"m 449 674 l 102 674 q 31 620 41 674 q 30 604 30 612 l 30 62 q 92 0 33 1 l 387 0 q 456 66 450 9 l 456 372 q 384 439 453 438 l 235 439 l 235 369 l 334 369 q 368 345 365 369 q 369 331 369 338 l 369 104 q 338 75 366 76 l 142 75 q 115 104 117 77 l 115 564 q 142 601 115 598 q 155 602 149 602 l 449 602 l 449 674 m 964 674 l 617 674 q 547 620 556 674 q 545 604 545 612 l 545 62 q 608 0 548 1 l 902 0 q 971 66 966 9 l 971 372 q 899 439 968 438 l 750 439 l 750 369 l 849 369 q 883 345 880 369 q 884 331 884 338 l 884 104 q 853 75 882 76 l 658 75 q 631 104 632 77 l 631 564 q 658 601 631 598 q 670 602 665 602 l 964 602 l 964 674 z "},"ෞ":{"ha":1866,"x_min":30,"x_max":1717,"o":"m 449 674 l 102 674 q 31 620 41 674 q 30 604 30 612 l 30 62 q 92 0 33 1 l 387 0 q 456 66 450 9 l 456 372 q 384 439 453 438 l 235 439 l 235 369 l 334 369 q 368 345 365 369 q 369 331 369 338 l 369 104 q 338 75 366 76 l 142 75 q 115 104 117 77 l 115 564 q 142 601 115 598 q 155 602 149 602 l 449 602 l 449 674 m 1313 674 l 1313 391 q 1358 346 1316 347 l 1474 346 q 1535 393 1534 349 l 1535 572 q 1557 602 1538 601 l 1613 602 q 1634 575 1633 600 l 1634 106 q 1607 73 1632 75 l 1434 73 q 1404 104 1407 81 l 1404 210 l 1314 210 l 1314 64 q 1369 0 1320 4 l 1652 0 q 1716 46 1705 0 q 1717 62 1717 54 l 1717 618 q 1681 671 1717 658 q 1660 674 1670 674 l 1512 674 q 1468 616 1469 671 l 1468 446 q 1442 418 1462 419 l 1400 418 q 1378 433 1379 418 q 1377 445 1377 439 l 1377 674 l 1313 674 z "},"ෙ":{"ha":510,"x_min":30,"x_max":456,"o":"m 449 674 l 102 674 q 31 620 41 674 q 30 604 30 612 l 30 62 q 92 0 33 1 l 387 0 q 456 66 450 9 l 456 372 q 384 439 453 438 l 235 439 l 235 369 l 334 369 q 368 345 365 369 q 369 331 369 338 l 369 104 q 338 75 366 76 l 142 75 q 115 104 117 77 l 115 564 q 142 601 115 598 q 155 602 149 602 l 449 602 l 449 674 z "},"ේ":{"ha":1404,"x_min":30,"x_max":1283,"o":"m 449 674 l 102 674 q 31 620 41 674 q 30 604 30 612 l 30 62 q 92 0 33 1 l 387 0 q 456 66 450 9 l 456 372 q 384 439 453 438 l 235 439 l 235 369 l 334 369 q 368 345 365 369 q 369 331 369 338 l 369 104 q 338 75 366 76 l 142 75 q 115 104 117 77 l 115 564 q 142 601 115 598 q 155 602 149 602 l 449 602 l 449 674 m 1198 667 l 1198 880 l 1283 880 l 1283 589 q 1257 640 1265 629 q 1215 667 1237 666 l 1198 667 z "},"ි":{"ha":3,"x_min":-773,"x_max":-91,"o":"m -773 693 l -773 808 q -713 868 -770 867 l -146 868 q -91 810 -92 865 l -91 693 l -176 693 l -176 772 q -201 799 -179 798 l -665 799 q -688 773 -686 796 l -688 693 l -773 693 z "},"ී":{"ha":699,"x_min":-768,"x_max":-84,"o":"m -319 814 q -339 798 -339 814 l -339 769 q -321 751 -336 753 l -174 751 q -156 770 -157 754 l -156 795 q -179 814 -159 812 l -319 814 m -658 799 q -682 774 -682 799 l -682 693 l -768 693 l -768 808 q -707 868 -765 867 l -140 868 q -84 814 -85 865 l -84 746 q -125 705 -84 705 l -374 705 q -412 739 -410 712 l -412 788 q -410 799 -412 796 l -658 799 z "},"ෳ":{"ha":487,"x_min":27,"x_max":431,"o":"m 27 674 l 27 391 q 72 346 30 347 l 189 346 q 250 393 248 349 l 250 572 q 271 602 252 601 l 327 602 q 349 575 347 600 l 349 106 q 321 73 346 75 l 148 73 q 118 104 121 81 l 118 210 l 28 210 l 28 64 q 83 0 34 4 l 366 0 q 430 46 419 0 q 431 62 431 54 l 431 618 q 395 671 431 658 q 374 674 384 674 l 227 674 q 182 616 183 671 l 182 446 q 156 418 176 419 l 114 418 q 92 433 94 418 q 91 445 91 439 l 91 674 l 27 674 z "},"ෟ":{"ha":487,"x_min":27,"x_max":431,"o":"m 27 674 l 27 391 q 72 346 30 347 l 189 346 q 250 393 248 349 l 250 572 q 271 602 252 601 l 327 602 q 349 575 347 600 l 349 106 q 321 73 346 75 l 148 73 q 118 104 121 81 l 118 210 l 28 210 l 28 64 q 83 0 34 4 l 366 0 q 430 46 419 0 q 431 62 431 54 l 431 618 q 395 671 431 658 q 374 674 384 674 l 227 674 q 182 616 183 671 l 182 446 q 156 418 176 419 l 114 418 q 92 433 94 418 q 91 445 91 439 l 91 674 l 27 674 z "},"ො":{"ha":1443,"x_min":30,"x_max":1297,"o":"m 449 674 l 102 674 q 31 620 41 674 q 30 604 30 612 l 30 62 q 92 0 33 1 l 387 0 q 456 66 450 9 l 456 372 q 384 439 453 438 l 235 439 l 235 369 l 334 369 q 368 345 365 369 q 369 331 369 338 l 369 104 q 338 75 366 76 l 142 75 q 115 104 117 77 l 115 564 q 142 601 115 598 q 155 602 149 602 l 449 602 l 449 674 m 1061 674 l 1241 674 q 1297 617 1295 671 l 1297 52 q 1241 0 1294 1 l 1061 0 l 1061 75 l 1188 75 q 1211 100 1210 77 l 1211 579 q 1188 602 1208 601 l 1061 602 l 1061 674 z "},"ෝ":{"ha":1435,"x_min":30,"x_max":1297,"o":"m 449 674 l 102 674 q 31 620 41 674 q 30 604 30 612 l 30 62 q 92 0 33 1 l 387 0 q 456 66 450 9 l 456 372 q 384 439 453 438 l 235 439 l 235 369 l 334 369 q 368 345 365 369 q 369 331 369 338 l 369 104 q 338 75 366 76 l 142 75 q 115 104 117 77 l 115 564 q 142 601 115 598 q 155 602 149 602 l 449 602 l 449 674 m 1062 674 l 1062 602 l 1188 602 q 1211 579 1210 600 l 1211 100 q 1190 75 1208 76 l 1062 75 l 1062 0 l 1241 0 q 1297 52 1295 3 l 1297 880 l 1211 880 l 1211 674 l 1062 674 z "},"ෘ":{"ha":469,"x_min":30,"x_max":411,"o":"m 30 674 l 345 674 q 411 610 410 671 l 411 0 l 347 0 l 332 53 q 263 0 311 1 l 80 0 q 30 57 31 3 l 30 380 q 76 437 30 430 q 87 438 83 438 l 326 438 l 326 568 q 309 601 326 597 q 293 602 302 602 l 30 602 l 30 674 m 326 368 l 138 368 q 115 340 117 362 l 115 99 q 127 76 115 77 q 138 75 133 75 l 250 75 q 326 187 323 83 l 326 368 z "},"ෲ":{"ha":924,"x_min":30,"x_max":861,"o":"m 30 674 l 345 674 q 411 610 410 671 l 411 0 l 347 0 l 332 53 q 263 0 311 1 l 80 0 q 30 57 31 3 l 30 380 q 76 437 30 430 q 87 438 83 438 l 326 438 l 326 568 q 309 601 326 597 q 293 602 302 602 l 30 602 l 30 674 m 326 368 l 138 368 q 115 340 117 362 l 115 99 q 127 76 115 77 q 138 75 133 75 l 250 75 q 326 187 323 83 l 326 368 m 479 674 l 795 674 q 861 610 860 671 l 861 0 l 796 0 l 783 53 q 712 0 760 1 l 529 0 q 479 57 480 3 l 479 380 q 526 437 479 431 q 537 438 532 438 l 776 438 l 776 568 q 760 601 776 597 q 743 602 753 602 l 479 602 l 479 674 m 776 368 l 587 368 q 564 340 566 362 l 564 99 q 576 76 564 77 q 587 75 582 75 l 699 75 q 776 187 774 77 l 776 368 z "},"ු":{"ha":3,"x_min":-669,"x_max":-68,"o":"m -68 -216 l -669 -216 l -669 -142 l -153 -142 l -153 38 l -119 38 q -71 77 -85 38 q -68 88 -69 84 l -68 -216 z "},"ූ":{"ha":3,"x_min":-681,"x_max":-77,"o":"m -77 -216 l -155 -216 q -187 -182 -171 -193 q -244 -167 -209 -167 l -309 -167 q -372 -182 -334 -167 l -434 -208 q -530 -221 -473 -221 l -616 -221 q -681 -165 -680 -218 l -681 -39 l -598 -39 l -598 -127 q -575 -152 -595 -151 l -522 -152 q -437 -137 -476 -152 l -385 -117 q -312 -99 -346 -99 l -240 -99 q -179 -114 -203 -99 q -163 -126 -171 -119 l -163 39 l -119 39 q -81 77 -95 39 q -77 96 -79 87 l -77 -216 z "},"ඹ":{"ha":699,"x_min":30,"x_max":635,"o":"m 115 533 q 149 566 118 564 l 275 566 q 309 537 308 563 l 309 467 q 282 434 308 435 l 115 434 l 115 533 m 30 73 q 73 1 30 9 q 91 0 81 0 l 255 0 q 313 38 297 0 q 319 64 319 52 l 319 146 q 281 195 319 172 q 277 198 278 198 q 248 233 250 218 l 248 254 q 264 267 250 266 l 400 267 q 416 254 415 264 l 416 233 q 415 227 416 229 q 412 221 414 224 q 409 216 411 218 q 405 211 407 213 q 399 207 403 209 q 395 204 396 205 q 391 201 395 203 l 388 199 q 355 174 359 179 q 346 146 346 160 l 346 64 q 384 5 346 22 q 410 0 397 0 l 572 0 q 632 45 624 0 q 635 73 635 58 l 635 742 q 560 846 635 836 q 534 848 548 848 l 30 848 l 30 773 l 492 773 q 545 743 538 773 q 548 715 548 731 l 548 107 q 522 75 545 76 l 425 75 q 399 96 400 77 l 399 136 q 426 172 400 157 q 433 176 427 174 q 472 222 471 198 l 472 278 q 434 315 471 313 l 229 315 q 193 278 194 312 l 193 222 q 235 172 194 197 q 266 134 264 152 l 266 96 q 239 75 264 75 l 137 75 q 115 107 117 77 l 115 377 l 321 377 q 391 438 385 377 q 392 456 392 446 l 392 568 q 312 637 389 636 l 113 637 q 33 583 47 637 q 30 560 30 571 l 30 73 z "},"න":{"ha":802,"x_min":30,"x_max":739,"o":"m 404 0 q 490 41 476 0 q 495 81 495 58 l 495 370 q 444 435 495 430 q 430 435 437 435 l 327 435 l 441 564 q 517 601 480 598 l 612 601 q 654 560 652 598 l 654 122 q 635 77 654 83 q 616 75 627 75 l 530 75 l 530 0 l 654 0 q 734 41 720 0 q 739 90 739 60 l 739 589 q 677 673 739 662 q 648 674 663 674 l 483 674 q 381 617 431 674 q 369 602 377 612 l 311 534 l 311 593 q 255 671 311 662 q 227 674 241 674 l 30 674 l 30 602 l 202 602 q 240 562 237 594 l 240 453 l 142 339 q 122 327 129 327 q 111 331 115 328 l 111 463 l 30 463 l 30 69 q 65 3 30 14 q 95 0 79 0 l 404 0 m 163 248 l 267 368 l 380 368 q 410 336 408 365 l 410 117 q 393 77 410 83 q 370 75 384 75 l 144 75 q 115 104 118 85 l 115 232 q 130 229 125 229 q 163 248 146 231 z "},"ඳ":{"ha":842,"x_min":30,"x_max":812,"o":"m 781 0 l 781 75 l 365 75 q 335 110 336 80 l 335 369 q 374 408 343 406 l 776 408 l 776 602 q 704 674 773 673 l 144 674 q 35 606 57 674 q 30 568 30 589 l 30 0 l 113 0 l 113 547 q 157 605 113 600 q 175 606 165 606 l 250 606 l 250 602 l 659 602 q 690 568 689 600 l 690 480 l 328 480 q 250 403 251 477 l 250 68 q 297 1 250 7 q 309 0 302 0 l 407 0 q 368 -68 368 -19 l 368 -171 q 438 -232 370 -231 l 812 -232 l 812 -159 l 487 -159 q 456 -130 457 -156 l 456 -61 q 509 -1 456 -12 q 530 0 519 0 l 781 0 z "},"ඦ":{"ha":926,"x_min":30,"x_max":921,"o":"m 741 75 l 369 75 q 338 111 339 80 l 338 370 q 376 408 340 407 l 528 408 l 528 598 q 439 674 525 673 l 144 674 q 35 606 57 674 q 30 568 30 589 l 30 0 l 113 0 l 113 548 q 157 606 113 601 q 175 608 165 608 l 254 608 l 254 602 l 412 602 q 453 564 452 600 l 453 480 l 328 480 q 252 406 254 477 l 252 73 q 301 1 252 9 q 321 0 311 0 l 788 0 q 856 53 849 0 q 857 73 857 62 l 857 406 q 781 480 854 479 l 656 480 l 656 564 q 697 602 659 601 l 856 602 l 856 674 l 743 674 q 777 708 758 688 l 921 872 l 819 872 l 677 713 q 616 662 646 680 l 616 662 q 583 598 583 642 l 583 408 l 734 408 q 772 370 770 406 l 772 111 q 741 75 764 77 z "},"ඞ":{"ha":784,"x_min":22,"x_max":719,"o":"m 22 572 q 96 639 34 632 l 363 639 q 449 585 438 639 q 452 555 452 570 l 452 308 l 256 308 q 202 278 209 308 q 199 251 199 267 l 199 106 q 227 75 202 76 l 331 75 q 378 127 374 87 l 378 235 l 454 235 l 454 129 q 503 75 465 79 l 600 75 q 632 111 629 83 l 632 719 q 597 770 632 765 q 578 772 589 772 l 114 772 l 114 849 l 620 849 q 719 760 718 846 l 719 68 q 655 0 716 1 l 483 0 q 416 42 427 1 q 365 1 410 7 q 353 0 358 0 l 179 0 q 117 43 125 0 q 114 73 114 57 l 114 279 q 165 362 114 343 q 199 368 182 368 l 374 368 l 374 541 q 336 582 365 579 l 262 582 q 271 567 271 578 l 271 467 q 233 429 267 431 l 84 429 q 22 492 23 431 l 22 572 m 83 563 l 83 502 q 102 481 85 483 l 191 481 q 209 499 208 484 l 209 566 q 197 582 208 579 l 110 582 q 83 563 84 579 z "},"ණ":{"ha":1146,"x_min":30,"x_max":1086,"o":"m 471 75 l 218 75 q 186 109 189 75 q 184 141 184 119 q 153 195 183 191 l 202 262 l 378 262 l 378 326 l 248 326 l 453 604 l 461 604 q 513 557 502 604 q 515 541 515 548 l 515 130 q 471 75 513 76 m 155 387 l 155 566 q 195 604 157 602 l 359 604 l 164 340 q 155 387 155 354 m 515 674 l 505 674 l 623 836 l 532 836 l 411 674 l 155 674 q 73 601 75 671 l 73 363 q 113 273 75 301 l 30 161 l 30 66 l 88 133 q 114 107 111 133 q 115 94 115 100 q 152 3 115 15 q 174 0 161 0 l 503 0 q 601 102 600 3 l 601 541 q 637 601 601 591 q 650 602 643 602 l 711 602 q 757 534 755 600 l 757 245 l 837 245 l 837 534 q 872 600 837 587 q 886 602 879 602 l 962 602 q 1000 570 996 602 q 1001 552 1001 562 l 1001 113 q 981 76 1001 80 q 967 75 974 75 l 656 75 l 656 0 l 987 0 q 1086 88 1084 7 l 1086 595 q 1004 674 1084 673 l 878 674 q 799 629 819 673 q 734 674 783 673 l 652 674 q 579 633 600 673 q 515 674 557 673 z "},"ඬ":{"ha":947,"x_min":30,"x_max":882,"o":"m 240 469 l 240 399 l 311 399 q 278 331 278 377 l 278 73 q 316 3 278 12 q 343 0 328 0 l 517 0 q 578 33 562 0 q 581 42 579 38 q 647 0 591 1 l 818 0 q 882 68 880 3 l 882 760 q 783 849 879 848 l 278 849 l 278 772 l 742 772 q 795 738 788 772 q 796 719 796 728 l 796 111 q 764 75 791 77 l 667 75 q 618 111 624 75 q 617 129 617 119 l 617 243 l 543 243 l 543 127 q 495 75 534 77 l 391 75 q 363 106 365 77 l 363 324 q 437 397 366 396 l 586 397 l 586 587 q 498 663 583 662 l 144 663 q 35 595 57 663 q 30 557 30 578 l 30 0 l 113 0 l 113 537 q 160 597 113 591 q 175 598 167 598 l 279 598 l 279 591 l 461 591 q 505 556 503 589 l 505 469 l 240 469 z "},"ඟ":{"ha":1029,"x_min":30,"x_max":958,"o":"m 475 674 l 144 674 q 35 606 57 674 q 30 568 30 589 l 30 0 l 113 0 l 113 544 q 157 602 113 597 q 175 604 165 604 l 252 604 q 248 571 248 589 l 248 75 q 292 1 248 11 q 313 0 302 0 l 576 0 q 662 39 647 0 q 667 81 667 57 l 667 334 q 623 388 665 387 l 600 388 l 631 564 q 681 601 642 600 l 827 601 q 872 556 868 590 l 872 122 q 854 77 872 84 q 830 75 844 75 l 749 75 l 749 0 l 872 0 q 952 43 939 0 q 958 85 958 61 l 958 589 q 895 673 958 662 q 867 674 882 674 l 655 674 q 557 605 570 674 l 510 328 l 559 328 q 583 300 582 326 l 583 114 q 562 76 583 80 q 540 75 552 75 l 362 75 q 334 109 335 77 l 334 533 q 393 602 343 598 l 475 602 l 475 674 z "},"ඤ":{"ha":1374,"x_min":30,"x_max":1345,"o":"m 1314 0 l 1314 75 l 898 75 q 868 110 869 80 l 868 369 q 907 408 876 406 l 1309 408 l 1309 602 q 1237 674 1306 673 l 708 674 q 618 661 652 674 q 552 624 585 648 l 481 571 l 481 606 q 423 674 475 671 l 144 674 q 35 606 57 674 q 30 568 30 589 l 30 0 l 113 0 l 113 548 q 160 608 113 602 q 175 609 167 609 l 252 609 l 252 602 l 373 602 q 410 564 408 600 l 410 510 l 224 353 l 224 296 l 270 296 q 237 205 237 277 l 237 64 q 286 1 237 8 q 298 0 293 0 l 422 0 q 473 35 464 0 q 475 39 475 38 q 525 0 487 1 l 643 0 q 711 49 699 0 q 713 71 713 60 l 713 420 q 647 491 705 486 l 500 491 l 578 549 q 652 593 618 581 q 727 602 682 602 l 1192 602 q 1223 568 1222 600 l 1223 480 l 861 480 q 783 403 784 477 l 783 68 q 830 1 783 7 q 842 0 836 0 l 940 0 q 901 -68 901 -19 l 901 -171 q 971 -232 903 -231 l 1345 -232 l 1345 -159 l 1020 -159 q 989 -130 990 -156 l 989 -61 q 1042 -1 989 -12 q 1063 0 1053 0 l 1314 0 m 633 392 l 633 114 q 604 75 627 77 l 549 75 q 509 114 513 75 q 507 141 507 125 l 507 255 l 444 255 l 444 140 q 419 79 444 88 q 397 75 410 75 l 343 75 q 317 106 320 83 l 317 213 q 342 296 317 275 q 359 308 350 302 l 359 339 l 323 339 l 422 423 l 604 423 q 633 392 632 420 z "},"ඕ":{"ha":699,"x_min":19,"x_max":635,"o":"m 635 543 l 635 639 q 594 739 635 722 q 541 749 572 749 l 240 749 q 159 791 170 749 q 156 819 156 803 q 182 848 164 845 l 632 848 l 632 913 l 134 913 q 68 857 69 910 l 68 815 q 117 746 71 758 l 19 746 l 19 681 l 503 681 q 548 639 545 675 l 548 111 q 515 75 543 77 l 419 75 q 372 114 376 75 q 370 129 370 122 l 370 216 l 294 216 l 294 127 q 247 75 286 77 l 149 75 q 117 95 121 75 q 115 111 115 102 l 115 471 q 145 506 118 505 l 208 506 q 221 491 220 503 l 221 342 q 269 301 224 302 l 387 301 q 439 349 438 304 l 439 579 l 377 579 l 377 388 q 359 366 374 368 l 300 366 q 282 388 283 369 l 282 532 q 227 579 279 578 l 110 579 q 30 491 35 567 l 30 65 q 94 0 33 1 l 269 0 q 330 34 316 0 q 332 42 331 39 q 399 0 343 1 l 570 0 q 633 68 632 3 l 633 543 l 635 543 z "},"ඔ":{"ha":699,"x_min":30,"x_max":633,"o":"m 387 339 l 269 339 q 221 380 222 342 l 221 533 q 206 549 218 548 l 146 549 q 115 511 117 547 l 115 111 q 136 76 115 79 q 149 75 142 75 l 247 75 q 294 127 290 87 l 294 248 l 370 248 l 370 129 q 419 75 381 79 l 515 75 q 548 111 545 83 l 548 719 q 513 770 548 765 q 494 772 505 772 l 30 772 l 30 849 l 534 849 q 633 760 632 846 l 633 68 q 570 0 631 1 l 399 0 q 332 42 343 1 q 281 1 326 7 q 269 0 274 0 l 94 0 q 30 65 31 3 l 30 534 q 110 623 33 621 l 227 623 q 282 575 281 620 l 282 431 q 300 411 285 412 l 359 411 q 377 431 376 414 l 377 623 l 439 623 l 439 387 q 387 339 437 340 z "},"ප":{"ha":692,"x_min":30,"x_max":635,"o":"m 30 73 l 30 406 q 106 480 33 479 l 231 480 l 231 564 q 190 602 228 601 l 31 602 l 31 674 l 217 674 q 305 598 304 671 l 305 408 l 153 408 q 115 370 117 406 l 115 111 q 146 75 118 76 l 518 75 q 549 111 547 84 l 549 370 q 511 408 544 407 l 361 408 l 361 598 q 449 674 363 673 l 633 674 l 633 602 l 475 602 q 434 564 435 600 l 434 480 l 559 480 q 635 406 633 477 l 635 73 q 586 1 635 9 q 566 0 576 0 l 99 0 q 31 53 38 0 q 30 73 30 62 z "},"ඵ":{"ha":697,"x_min":30,"x_max":635,"o":"m 369 783 l 509 783 q 547 757 544 783 q 548 742 548 750 l 548 637 l 399 637 q 370 650 374 637 q 369 667 369 656 l 369 783 m 98 0 l 566 0 q 633 53 627 0 q 635 73 635 62 l 635 758 q 591 844 635 830 q 545 849 572 849 l 208 849 l 208 784 l 289 784 l 289 643 q 326 582 289 589 q 350 579 336 579 l 549 579 l 549 110 q 521 75 547 76 l 141 75 q 115 107 115 77 l 115 290 q 151 326 118 324 l 336 326 l 336 487 q 263 560 334 559 l 30 560 l 30 491 l 221 491 q 251 467 250 488 l 251 389 l 106 389 q 30 315 31 387 l 30 73 q 75 1 30 11 q 98 0 85 0 z "},"ර":{"ha":618,"x_min":30,"x_max":551,"o":"m 30 581 q 85 675 31 631 l 357 891 l 479 891 l 209 674 l 468 674 q 551 594 549 671 l 551 77 q 480 0 548 1 l 91 0 q 30 65 31 3 l 30 581 m 115 545 l 115 123 q 132 77 115 84 q 160 75 141 75 l 431 75 q 464 94 460 75 q 467 117 467 103 l 467 552 q 433 601 467 597 q 420 602 426 602 l 165 602 q 115 545 117 600 z "},"ස":{"ha":766,"x_min":-8,"x_max":701,"o":"m 30 342 l 30 73 q 75 1 30 11 q 98 0 85 0 l 296 0 q 359 34 336 0 q 366 52 363 43 q 419 3 376 14 q 437 0 429 0 l 633 0 q 700 47 692 0 q 701 73 701 60 l 701 403 q 623 480 699 479 l 468 480 l 468 567 q 511 602 471 601 l 700 602 l 700 674 l 483 674 q 395 598 396 671 l 395 408 l 585 408 q 616 381 614 406 l 616 106 q 590 75 613 76 l 463 75 q 407 142 408 77 l 407 235 l 326 235 l 326 142 q 270 75 323 76 l 141 75 q 115 106 117 77 l 115 335 q 189 408 118 407 l 339 408 l 339 598 q 251 674 336 673 l 31 674 l 31 602 l 221 602 q 264 567 263 600 l 264 480 l -8 480 l -8 410 l 62 410 q 30 342 30 388 z "},"ශ":{"ha":803,"x_min":30,"x_max":739,"o":"m 609 69 l 500 69 l 500 0 l 654 0 q 734 43 720 0 q 739 85 739 61 l 739 589 q 677 673 739 662 q 648 674 663 674 l 427 674 q 330 605 342 674 l 282 328 l 332 328 q 355 300 354 326 l 355 114 q 335 76 355 81 q 313 75 326 75 l 144 75 q 115 109 117 77 l 115 564 q 137 601 115 597 q 153 602 145 602 l 254 602 l 254 674 l 106 674 q 30 597 31 671 l 30 79 q 96 0 33 1 l 350 0 q 435 41 422 0 q 441 81 441 58 l 441 334 q 396 388 438 387 l 372 388 l 404 564 q 454 601 414 600 l 610 601 q 655 556 654 595 l 655 426 l 560 426 q 500 372 502 423 l 500 210 q 609 69 502 103 m 658 363 l 658 104 q 557 209 559 132 l 557 346 q 571 363 560 362 l 658 363 z "},"ෂ":{"ha":692,"x_min":30,"x_max":635,"o":"m 30 73 q 79 1 30 9 q 99 0 88 0 l 566 0 q 633 53 627 0 q 635 73 635 62 l 635 403 q 591 473 633 458 l 614 495 q 635 545 635 517 l 635 604 q 583 673 635 665 q 572 674 578 674 l 434 674 q 346 598 347 671 l 346 408 l 438 408 l 302 289 q 278 216 278 264 l 278 152 l 359 152 l 359 208 q 378 269 359 248 q 382 274 381 273 l 529 406 q 549 370 548 399 l 549 111 q 518 75 541 77 l 146 75 q 115 111 117 80 l 115 370 q 153 408 118 407 l 292 408 l 292 598 q 203 674 289 673 l 31 674 l 31 602 l 176 602 q 217 564 216 600 l 217 480 l 106 480 q 30 406 31 477 l 30 73 m 419 477 l 419 564 q 460 602 422 601 l 538 602 q 566 572 563 602 q 566 559 566 566 q 541 507 564 529 l 510 477 l 419 477 z "},"ත":{"ha":803,"x_min":16,"x_max":739,"o":"m 410 391 q 380 423 407 422 l 214 423 l 114 339 l 156 339 l 157 307 q 117 248 122 288 q 115 212 115 233 l 115 104 q 140 73 119 75 l 380 73 q 410 114 410 76 l 410 391 m 273 571 l 358 642 q 445 674 396 674 l 662 674 q 736 620 726 674 q 739 600 739 609 l 739 72 q 682 1 739 11 q 667 0 674 0 l 530 0 l 530 73 l 624 73 q 654 110 652 76 l 654 563 q 614 602 651 601 l 465 602 q 392 574 426 601 l 293 491 l 429 491 q 494 437 486 491 q 495 420 495 429 l 495 71 q 446 3 495 16 q 425 0 435 0 l 91 0 q 31 53 37 0 q 30 64 30 58 l 30 205 q 62 296 31 278 l 16 296 l 16 353 q 202 510 16 353 l 202 564 q 165 602 199 601 l 45 602 l 45 674 l 216 674 q 273 606 267 663 l 273 571 z "},"ථ":{"ha":696,"x_min":30,"x_max":635,"o":"m 369 783 l 509 783 q 547 757 544 783 q 548 742 548 750 l 548 637 l 399 637 q 370 650 374 637 q 369 667 369 656 l 369 783 m 290 461 l 290 534 l 106 534 q 30 460 31 532 l 30 73 q 75 1 30 11 q 98 0 85 0 l 566 0 q 633 53 627 0 q 635 73 635 62 l 635 758 q 591 844 635 830 q 545 849 572 849 l 208 849 l 208 784 l 289 784 l 289 643 q 326 582 289 589 q 350 579 336 579 l 549 579 l 549 110 q 521 75 547 76 l 141 75 q 115 107 115 77 l 115 426 q 151 461 118 460 l 290 461 z "},"ට":{"ha":699,"x_min":30,"x_max":635,"o":"m 331 543 l 331 616 l 106 616 q 30 541 31 613 l 30 73 q 75 1 30 11 q 98 0 85 0 l 564 0 q 633 54 627 0 q 635 73 635 64 l 635 742 q 560 846 635 836 q 534 848 548 848 l 30 848 l 30 773 l 492 773 q 545 743 538 773 q 548 715 548 731 l 548 110 q 519 75 545 76 l 141 75 q 115 107 115 77 l 115 507 q 151 543 118 541 l 331 543 z "},"ඨ":{"ha":699,"x_min":30,"x_max":635,"o":"m 369 783 l 509 783 q 549 742 545 770 l 549 637 l 399 637 q 370 650 374 637 q 369 667 369 656 l 369 783 m 267 0 q 327 37 311 0 q 331 50 330 43 q 397 0 347 1 l 571 0 q 635 68 633 3 l 635 758 q 591 844 635 830 q 545 849 572 849 l 208 849 l 208 784 l 289 784 l 289 643 q 326 582 289 589 q 350 579 336 579 l 549 579 l 549 109 q 522 75 547 76 l 426 75 q 369 151 370 77 l 369 281 l 294 281 l 294 149 q 241 75 292 76 l 145 75 q 115 106 117 77 l 115 382 q 152 420 118 419 l 340 420 l 340 495 l 110 495 q 30 407 31 492 l 30 65 q 94 0 33 1 l 267 0 z "},"උ":{"ha":707,"x_min":30,"x_max":652,"o":"m 126 674 l 560 674 q 648 594 647 671 l 648 408 l 174 408 q 119 384 127 408 q 115 355 115 373 l 115 -77 q 134 -130 115 -123 q 157 -133 144 -133 l 533 -133 q 567 -96 567 -130 l 567 133 l 652 133 l 652 -125 q 600 -205 652 -195 q 572 -208 586 -208 l 103 -208 q 30 -117 31 -205 l 30 382 q 130 480 33 479 l 563 480 l 563 566 q 526 602 560 601 l 126 602 l 126 674 z "},"ඌ":{"ha":1206,"x_min":30,"x_max":1169,"o":"m 126 674 l 560 674 q 648 594 647 671 l 648 408 l 174 408 q 119 384 127 408 q 115 355 115 373 l 115 -77 q 134 -130 115 -123 q 157 -133 144 -133 l 533 -133 q 567 -96 567 -130 l 567 133 l 652 133 l 652 -125 q 600 -205 652 -195 q 572 -208 586 -208 l 103 -208 q 30 -117 31 -205 l 30 382 q 130 480 33 479 l 563 480 l 563 566 q 526 602 560 601 l 126 602 l 126 674 m 766 674 l 766 391 q 811 346 769 347 l 926 346 q 987 393 986 349 l 987 572 q 1010 602 990 601 l 1065 602 q 1088 575 1086 600 l 1088 106 q 1061 73 1085 75 l 886 73 q 857 104 860 84 l 857 210 l 768 210 l 768 64 q 822 0 773 4 l 1104 0 q 1168 49 1160 0 q 1169 62 1169 56 l 1169 618 q 1133 671 1169 658 q 1112 674 1123 674 l 966 674 q 920 616 921 671 l 920 446 q 895 418 916 419 l 853 418 q 831 433 833 418 q 830 445 830 439 l 830 674 l 766 674 z "},"ව":{"ha":697,"x_min":30,"x_max":635,"o":"m 534 848 l 30 848 l 30 773 l 492 773 q 545 743 538 773 q 548 715 548 731 l 548 110 q 519 75 545 76 l 141 75 q 115 107 115 77 l 115 366 q 151 401 118 400 l 336 401 l 336 590 q 263 663 334 662 l 30 663 l 30 591 l 221 591 q 251 566 250 589 l 251 469 l 106 469 q 30 395 31 467 l 30 73 q 75 1 30 11 q 98 0 85 0 l 564 0 q 633 54 627 0 q 635 73 635 64 l 635 742 q 560 846 635 836 q 534 848 548 848 z "},"ය":{"ha":766,"x_min":30,"x_max":701,"o":"m 298 674 l 298 602 l 148 602 q 115 562 117 600 l 115 104 q 141 75 118 76 l 270 75 q 326 142 324 77 l 326 235 l 407 235 l 407 142 q 463 75 410 76 l 590 75 q 616 106 614 77 l 616 381 q 585 408 613 407 l 365 408 l 365 595 q 453 674 368 673 l 700 674 l 700 602 l 488 602 q 446 567 448 600 l 446 480 l 623 480 q 701 403 700 477 l 701 73 q 656 1 701 11 q 633 0 646 0 l 437 0 q 373 34 396 0 q 366 52 369 43 q 313 3 357 14 q 296 0 304 0 l 98 0 q 31 47 39 0 q 30 73 30 58 l 30 594 q 106 674 33 673 l 298 674 z "},"෴":{"ha":2493,"x_min":62,"x_max":2435,"o":"m 190 264 l 231 190 l 172 155 l 210 88 q 250 87 221 71 l 446 203 q 519 205 491 227 q 547 183 519 205 l 647 334 q 667 332 658 346 l 720 262 l 846 434 q 872 429 863 448 l 937 326 l 1069 502 q 1092 502 1082 517 q 1095 496 1093 499 l 1164 339 l 1312 529 q 1333 529 1325 543 q 1336 524 1336 526 l 1393 320 l 1539 460 q 1564 453 1560 473 q 1565 446 1565 449 l 1598 270 l 1740 387 q 1763 377 1759 397 q 1765 370 1765 373 l 1794 210 l 1911 304 q 1933 297 1930 313 q 1933 290 1933 293 l 1950 189 q 1961 194 1952 189 q 1973 199 1972 199 q 2051 198 2014 220 l 2243 84 q 2287 84 2276 66 l 2325 153 l 2268 190 l 2308 263 l 2417 194 q 2422 160 2433 184 q 2421 156 2421 157 l 2349 22 q 2260 0 2322 -20 q 2250 4 2254 3 l 2048 119 q 1973 123 2009 141 l 1872 73 l 1860 193 l 1708 84 l 1689 266 l 1533 141 l 1492 327 l 1333 180 l 1280 382 l 1127 203 l 1055 372 l 909 187 l 834 315 l 704 145 l 651 212 l 566 91 l 506 137 q 449 130 484 152 l 236 7 q 157 12 187 -22 q 149 24 152 19 l 76 157 q 83 198 64 184 l 190 264 z "},"ඏ":{"ha":1176,"x_min":30,"x_max":1116,"o":"m 270 73 q 319 1 270 9 q 339 0 328 0 l 806 0 q 873 53 867 0 q 875 73 875 62 l 875 406 q 799 480 872 479 l 674 480 l 674 564 q 715 602 677 601 l 873 602 l 873 674 l 830 674 l 830 715 q 854 750 830 747 q 871 751 863 751 l 986 751 q 1042 697 1036 743 l 1042 273 q 1008 286 1031 285 l 948 286 q 882 220 883 283 l 882 76 q 933 20 882 28 q 948 19 941 19 l 1043 19 q 1116 106 1115 22 l 1116 715 q 1055 808 1116 785 q 1009 815 1034 815 l 849 815 q 761 765 773 815 q 758 730 758 750 l 758 674 l 689 674 q 601 598 602 671 l 601 408 l 751 408 q 789 370 788 406 l 789 111 q 758 75 781 77 l 387 75 q 355 111 357 80 l 355 370 q 393 408 358 407 l 545 408 l 545 598 q 457 674 543 673 l 388 674 l 388 730 q 346 808 388 795 q 297 815 326 815 l 137 815 q 34 747 54 815 q 30 715 30 731 l 30 106 q 103 19 33 20 l 199 19 q 264 62 255 19 q 266 76 266 69 l 266 220 q 199 286 263 285 l 138 286 q 104 273 114 286 l 104 697 q 160 751 110 747 l 277 751 q 315 728 311 751 q 316 715 316 722 l 316 674 l 271 674 l 271 602 l 430 602 q 471 564 469 600 l 471 480 l 346 480 q 270 406 271 477 l 270 73 m 1043 184 l 1043 121 q 1015 83 1039 84 l 959 83 q 937 100 937 84 l 937 201 q 962 225 940 224 l 1001 225 q 1043 184 1039 218 m 103 184 q 146 225 111 221 l 186 225 q 209 201 208 222 l 209 100 q 189 83 206 84 l 133 83 q 103 121 106 91 l 103 184 z "},"ඐ":{"ha":1652,"x_min":30,"x_max":1587,"o":"m 1043 184 l 1043 121 q 1015 83 1039 84 l 959 83 q 937 100 937 84 l 937 201 q 962 225 940 224 l 1001 225 q 1043 184 1039 218 m 103 184 q 146 225 111 221 l 186 225 q 209 201 208 222 l 209 100 q 189 83 206 84 l 133 83 q 103 121 106 91 l 103 184 m 270 73 q 319 1 270 9 q 339 0 328 0 l 806 0 q 873 53 867 0 q 875 73 875 62 l 875 406 q 799 480 872 479 l 674 480 l 674 564 q 715 602 677 601 l 873 602 l 873 674 l 830 674 l 830 715 q 854 750 830 747 q 871 751 863 751 l 986 751 q 1042 697 1036 743 l 1042 273 q 1008 286 1031 285 l 948 286 q 882 220 883 283 l 882 76 q 933 20 882 28 q 948 19 941 19 l 1043 19 q 1116 106 1115 22 l 1116 715 q 1055 808 1116 785 q 1009 815 1034 815 l 849 815 q 761 765 773 815 q 758 730 758 750 l 758 674 l 689 674 q 601 598 602 671 l 601 408 l 751 408 q 789 370 788 406 l 789 111 q 758 75 781 77 l 387 75 q 355 111 357 80 l 355 370 q 393 408 358 407 l 545 408 l 545 598 q 457 674 543 673 l 388 674 l 388 730 q 346 808 388 795 q 297 815 326 815 l 137 815 q 34 747 54 815 q 30 715 30 731 l 30 106 q 103 19 33 20 l 199 19 q 264 62 255 19 q 266 76 266 69 l 266 220 q 199 286 263 285 l 138 286 q 104 273 114 286 l 104 697 q 160 751 110 747 l 277 751 q 315 728 311 751 q 316 715 316 722 l 316 674 l 271 674 l 271 602 l 430 602 q 471 564 469 600 l 471 480 l 346 480 q 270 406 271 477 l 270 73 m 1191 674 l 1191 391 q 1236 346 1194 347 l 1341 346 q 1398 393 1397 349 l 1398 574 q 1421 602 1401 601 l 1478 602 q 1500 575 1499 600 l 1500 106 q 1473 75 1497 76 l 1306 75 q 1276 104 1279 84 l 1276 210 l 1191 210 l 1191 64 q 1245 0 1199 5 l 1522 0 q 1586 46 1575 0 q 1587 62 1587 54 l 1587 618 q 1550 671 1587 658 q 1530 674 1539 674 l 1396 674 q 1347 616 1348 671 l 1347 446 q 1321 419 1340 420 l 1278 419 q 1256 431 1259 419 q 1255 446 1255 438 l 1255 674 l 1191 674 z "},"ඍ":{"ha":1232,"x_min":30,"x_max":1177,"o":"m 795 674 l 795 602 l 1059 602 q 1090 585 1088 602 q 1092 568 1092 578 l 1092 438 l 853 438 q 796 393 803 438 q 795 380 795 387 l 795 57 q 845 0 798 1 l 1028 0 q 1099 53 1077 1 l 1112 0 l 1177 0 l 1177 610 q 1111 674 1175 673 l 795 674 m 1092 368 l 1092 187 q 1015 75 1090 76 l 905 75 q 883 88 884 75 q 882 99 882 94 l 882 340 q 903 368 886 366 l 1092 368 m 366 52 q 416 3 374 15 q 437 0 427 0 l 633 0 q 700 47 692 0 q 701 73 701 60 l 701 403 q 623 480 699 479 l 468 480 l 468 567 q 510 602 471 601 l 700 602 l 700 674 l 483 674 q 395 598 396 671 l 395 408 l 585 408 q 616 381 614 406 l 616 106 q 590 75 613 76 l 463 75 q 407 142 408 77 l 407 235 l 326 235 l 326 142 q 270 75 323 76 l 141 75 q 115 106 117 77 l 115 381 q 146 408 118 407 l 336 408 l 336 598 q 248 674 334 673 l 31 674 l 31 602 l 221 602 q 263 567 262 600 l 263 480 l 109 480 q 30 403 31 477 l 30 73 q 75 1 30 11 q 98 0 85 0 l 296 0 q 359 34 336 0 q 366 52 363 43 z "},"ඎ":{"ha":1686,"x_min":30,"x_max":1621,"o":"m 1238 673 l 1238 601 l 1503 601 q 1534 583 1531 601 q 1535 567 1535 576 l 1535 437 l 1297 437 q 1238 378 1241 431 l 1238 56 q 1289 -1 1241 0 l 1472 -1 q 1542 52 1520 0 l 1556 -1 l 1621 -1 l 1621 609 q 1554 673 1618 671 l 1238 673 m 1535 366 l 1535 186 q 1458 73 1534 75 l 1347 73 q 1324 98 1325 81 l 1324 339 q 1347 366 1331 365 l 1535 366 m 789 673 l 789 601 l 1053 601 q 1084 583 1081 601 q 1085 567 1085 576 l 1085 437 l 846 437 q 789 378 795 429 l 789 56 q 840 -1 792 0 l 1023 -1 q 1092 52 1072 0 l 1107 -1 l 1171 -1 l 1171 609 q 1104 673 1168 671 l 789 673 m 1085 366 l 1085 186 q 1008 73 1077 79 l 898 73 q 875 98 876 81 l 875 339 q 898 366 882 365 l 1085 366 m 366 52 q 416 3 374 15 q 437 0 427 0 l 633 0 q 700 47 692 0 q 701 73 701 60 l 701 403 q 623 480 699 479 l 468 480 l 468 567 q 510 602 471 601 l 700 602 l 700 674 l 483 674 q 395 598 396 671 l 395 408 l 585 408 q 616 381 614 406 l 616 106 q 590 75 613 76 l 463 75 q 407 142 408 77 l 407 235 l 326 235 l 326 142 q 270 75 323 76 l 141 75 q 115 106 117 77 l 115 381 q 146 408 118 407 l 336 408 l 336 598 q 248 674 334 673 l 31 674 l 31 602 l 221 602 q 263 567 262 600 l 263 480 l 109 480 q 30 403 31 477 l 30 73 q 75 1 30 11 q 98 0 85 0 l 296 0 q 359 34 336 0 q 366 52 363 43 z "},"/":{"ha":563,"x_min":23,"x_max":551,"o":"m 454 916 l 23 -130 l 122 -130 l 551 916 l 454 916 z "}," ":{"ha":271,"x_min":0,"x_max":0,"o":""},"£":{"ha":582,"x_min":57,"x_max":538,"o":"m 538 0 l 538 91 l 218 91 q 245 148 245 106 l 245 380 l 481 380 l 481 460 l 245 460 l 245 711 q 258 723 248 722 l 529 723 l 529 817 l 309 817 q 149 730 176 817 q 141 666 141 701 l 141 460 l 57 460 l 57 380 l 141 380 l 141 106 q 127 91 138 92 l 57 91 l 57 0 l 538 0 z "},"∑":{"ha":595,"x_min":30,"x_max":552,"o":"m 30 0 l 552 0 l 552 91 l 152 91 l 374 446 l 170 770 l 552 770 l 552 861 l 42 861 l 42 787 l 263 444 l 30 75 l 30 0 z "},"t":{"ha":377,"x_min":31,"x_max":373,"o":"m 373 665 l 214 665 l 214 834 l 114 834 l 114 665 l 31 665 l 31 586 l 114 586 l 114 146 q 190 12 114 38 q 278 0 225 0 l 373 0 l 373 84 l 227 84 q 214 96 214 84 l 214 586 l 373 586 l 373 665 z "},"ť":{"ha":387,"x_min":31,"x_max":389,"o":"m 373 665 l 214 665 l 214 834 l 114 834 l 114 665 l 31 665 l 31 586 l 114 586 l 114 146 q 190 12 114 38 q 278 0 225 0 l 373 0 l 373 84 l 227 84 q 214 96 214 84 l 214 586 l 373 586 l 373 665 m 293 823 l 327 823 q 294 730 321 772 l 327 704 q 389 841 388 768 l 389 943 l 293 943 l 293 823 z "},"þ":{"ha":598,"x_min":80,"x_max":534,"o":"m 180 -258 l 180 -1 l 378 -4 q 519 56 491 -4 q 534 137 534 87 l 534 537 q 463 665 534 642 q 387 674 433 674 l 289 674 q 180 612 201 673 l 180 916 l 80 916 l 80 -258 l 180 -258 m 180 579 q 193 591 180 591 l 422 591 q 434 579 433 589 l 434 91 q 422 79 431 80 l 180 81 l 180 579 z "},"¾":{"ha":1070,"x_min":34,"x_max":1020,"o":"m 369 438 l 369 530 q 323 610 368 591 q 366 686 365 632 l 366 765 q 256 865 363 867 l 38 861 l 38 792 l 267 792 q 279 783 278 789 l 279 654 q 267 644 277 646 l 83 644 l 83 576 l 273 576 q 283 566 282 574 l 283 418 q 273 407 281 408 l 34 407 l 34 338 l 258 336 q 369 438 368 336 m 735 871 l 267 -9 l 354 -9 l 821 871 l 735 871 m 944 0 l 944 118 l 1020 118 l 1020 186 l 944 186 l 944 525 l 849 526 q 773 496 796 526 q 750 460 766 486 l 586 174 l 586 118 l 859 118 l 859 0 l 944 0 m 826 449 q 837 456 831 456 l 859 456 l 859 186 l 673 186 l 826 449 z "},"³":{"ha":465,"x_min":34,"x_max":369,"o":"m 369 438 l 369 530 q 323 610 368 591 q 366 686 365 632 l 366 765 q 256 865 363 867 l 38 861 l 38 792 l 267 792 q 279 783 278 789 l 279 654 q 267 644 277 646 l 83 644 l 83 576 l 273 576 q 283 566 282 574 l 283 418 q 273 407 281 408 l 34 407 l 34 338 l 258 336 q 369 438 368 336 z "},"˜":{"ha":499,"x_min":66,"x_max":426,"o":"m 137 785 q 170 837 138 836 q 255 808 187 837 q 338 787 305 787 q 423 869 411 787 q 426 911 426 890 l 355 911 q 328 863 355 867 q 319 861 323 861 q 233 890 298 861 q 149 911 183 911 q 71 844 85 911 q 66 785 66 818 l 137 785 z "},"™":{"ha":887,"x_min":23,"x_max":819,"o":"m 772 871 l 741 871 l 598 595 l 475 838 q 429 871 452 868 l 378 871 l 378 332 l 457 332 l 457 722 l 570 502 l 617 502 l 735 727 l 735 332 l 819 332 l 819 823 q 772 871 817 869 m 229 332 l 229 803 l 347 803 l 347 871 l 23 871 l 23 803 l 144 803 l 144 332 l 229 332 z "},"²":{"ha":441,"x_min":53,"x_max":387,"o":"m 53 502 l 53 338 l 384 338 l 384 407 l 140 407 l 140 494 q 155 522 141 515 l 321 600 q 382 655 373 625 q 387 684 387 667 l 387 765 q 283 865 387 865 q 281 865 282 865 l 66 861 l 66 792 l 288 792 q 300 783 298 789 l 300 686 q 289 673 300 678 l 288 671 l 118 591 q 61 549 71 568 q 53 502 53 532 z "},"u":{"ha":601,"x_min":68,"x_max":524,"o":"m 315 -9 q 425 56 404 -9 q 426 60 426 58 l 435 0 l 524 0 l 522 665 l 422 665 l 423 73 l 180 73 q 168 85 168 73 l 168 665 l 68 665 l 68 127 q 140 0 68 23 q 216 -9 170 -9 l 315 -9 z "},"ú":{"ha":601,"x_min":68,"x_max":524,"o":"m 315 -9 q 425 56 404 -9 q 426 60 426 58 l 435 0 l 524 0 l 522 665 l 422 665 l 423 73 l 180 73 q 168 85 168 73 l 168 665 l 68 665 l 68 127 q 140 0 68 23 q 216 -9 170 -9 l 315 -9 m 248 750 l 332 937 l 442 936 l 326 750 l 248 750 z "},"û":{"ha":601,"x_min":68,"x_max":524,"o":"m 315 -9 q 425 56 404 -9 q 426 60 426 58 l 435 0 l 524 0 l 522 665 l 422 665 l 423 73 l 180 73 q 168 85 168 73 l 168 665 l 68 665 l 68 127 q 140 0 68 23 q 216 -9 170 -9 l 315 -9 m 345 930 l 233 930 l 107 750 l 197 750 l 289 880 l 370 750 l 464 750 l 345 930 z "},"ü":{"ha":601,"x_min":68,"x_max":524,"o":"m 315 -9 q 425 56 404 -9 q 426 60 426 58 l 435 0 l 524 0 l 522 665 l 422 665 l 423 73 l 180 73 q 168 85 168 73 l 168 665 l 68 665 l 68 127 q 140 0 68 23 q 216 -9 170 -9 l 315 -9 m 224 783 l 224 897 l 126 897 l 126 783 l 224 783 m 461 783 l 461 897 l 363 897 l 363 783 l 461 783 z "},"ù":{"ha":601,"x_min":68,"x_max":524,"o":"m 315 -9 q 425 56 404 -9 q 426 60 426 58 l 435 0 l 524 0 l 522 665 l 422 665 l 423 73 l 180 73 q 168 85 168 73 l 168 665 l 68 665 l 68 127 q 140 0 68 23 q 216 -9 170 -9 l 315 -9 m 138 936 l 248 937 l 340 750 l 264 750 l 138 936 z "},"ű":{"ha":601,"x_min":68,"x_max":529,"o":"m 315 -9 q 425 56 404 -9 q 426 60 426 58 l 435 0 l 524 0 l 522 665 l 422 665 l 423 73 l 180 73 q 168 85 168 73 l 168 665 l 68 665 l 68 127 q 140 0 68 23 q 216 -9 170 -9 l 315 -9 m 164 750 l 245 937 l 353 936 l 239 750 l 164 750 m 338 750 l 422 937 l 529 936 l 412 750 l 338 750 z "},"ū":{"ha":601,"x_min":68,"x_max":524,"o":"m 315 -9 q 425 56 404 -9 q 426 60 426 58 l 435 0 l 524 0 l 522 665 l 422 665 l 423 73 l 180 73 q 168 85 168 73 l 168 665 l 68 665 l 68 127 q 140 0 68 23 q 216 -9 170 -9 l 315 -9 m 464 867 l 119 867 l 119 791 l 464 791 l 464 867 z "},"_":{"ha":597,"x_min":27,"x_max":570,"o":"m 570 -60 l 27 -60 l 27 -129 l 570 -129 l 570 -60 z "}," ":{"ha":263,"x_min":0,"x_max":0,"o":""},"­":{"ha":434,"x_min":43,"x_max":391,"o":"m 391 427 l 43 427 l 43 345 l 391 345 l 391 427 z "},"µ":{"ha":601,"x_min":68,"x_max":524,"o":"m 167 -258 l 157 9 q 233 -9 182 -9 l 327 -9 q 426 58 407 -8 l 435 0 l 524 0 l 522 665 l 422 665 l 423 73 l 180 73 q 168 85 168 73 l 168 665 l 68 665 l 68 -258 l 167 -258 z "},"Ģ":{"ha":715,"x_min":84,"x_max":644,"o":"m 476 -9 q 636 76 608 -9 q 644 142 644 104 l 644 449 l 384 449 l 384 362 l 541 362 l 541 98 q 529 85 538 87 l 203 85 q 191 98 193 88 l 191 764 q 203 776 194 774 l 629 776 l 629 871 l 252 871 q 92 784 119 871 q 84 720 84 755 l 84 142 q 178 -1 84 23 q 252 -9 209 -9 l 476 -9 m 324 -193 l 363 -193 q 326 -297 357 -250 l 362 -326 q 431 -172 431 -255 l 431 -60 l 324 -60 l 324 -193 z "},"ģ":{"ha":579,"x_min":64,"x_max":519,"o":"m 251 821 l 289 821 q 263 739 286 784 l 300 713 q 355 842 355 776 l 355 952 l 251 952 l 251 821 m 418 85 q 406 73 418 73 l 176 73 q 164 85 165 76 l 164 574 q 176 586 167 585 l 418 583 l 418 85 m 406 -183 l 87 -183 l 87 -267 l 355 -267 q 507 -198 477 -267 q 519 -121 519 -167 l 519 665 l 220 669 q 79 610 107 670 q 64 529 64 579 l 64 127 q 136 0 64 23 q 212 -9 165 -9 l 309 -9 q 418 53 397 -8 l 418 -171 q 406 -183 415 -182 z "},"Ķ":{"ha":734,"x_min":104,"x_max":723,"o":"m 411 392 q 423 381 419 392 l 425 380 l 612 0 l 723 0 l 557 330 q 498 423 521 406 q 473 438 486 433 q 537 514 510 453 q 549 544 543 528 l 689 861 l 585 861 l 425 494 q 412 481 418 483 l 209 481 l 209 861 l 104 861 l 104 0 l 209 0 l 209 392 l 411 392 m 321 -193 l 361 -193 q 323 -297 354 -250 l 359 -326 q 429 -172 429 -255 l 429 -60 l 321 -60 l 321 -193 z "},"ķ":{"ha":602,"x_min":90,"x_max":597,"o":"m 370 304 q 384 292 380 301 l 495 0 l 597 0 l 505 239 q 448 339 473 320 q 422 351 435 347 q 473 446 449 369 q 476 453 475 450 l 545 665 l 448 665 l 361 400 q 347 388 355 388 l 189 388 l 189 916 l 90 916 l 90 0 l 189 0 l 189 304 l 370 304 m 260 -187 l 298 -187 q 262 -289 292 -243 l 297 -316 q 363 -168 363 -248 l 363 -60 l 260 -60 l 260 -187 z "},"Ļ":{"ha":543,"x_min":98,"x_max":526,"o":"m 526 91 l 202 91 l 202 861 l 98 861 l 98 0 l 526 0 l 526 91 m 252 -193 l 292 -193 q 254 -297 285 -250 l 290 -326 q 359 -172 359 -255 l 359 -60 l 252 -60 l 252 -193 z "},"ļ":{"ha":278,"x_min":88,"x_max":193,"o":"m 190 0 l 190 916 l 90 916 l 90 0 l 190 0 m 88 -187 l 126 -187 q 90 -289 119 -243 l 125 -316 q 191 -168 191 -248 l 191 -60 l 88 -60 l 88 -187 z "},"Ņ":{"ha":772,"x_min":92,"x_max":678,"o":"m 606 0 l 678 0 l 678 861 l 587 861 l 587 199 l 164 861 l 92 861 l 92 0 l 184 0 l 184 663 l 606 0 m 328 -193 l 368 -193 q 330 -297 361 -250 l 366 -326 q 435 -172 435 -255 l 435 -60 l 328 -60 l 328 -193 z "},"ņ":{"ha":600,"x_min":77,"x_max":533,"o":"m 286 674 q 174 614 198 673 l 165 665 l 77 665 l 79 0 l 179 0 l 178 579 q 190 591 180 590 l 419 591 q 431 579 430 589 l 431 0 l 533 0 l 533 537 q 461 665 533 642 q 385 674 431 674 l 286 674 m 254 -187 l 292 -187 q 255 -289 285 -243 l 290 -316 q 357 -168 357 -248 l 357 -60 l 254 -60 l 254 -187 z "},"Ŗ":{"ha":718,"x_min":100,"x_max":667,"o":"m 205 0 l 203 354 l 423 354 q 445 339 439 353 l 562 0 l 667 0 l 568 282 q 522 362 548 339 q 642 522 640 391 l 642 701 q 461 867 639 868 l 100 861 l 100 0 l 205 0 m 517 776 q 533 758 532 773 l 533 460 q 517 442 530 444 l 203 442 l 203 776 l 517 776 m 321 -193 l 361 -193 q 323 -297 354 -250 l 359 -326 q 429 -172 429 -255 l 429 -60 l 321 -60 l 321 -193 z "},"ŗ":{"ha":363,"x_min":76,"x_max":363,"o":"m 285 674 q 172 614 197 673 l 164 665 l 76 665 l 77 0 l 178 0 l 176 575 q 189 587 179 586 l 363 587 l 363 674 l 285 674 m 80 -187 l 118 -187 q 81 -289 111 -243 l 117 -316 q 183 -168 183 -248 l 183 -60 l 80 -60 l 80 -187 z "},"Ş":{"ha":642,"x_min":60,"x_max":589,"o":"m 184 480 q 167 496 168 483 l 167 754 q 184 770 170 769 l 566 770 l 566 861 l 244 867 q 64 743 88 868 q 60 699 60 722 l 60 543 q 171 392 60 415 q 239 385 201 385 l 464 385 q 481 369 480 382 l 481 107 q 464 91 479 92 l 71 91 l 71 0 l 264 -3 l 237 -127 l 350 -127 q 359 -137 358 -130 l 359 -203 q 350 -213 357 -212 l 221 -213 l 221 -281 l 313 -281 q 434 -172 433 -278 l 434 -155 q 350 -69 434 -77 q 326 -68 338 -68 l 308 -68 l 321 -4 l 410 -5 q 589 160 587 -5 l 589 320 q 404 480 586 479 l 184 480 z "},"ş":{"ha":509,"x_min":46,"x_max":476,"o":"m 328 -5 q 464 58 438 -5 q 476 132 476 87 l 476 237 q 410 366 476 340 q 320 378 376 378 l 160 378 q 148 391 149 381 l 148 578 q 160 590 148 590 l 445 589 l 445 673 l 203 674 q 61 613 90 674 q 46 529 46 581 l 46 439 q 113 311 46 336 q 202 298 146 298 l 363 298 q 376 286 376 298 l 376 90 q 363 77 373 79 l 56 77 l 56 -5 l 203 -5 l 176 -126 l 289 -126 q 298 -136 297 -129 l 298 -202 q 289 -212 296 -210 l 160 -212 l 160 -279 l 252 -279 q 373 -171 372 -277 l 373 -153 q 289 -68 373 -76 q 264 -66 277 -66 l 247 -66 l 259 -5 l 328 -5 z "},"Ţ":{"ha":552,"x_min":7,"x_max":545,"o":"m 328 0 l 328 770 l 545 770 l 545 861 l 7 861 l 7 770 l 224 770 l 224 0 l 232 0 l 203 -126 l 316 -126 q 326 -136 324 -129 l 326 -202 q 316 -212 323 -210 l 187 -212 l 187 -279 l 279 -279 q 400 -171 399 -277 l 400 -153 q 316 -68 400 -76 q 292 -66 304 -66 l 274 -66 l 288 0 l 328 0 z "},"ţ":{"ha":377,"x_min":31,"x_max":373,"o":"m 373 665 l 214 665 l 214 834 l 114 834 l 114 665 l 31 665 l 31 586 l 114 586 l 114 146 q 189 12 115 41 l 157 -126 l 270 -126 q 279 -136 278 -129 l 279 -202 q 270 -212 277 -210 l 141 -212 l 141 -279 l 233 -279 q 354 -171 353 -277 l 354 -153 q 270 -68 354 -76 q 245 -66 258 -66 l 228 -66 l 241 1 q 278 0 255 0 l 373 0 l 373 84 l 227 84 q 214 96 214 84 l 214 586 l 373 586 l 373 665 z "},"Ș":{"ha":651,"x_min":60,"x_max":589,"o":"m 184 480 q 167 496 168 483 l 167 754 q 184 770 170 769 l 566 770 l 566 861 l 244 867 q 64 743 88 868 q 60 699 60 722 l 60 543 q 171 392 60 415 q 239 385 201 385 l 464 385 q 481 369 480 382 l 481 107 q 464 91 479 92 l 71 91 l 71 0 l 410 -5 q 589 160 587 -5 l 589 320 q 404 480 586 479 l 184 480 m 264 -193 l 304 -193 q 266 -297 297 -250 l 302 -326 q 372 -172 372 -255 l 372 -60 l 264 -60 l 264 -193 z "},"ș":{"ha":509,"x_min":46,"x_max":476,"o":"m 328 -5 q 464 58 438 -5 q 476 132 476 87 l 476 237 q 410 366 476 340 q 320 378 376 378 l 160 378 q 148 391 149 381 l 148 578 q 160 590 148 590 l 445 589 l 445 673 l 203 674 q 61 613 90 674 q 46 529 46 581 l 46 439 q 113 311 46 336 q 202 298 146 298 l 363 298 q 376 286 376 298 l 376 90 q 363 77 373 79 l 56 77 l 56 -5 l 328 -5 m 210 -187 l 248 -187 q 212 -289 241 -243 l 247 -316 q 313 -168 313 -248 l 313 -60 l 210 -60 l 210 -187 z "},"Ț":{"ha":552,"x_min":7,"x_max":545,"o":"m 328 0 l 328 770 l 545 770 l 545 861 l 7 861 l 7 770 l 224 770 l 224 0 l 328 0 m 222 -193 l 262 -193 q 224 -297 255 -250 l 260 -326 q 330 -172 330 -255 l 330 -60 l 222 -60 l 222 -193 z "},"ț":{"ha":377,"x_min":31,"x_max":373,"o":"m 373 665 l 214 665 l 214 834 l 114 834 l 114 665 l 31 665 l 31 586 l 114 586 l 114 146 q 190 12 114 38 q 278 0 225 0 l 373 0 l 373 84 l 227 84 q 214 96 214 84 l 214 586 l 373 586 l 373 665 m 198 -187 l 236 -187 q 199 -289 229 -243 l 235 -316 q 301 -168 301 -248 l 301 -60 l 198 -60 l 198 -187 z "},"ˉ":{"ha":491,"x_min":73,"x_max":418,"o":"m 418 867 l 73 867 l 73 791 l 418 791 l 418 867 z "},"₺":{"ha":700,"x_min":50,"x_max":643,"o":"m 475 -5 q 635 81 608 -7 q 643 145 643 109 l 643 349 l 537 349 l 537 102 q 525 90 534 91 l 258 90 l 258 327 l 454 399 l 454 465 l 258 393 l 258 476 l 454 549 l 454 614 l 258 543 l 258 814 l 152 814 l 152 503 l 50 467 l 50 401 l 152 437 l 152 354 l 50 317 l 50 251 l 152 288 l 152 -4 l 475 -5 z "},"₽":{"ha":713,"x_min":41,"x_max":648,"o":"m 233 0 l 233 191 l 430 191 l 430 267 l 233 267 l 233 343 l 475 343 q 643 454 621 343 q 648 507 648 479 l 648 654 q 476 819 648 819 q 471 819 473 819 l 129 814 l 129 419 l 41 419 l 41 343 l 129 343 l 129 267 l 41 267 l 41 191 l 129 191 l 129 0 l 233 0 m 526 726 q 543 708 541 723 l 543 437 q 526 419 540 420 l 233 419 l 233 726 l 526 726 z "},"ℓ":{"ha":572,"x_min":16,"x_max":532,"o":"m 532 -9 l 532 85 l 255 85 q 241 98 243 88 l 241 297 l 435 435 q 518 517 502 481 q 530 581 530 544 l 530 774 q 430 920 530 897 q 366 925 401 925 l 298 925 q 141 833 165 925 q 134 774 134 807 l 134 334 l 16 248 l 64 170 l 134 220 l 134 142 q 228 -1 134 23 q 302 -9 259 -9 l 532 -9 m 241 818 q 255 830 244 829 l 411 830 q 423 818 422 827 l 423 553 q 410 532 423 543 q 404 528 406 529 l 241 411 l 241 818 z "},"Ω":{"ha":735,"x_min":43,"x_max":692,"o":"m 296 0 l 296 90 l 202 117 q 190 132 190 122 l 190 764 q 202 776 193 774 l 532 776 q 544 764 543 773 l 544 132 q 532 117 541 119 l 438 90 l 438 0 l 692 0 l 692 91 l 591 91 q 652 220 652 125 l 652 720 q 557 863 652 838 q 484 871 526 871 l 250 871 q 90 784 117 871 q 81 720 81 755 l 81 220 q 142 91 83 123 l 43 91 l 43 0 l 296 0 z "},"∆":{"ha":690,"x_min":9,"x_max":681,"o":"m 681 0 l 403 861 l 290 861 l 9 0 l 681 0 m 553 91 l 136 91 l 346 755 l 553 91 z "},"∕":{"ha":608,"x_min":20,"x_max":574,"o":"m 488 871 l 20 -9 l 107 -9 l 574 871 l 488 871 z "},"∙":{"ha":397,"x_min":109,"x_max":290,"o":"m 109 340 q 189 269 111 270 l 209 269 q 290 340 289 271 l 290 426 q 209 499 279 495 l 189 499 q 109 426 111 494 l 109 340 z "},"ų":{"ha":601,"x_min":68,"x_max":549,"o":"m 315 -9 q 425 56 404 -9 q 426 60 426 58 l 435 0 l 448 0 l 376 -65 q 340 -155 340 -98 l 340 -183 q 414 -274 340 -259 q 477 -279 441 -279 l 549 -279 l 549 -205 l 435 -205 q 426 -195 427 -202 l 426 -122 q 437 -99 427 -109 l 524 0 l 522 665 l 422 665 l 423 73 l 180 73 q 168 85 168 73 l 168 665 l 68 665 l 68 127 q 140 0 68 23 q 216 -9 170 -9 l 315 -9 z "},"ů":{"ha":601,"x_min":68,"x_max":524,"o":"m 315 -9 q 425 56 404 -9 q 426 60 426 58 l 435 0 l 524 0 l 522 665 l 422 665 l 423 73 l 180 73 q 168 85 168 73 l 168 665 l 68 665 l 68 127 q 140 0 68 23 q 216 -9 170 -9 l 315 -9 m 416 849 q 365 956 416 936 q 292 967 338 967 q 183 918 203 967 q 172 849 172 892 q 227 739 172 761 q 292 730 251 730 q 410 792 389 730 q 416 849 416 815 m 231 849 q 248 911 231 901 q 292 918 262 918 q 353 894 345 918 q 358 849 358 879 q 335 787 358 798 q 292 780 319 780 q 235 808 243 780 q 231 849 231 823 z "},"v":{"ha":553,"x_min":5,"x_max":547,"o":"m 420 123 l 547 665 l 450 665 l 321 85 q 309 73 317 75 l 237 73 l 106 665 l 5 665 l 157 0 l 274 -7 q 389 35 359 -11 q 420 123 406 62 z "},"ඃ":{"ha":312,"x_min":34,"x_max":256,"o":"m 34 212 l 34 18 q 54 0 37 1 l 237 0 q 256 16 255 3 l 256 212 q 235 231 254 231 l 56 231 q 34 212 35 228 m 109 170 l 180 170 q 190 160 190 167 l 190 73 q 180 64 187 64 l 109 64 q 99 73 99 66 l 99 160 q 109 170 102 168 m 34 656 l 34 463 q 54 445 37 445 l 237 445 q 256 461 255 448 l 256 656 q 235 675 254 674 l 56 675 q 34 656 35 674 m 109 613 l 180 613 q 190 605 190 610 l 190 518 q 180 507 187 509 l 109 507 q 99 517 99 510 l 99 605 q 109 613 102 613 z "},"w":{"ha":913,"x_min":71,"x_max":842,"o":"m 331 -9 q 456 57 427 -8 q 582 -9 486 -8 l 694 -9 q 830 54 804 -9 q 842 127 842 83 l 842 665 l 742 665 l 742 85 q 730 73 742 73 l 518 73 q 506 85 507 76 l 506 665 l 407 665 l 407 85 q 395 73 407 73 l 183 73 q 171 85 172 76 l 171 665 l 71 665 l 71 118 q 132 1 71 24 q 218 -9 163 -9 l 331 -9 z "},"x":{"ha":593,"x_min":11,"x_max":585,"o":"m 117 0 l 243 281 q 255 292 250 292 l 334 292 q 346 281 343 289 l 477 0 l 585 0 l 475 227 q 415 323 438 305 q 389 336 403 332 q 422 372 408 349 q 456 439 437 395 l 456 441 l 556 665 l 457 665 l 336 387 q 324 376 331 376 l 271 376 q 259 387 262 378 l 140 665 l 37 665 l 134 441 q 194 342 170 361 q 201 338 198 339 q 141 273 168 324 q 119 227 134 259 l 11 0 l 117 0 z "},"y":{"ha":598,"x_min":66,"x_max":522,"o":"m 408 -183 l 88 -183 l 88 -267 l 358 -267 q 510 -198 480 -267 q 522 -121 522 -167 l 521 665 l 420 665 l 422 73 l 179 73 q 167 85 168 76 l 167 665 l 66 665 l 66 127 q 138 0 66 23 q 214 -9 168 -9 l 312 -9 q 422 53 401 -8 l 422 -171 q 408 -183 419 -182 z "},"ý":{"ha":598,"x_min":66,"x_max":522,"o":"m 408 -183 l 88 -183 l 88 -267 l 358 -267 q 510 -198 480 -267 q 522 -121 522 -167 l 521 665 l 420 665 l 422 73 l 179 73 q 167 85 168 76 l 167 665 l 66 665 l 66 127 q 138 0 66 23 q 214 -9 168 -9 l 312 -9 q 422 53 401 -8 l 422 -171 q 408 -183 419 -182 m 248 750 l 332 937 l 442 936 l 326 750 l 248 750 z "},"ÿ":{"ha":598,"x_min":66,"x_max":522,"o":"m 408 -183 l 88 -183 l 88 -267 l 358 -267 q 510 -198 480 -267 q 522 -121 522 -167 l 521 665 l 420 665 l 422 73 l 179 73 q 167 85 168 76 l 167 665 l 66 665 l 66 127 q 138 0 66 23 q 214 -9 168 -9 l 312 -9 q 422 53 401 -8 l 422 -171 q 408 -183 419 -182 m 224 783 l 224 897 l 126 897 l 126 783 l 224 783 m 461 783 l 461 897 l 363 897 l 363 783 l 461 783 z "},"¥":{"ha":722,"x_min":41,"x_max":681,"o":"m 597 168 l 597 235 l 412 235 l 412 311 l 597 311 l 597 377 l 494 377 q 503 400 496 384 q 511 416 509 411 l 681 814 l 576 814 l 410 400 q 395 388 403 388 l 334 388 q 319 400 323 391 l 151 815 l 41 815 l 209 416 q 217 400 212 411 q 227 377 224 384 l 126 377 l 126 311 l 308 311 l 308 235 l 126 235 l 126 168 l 308 168 l 308 0 l 412 0 l 412 168 l 597 168 z "},"z":{"ha":484,"x_min":20,"x_max":452,"o":"m 449 79 l 145 79 q 137 95 130 79 q 140 99 138 98 l 452 566 q 346 665 449 663 l 47 665 l 47 586 l 331 586 q 342 575 345 586 q 339 568 340 571 l 20 88 q 122 0 23 1 l 449 0 l 449 79 z "},"ź":{"ha":484,"x_min":20,"x_max":452,"o":"m 449 79 l 145 79 q 137 95 130 79 q 140 99 138 98 l 452 566 q 346 665 449 663 l 47 665 l 47 586 l 331 586 q 342 575 345 586 q 339 568 340 571 l 20 88 q 122 0 23 1 l 449 0 l 449 79 m 195 750 l 279 937 l 389 936 l 273 750 l 195 750 z "},"ž":{"ha":484,"x_min":20,"x_max":452,"o":"m 449 79 l 145 79 q 137 95 130 79 q 140 99 138 98 l 452 566 q 346 665 449 663 l 47 665 l 47 586 l 331 586 q 342 575 345 586 q 339 568 340 571 l 20 88 q 122 0 23 1 l 449 0 l 449 79 m 193 757 l 304 757 l 430 937 l 340 937 l 248 807 l 167 937 l 73 937 l 193 757 z "},"ż":{"ha":484,"x_min":20,"x_max":452,"o":"m 449 79 l 145 79 q 137 95 130 79 q 140 99 138 98 l 452 566 q 346 665 449 663 l 47 665 l 47 586 l 331 586 q 342 575 345 586 q 339 568 340 571 l 20 88 q 122 0 23 1 l 449 0 l 449 79 m 293 780 l 293 905 l 189 905 l 189 780 l 293 780 z "},"‍":{"ha":0,"x_min":-217,"x_max":217,"o":"m 47 888 l 217 722 l 168 674 l 35 807 l 35 5 l -35 5 l -35 807 l -168 674 l -217 722 l -47 888 l -217 1054 l -168 1101 l 0 933 l 168 1101 l 217 1054 l 47 888 z "},"‌":{"ha":0,"x_min":-35,"x_max":35,"o":"m -35 4 l -35 1040 l 35 1040 l 35 4 l -35 4 z "}}}
